UbuntuMono-Regular.ufo
<glyph name="exclam" format="2">
  <advance width="560"/>
  <unicode hex="0021"/>
  <outline>
    <contour>
      <point x="253" y="231" type="curve"/>
      <point x="302" y="231" type="line"/>
      <point x="311" y="320"/>
      <point x="318" y="392"/>
      <point x="318" y="504" type="curve" smooth="yes"/>
      <point x="318" y="693" type="line"/>
      <point x="236" y="693" type="line"/>
      <point x="236" y="504" type="line" smooth="yes"/>
      <point x="236" y="392"/>
      <point x="244" y="320"/>
    </contour>
    <contour>
      <point x="277" y="-13" type="curve" smooth="yes"/>
      <point x="316" y="-13"/>
      <point x="347" y="16"/>
      <point x="347" y="58" type="curve" smooth="yes"/>
      <point x="347" y="101"/>
      <point x="316" y="129"/>
      <point x="277" y="129" type="curve" smooth="yes"/>
      <point x="239" y="129"/>
      <point x="208" y="101"/>
      <point x="208" y="58" type="curve" smooth="yes"/>
      <point x="208" y="16"/>
      <point x="239" y="-13"/>
    </contour>
  </outline>
</glyph>
<glyph name="quotedbl" format="2">
  <advance width="560"/>
  <unicode hex="0022"/>
  <outline>
    <contour>
      <point x="349" y="482" type="curve"/>
      <point x="396" y="482" type="line"/>
      <point x="407" y="551"/>
      <point x="416" y="645"/>
      <point x="416" y="710" type="curve"/>
      <point x="416" y="760" type="line"/>
      <point x="329" y="760" type="line"/>
      <point x="329" y="711" type="line"/>
      <point x="329" y="645"/>
      <point x="338" y="551"/>
    </contour>
    <contour>
      <point x="164" y="482" type="curve"/>
      <point x="211" y="482" type="line"/>
      <point x="223" y="551"/>
      <point x="231" y="645"/>
      <point x="231" y="710" type="curve"/>
      <point x="231" y="760" type="line"/>
      <point x="144" y="760" type="line"/>
      <point x="144" y="711" type="line"/>
      <point x="144" y="645"/>
      <point x="153" y="551"/>
    </contour>
  </outline>
</glyph>
<glyph name="numbersign" format="2">
  <advance width="500"/>
  <unicode hex="0023"/>
  <outline>
    <contour>
      <point x="60" y="0" type="line"/>
      <point x="135" y="0" type="line"/>
      <point x="166" y="163" type="line"/>
      <point x="277" y="163" type="line"/>
      <point x="246" y="0" type="line"/>
      <point x="321" y="0" type="line"/>
      <point x="352" y="163" type="line"/>
      <point x="473" y="163" type="line"/>
      <point x="473" y="230" type="line"/>
      <point x="365" y="230" type="line"/>
      <point x="396" y="389" type="line"/>
      <point x="473" y="389" type="line"/>
      <point x="473" y="455" type="line"/>
      <point x="409" y="455" type="line"/>
      <point x="439" y="619" type="line"/>
      <point x="364" y="619" type="line"/>
      <point x="334" y="455" type="line"/>
      <point x="223" y="455" type="line"/>
      <point x="254" y="619" type="line"/>
      <point x="179" y="619" type="line"/>
      <point x="148" y="455" type="line"/>
      <point x="27" y="455" type="line"/>
      <point x="27" y="389" type="line"/>
      <point x="134" y="389" type="line"/>
      <point x="104" y="230" type="line"/>
      <point x="27" y="230" type="line"/>
      <point x="27" y="163" type="line"/>
      <point x="91" y="163" type="line"/>
    </contour>
    <contour>
      <point x="179" y="230" type="line"/>
      <point x="210" y="389" type="line"/>
      <point x="320" y="389" type="line"/>
      <point x="289" y="230" type="line"/>
    </contour>
  </outline>
</glyph>
<glyph name="dollar" format="2">
  <advance width="560"/>
  <unicode hex="0024"/>
  <outline>
    <contour>
      <point x="240" y="-109" type="line"/>
      <point x="323" y="-109" type="line"/>
      <point x="323" y="20" type="line"/>
      <point x="444" y="35"/>
      <point x="501" y="102"/>
      <point x="501" y="189" type="curve" smooth="yes"/>
      <point x="501" y="307"/>
      <point x="408" y="348"/>
      <point x="305" y="388" type="curve" smooth="yes"/>
      <point x="225" y="417"/>
      <point x="171" y="437"/>
      <point x="171" y="498" type="curve" smooth="yes"/>
      <point x="171" y="554"/>
      <point x="216" y="586"/>
      <point x="296" y="586" type="curve" smooth="yes"/>
      <point x="368" y="586"/>
      <point x="414" y="570"/>
      <point x="446" y="558" type="curve"/>
      <point x="465" y="636" type="line"/>
      <point x="436" y="647"/>
      <point x="382" y="661"/>
      <point x="323" y="664" type="curve"/>
      <point x="323" y="776" type="line"/>
      <point x="240" y="776" type="line"/>
      <point x="240" y="661" type="line"/>
      <point x="132" y="645"/>
      <point x="74" y="582"/>
      <point x="74" y="487" type="curve" smooth="yes"/>
      <point x="74" y="381"/>
      <point x="158" y="344"/>
      <point x="239" y="315" type="curve" smooth="yes"/>
      <point x="323" y="286"/>
      <point x="401" y="256"/>
      <point x="401" y="183" type="curve" smooth="yes"/>
      <point x="401" y="131"/>
      <point x="370" y="95"/>
      <point x="261" y="95" type="curve" smooth="yes"/>
      <point x="178" y="95"/>
      <point x="125" y="116"/>
      <point x="85" y="136" type="curve"/>
      <point x="60" y="58" type="line"/>
      <point x="88" y="43"/>
      <point x="147" y="20"/>
      <point x="240" y="17" type="curve"/>
    </contour>
  </outline>
</glyph>
<glyph name="percent" format="2">
  <advance width="560"/>
  <unicode hex="0025"/>
  <outline>
    <contour>
      <point x="28" y="0" type="line"/>
      <point x="106" y="0" type="line"/>
      <point x="531" y="693" type="line"/>
      <point x="452" y="693" type="line"/>
    </contour>
    <contour>
      <point x="418" y="-15" type="curve" smooth="yes"/>
      <point x="494" y="-15"/>
      <point x="540" y="46"/>
      <point x="540" y="159" type="curve" smooth="yes"/>
      <point x="540" y="272"/>
      <point x="494" y="333"/>
      <point x="418" y="333" type="curve" smooth="yes"/>
      <point x="343" y="333"/>
      <point x="297" y="272"/>
      <point x="297" y="159" type="curve" smooth="yes"/>
      <point x="297" y="46"/>
      <point x="343" y="-15"/>
    </contour>
    <contour>
      <point x="418" y="44" type="curve" smooth="yes"/>
      <point x="384" y="44"/>
      <point x="365" y="93"/>
      <point x="365" y="159" type="curve" smooth="yes"/>
      <point x="365" y="225"/>
      <point x="384" y="274"/>
      <point x="418" y="274" type="curve" smooth="yes"/>
      <point x="452" y="274"/>
      <point x="472" y="225"/>
      <point x="472" y="159" type="curve" smooth="yes"/>
      <point x="472" y="93"/>
      <point x="452" y="44"/>
    </contour>
    <contour>
      <point x="142" y="360" type="curve" smooth="yes"/>
      <point x="218" y="360"/>
      <point x="264" y="421"/>
      <point x="264" y="534" type="curve" smooth="yes"/>
      <point x="264" y="647"/>
      <point x="218" y="708"/>
      <point x="142" y="708" type="curve" smooth="yes"/>
      <point x="66" y="708"/>
      <point x="20" y="647"/>
      <point x="20" y="534" type="curve" smooth="yes"/>
      <point x="20" y="421"/>
      <point x="66" y="360"/>
    </contour>
    <contour>
      <point x="142" y="419" type="curve" smooth="yes"/>
      <point x="108" y="419"/>
      <point x="88" y="468"/>
      <point x="88" y="534" type="curve" smooth="yes"/>
      <point x="88" y="600"/>
      <point x="108" y="650"/>
      <point x="142" y="650" type="curve" smooth="yes"/>
      <point x="176" y="650"/>
      <point x="195" y="600"/>
      <point x="195" y="534" type="curve" smooth="yes"/>
      <point x="195" y="468"/>
      <point x="176" y="419"/>
    </contour>
  </outline>
</glyph>
<glyph name="ampersand" format="2">
  <advance width="500"/>
  <unicode hex="0026"/>
  <outline>
    <contour>
      <point x="194" y="-8" type="curve" smooth="yes"/>
      <point x="251" y="-8"/>
      <point x="305" y="14"/>
      <point x="348" y="67" type="curve"/>
      <point x="362" y="46"/>
      <point x="375" y="23"/>
      <point x="386" y="0" type="curve"/>
      <point x="473" y="0" type="line"/>
      <point x="450" y="51"/>
      <point x="421" y="96"/>
      <point x="391" y="138" type="curve"/>
      <point x="413" y="187"/>
      <point x="429" y="247"/>
      <point x="437" y="324" type="curve"/>
      <point x="368" y="333" type="line"/>
      <point x="364" y="280"/>
      <point x="356" y="236"/>
      <point x="345" y="199" type="curve"/>
      <point x="320" y="230"/>
      <point x="295" y="257"/>
      <point x="238" y="321" type="curve"/>
      <point x="324" y="375"/>
      <point x="363" y="444"/>
      <point x="363" y="505" type="curve" smooth="yes"/>
      <point x="363" y="589"/>
      <point x="296" y="633"/>
      <point x="226" y="633" type="curve" smooth="yes"/>
      <point x="148" y="633"/>
      <point x="75" y="584"/>
      <point x="75" y="480" type="curve" smooth="yes"/>
      <point x="75" y="429"/>
      <point x="98" y="382"/>
      <point x="133" y="335" type="curve"/>
      <point x="63" y="281"/>
      <point x="31" y="213"/>
      <point x="31" y="151" type="curve" smooth="yes"/>
      <point x="31" y="65"/>
      <point x="93" y="-8"/>
    </contour>
    <contour>
      <point x="202" y="60" type="curve" smooth="yes"/>
      <point x="154" y="60"/>
      <point x="114" y="98"/>
      <point x="114" y="159" type="curve" smooth="yes"/>
      <point x="114" y="201"/>
      <point x="134" y="250"/>
      <point x="172" y="285" type="curve"/>
      <point x="214" y="235"/>
      <point x="264" y="184"/>
      <point x="308" y="125" type="curve"/>
      <point x="277" y="80"/>
      <point x="237" y="60"/>
    </contour>
    <contour>
      <point x="200" y="369" type="curve"/>
      <point x="161" y="420"/>
      <point x="153" y="447"/>
      <point x="153" y="486" type="curve" smooth="yes"/>
      <point x="153" y="540"/>
      <point x="189" y="568"/>
      <point x="224" y="568" type="curve" smooth="yes"/>
      <point x="257" y="568"/>
      <point x="288" y="544"/>
      <point x="288" y="496" type="curve" smooth="yes"/>
      <point x="288" y="457"/>
      <point x="264" y="409"/>
    </contour>
  </outline>
</glyph>
<glyph name="quotesingle" format="2">
  <advance width="560"/>
  <unicode hex="0027"/>
  <outline>
    <contour>
      <point x="254" y="472" type="curve"/>
      <point x="304" y="472" type="line"/>
      <point x="314" y="539"/>
      <point x="320" y="655"/>
      <point x="320" y="717" type="curve" smooth="yes"/>
      <point x="320" y="760" type="line"/>
      <point x="238" y="760" type="line"/>
      <point x="238" y="718" type="line" smooth="yes"/>
      <point x="238" y="655"/>
      <point x="244" y="539"/>
    </contour>
  </outline>
</glyph>
<glyph name="parenleft" format="2">
  <advance width="560"/>
  <unicode hex="0028"/>
  <outline>
    <contour>
      <point x="377" y="-186" type="curve"/>
      <point x="423" y="-124" type="line"/>
      <point x="272" y="17"/>
      <point x="211" y="142"/>
      <point x="211" y="303" type="curve" smooth="yes"/>
      <point x="211" y="463"/>
      <point x="282" y="608"/>
      <point x="419" y="720" type="curve"/>
      <point x="376" y="782" type="line"/>
      <point x="216" y="656"/>
      <point x="134" y="479"/>
      <point x="134" y="301" type="curve" smooth="yes"/>
      <point x="134" y="121"/>
      <point x="216" y="-57"/>
    </contour>
  </outline>
</glyph>
<glyph name="parenright" format="2">
  <advance width="560"/>
  <unicode hex="0029"/>
  <outline>
    <contour>
      <point x="181" y="-186" type="line"/>
      <point x="341" y="-60"/>
      <point x="425" y="119"/>
      <point x="425" y="298" type="curve" smooth="yes"/>
      <point x="425" y="477"/>
      <point x="344" y="653"/>
      <point x="182" y="782" type="curve"/>
      <point x="137" y="720" type="line"/>
      <point x="288" y="579"/>
      <point x="349" y="457"/>
      <point x="349" y="295" type="curve" smooth="yes"/>
      <point x="349" y="136"/>
      <point x="275" y="-9"/>
      <point x="136" y="-124" type="curve"/>
    </contour>
  </outline>
</glyph>
<glyph name="asterisk" format="2">
  <advance width="560"/>
  <unicode hex="002A"/>
  <outline>
    <contour>
      <point x="191" y="288" type="line"/>
      <point x="209" y="312" type="line" smooth="yes"/>
      <point x="240" y="353"/>
      <point x="258" y="398"/>
      <point x="281" y="442" type="curve"/>
      <point x="302" y="399"/>
      <point x="321" y="356"/>
      <point x="348" y="315" type="curve" smooth="yes"/>
      <point x="366" y="288" type="line"/>
      <point x="438" y="338" type="line"/>
      <point x="421" y="363" type="line" smooth="yes"/>
      <point x="393" y="404"/>
      <point x="354" y="436"/>
      <point x="317" y="471" type="curve"/>
      <point x="366" y="478"/>
      <point x="413" y="486"/>
      <point x="461" y="498" type="curve" smooth="yes"/>
      <point x="492" y="506" type="line"/>
      <point x="465" y="587" type="line"/>
      <point x="436" y="576" type="line" smooth="yes"/>
      <point x="391" y="559"/>
      <point x="348" y="539"/>
      <point x="304" y="515" type="curve"/>
      <point x="313" y="568"/>
      <point x="324" y="619"/>
      <point x="324" y="673" type="curve" smooth="yes"/>
      <point x="324" y="693" type="line"/>
      <point x="238" y="693" type="line"/>
      <point x="238" y="674" type="line" smooth="yes"/>
      <point x="238" y="619"/>
      <point x="248" y="568"/>
      <point x="258" y="515" type="curve"/>
      <point x="217" y="536"/>
      <point x="177" y="555"/>
      <point x="134" y="572" type="curve" smooth="yes"/>
      <point x="93" y="588" type="line"/>
      <point x="67" y="507" type="line"/>
      <point x="108" y="495" type="line" smooth="yes"/>
      <point x="152" y="482"/>
      <point x="197" y="478"/>
      <point x="243" y="470" type="curve"/>
      <point x="208" y="437"/>
      <point x="175" y="406"/>
      <point x="145" y="368" type="curve" smooth="yes"/>
      <point x="122" y="339" type="line"/>
    </contour>
  </outline>
</glyph>
<glyph name="plus" format="2">
  <advance width="560"/>
  <unicode hex="002B"/>
  <outline>
    <contour>
      <point x="246" y="50" type="line"/>
      <point x="314" y="50" type="line"/>
      <point x="314" y="260" type="line"/>
      <point x="509" y="260" type="line"/>
      <point x="509" y="329" type="line"/>
      <point x="314" y="329" type="line"/>
      <point x="314" y="539" type="line"/>
      <point x="246" y="539" type="line"/>
      <point x="246" y="329" type="line"/>
      <point x="54" y="329" type="line"/>
      <point x="54" y="260" type="line"/>
      <point x="246" y="260" type="line"/>
    </contour>
  </outline>
</glyph>
<glyph name="comma" format="2">
  <advance width="560"/>
  <unicode hex="002C"/>
  <outline>
    <contour>
      <point x="190" y="-158" type="line"/>
      <point x="325" y="-142"/>
      <point x="394" y="-32"/>
      <point x="394" y="49" type="curve" smooth="yes"/>
      <point x="394" y="101"/>
      <point x="368" y="147"/>
      <point x="315" y="147" type="curve" smooth="yes"/>
      <point x="278" y="147"/>
      <point x="237" y="117"/>
      <point x="237" y="58" type="curve" smooth="yes"/>
      <point x="237" y="32"/>
      <point x="253" y="-6"/>
      <point x="300" y="-10" type="curve"/>
      <point x="279" y="-68"/>
      <point x="229" y="-79"/>
      <point x="175" y="-90" type="curve"/>
    </contour>
  </outline>
</glyph>
<glyph name="hyphen" format="2">
  <advance width="560"/>
  <unicode hex="002D"/>
  <outline>
    <contour>
      <point x="166" y="247" type="line"/>
      <point x="394" y="247" type="line"/>
      <point x="394" y="320" type="line"/>
      <point x="166" y="320" type="line"/>
    </contour>
  </outline>
</glyph>
<glyph name="period" format="2">
  <advance width="560"/>
  <unicode hex="002E"/>
  <outline>
    <contour>
      <point x="281" y="-13" type="curve" smooth="yes"/>
      <point x="329" y="-13"/>
      <point x="358" y="28"/>
      <point x="358" y="67" type="curve" smooth="yes"/>
      <point x="358" y="108"/>
      <point x="329" y="149"/>
      <point x="281" y="149" type="curve" smooth="yes"/>
      <point x="232" y="149"/>
      <point x="203" y="108"/>
      <point x="203" y="67" type="curve" smooth="yes"/>
      <point x="203" y="28"/>
      <point x="232" y="-13"/>
    </contour>
  </outline>
</glyph>
<glyph name="slash" format="2">
  <advance width="560"/>
  <unicode hex="002F"/>
  <outline>
    <contour>
      <point x="77" y="-185" type="line"/>
      <point x="172" y="-185" type="line"/>
      <point x="483" y="783" type="line"/>
      <point x="390" y="783" type="line"/>
    </contour>
  </outline>
</glyph>
<glyph name="zero" format="2">
  <advance width="560"/>
  <unicode hex="0030"/>
  <outline>
    <contour>
      <point x="280" y="-15" type="curve" smooth="yes"/>
      <point x="426" y="-15"/>
      <point x="508" y="115"/>
      <point x="508" y="347" type="curve" smooth="yes"/>
      <point x="508" y="579"/>
      <point x="426" y="709"/>
      <point x="280" y="709" type="curve" smooth="yes"/>
      <point x="136" y="709"/>
      <point x="52" y="579"/>
      <point x="52" y="347" type="curve" smooth="yes"/>
      <point x="52" y="115"/>
      <point x="136" y="-15"/>
    </contour>
    <contour>
      <point x="280" y="67" type="curve" smooth="yes"/>
      <point x="178" y="67"/>
      <point x="146" y="195"/>
      <point x="146" y="347" type="curve" smooth="yes"/>
      <point x="146" y="500"/>
      <point x="178" y="627"/>
      <point x="280" y="627" type="curve" smooth="yes"/>
      <point x="382" y="627"/>
      <point x="414" y="500"/>
      <point x="414" y="347" type="curve" smooth="yes"/>
      <point x="414" y="195"/>
      <point x="382" y="67"/>
    </contour>
    <contour>
      <point x="282" y="288" type="curve" smooth="yes"/>
      <point x="319" y="288"/>
      <point x="345" y="321"/>
      <point x="345" y="360" type="curve" smooth="yes"/>
      <point x="345" y="398"/>
      <point x="319" y="433"/>
      <point x="282" y="433" type="curve" smooth="yes"/>
      <point x="244" y="433"/>
      <point x="217" y="398"/>
      <point x="217" y="360" type="curve" smooth="yes"/>
      <point x="217" y="321"/>
      <point x="244" y="288"/>
    </contour>
  </outline>
</glyph>
<glyph name="one" format="2">
  <advance width="560"/>
  <unicode hex="0031"/>
  <outline>
    <contour>
      <point x="126" y="0" type="line"/>
      <point x="484" y="0" type="line"/>
      <point x="484" y="67" type="line"/>
      <point x="355" y="67" type="line"/>
      <point x="355" y="693" type="line"/>
      <point x="299" y="693" type="line"/>
      <point x="236" y="621"/>
      <point x="170" y="580"/>
      <point x="93" y="550" type="curve"/>
      <point x="117" y="494" type="line"/>
      <point x="180" y="516"/>
      <point x="248" y="554"/>
      <point x="277" y="583" type="curve"/>
      <point x="277" y="67" type="line"/>
      <point x="126" y="67" type="line"/>
    </contour>
  </outline>
</glyph>
<glyph name="two" format="2">
  <advance width="560"/>
  <unicode hex="0032"/>
  <outline>
    <contour>
      <point x="82" y="0" type="curve"/>
      <point x="492" y="0" type="line"/>
      <point x="492" y="67" type="line"/>
      <point x="167" y="67" type="line"/>
      <point x="167" y="112"/>
      <point x="253" y="204"/>
      <point x="302" y="253" type="curve" smooth="yes"/>
      <point x="384" y="337"/>
      <point x="465" y="423"/>
      <point x="465" y="518" type="curve" smooth="yes"/>
      <point x="465" y="639"/>
      <point x="408" y="709"/>
      <point x="255" y="709" type="curve" smooth="yes"/>
      <point x="152" y="709"/>
      <point x="82" y="647"/>
      <point x="69" y="629" type="curve"/>
      <point x="108" y="573" type="line"/>
      <point x="119" y="580"/>
      <point x="170" y="638"/>
      <point x="259" y="638" type="curve" smooth="yes"/>
      <point x="328" y="638"/>
      <point x="385" y="603"/>
      <point x="385" y="517" type="curve" smooth="yes"/>
      <point x="385" y="437"/>
      <point x="322" y="376"/>
      <point x="255" y="309" type="curve" smooth="yes"/>
      <point x="172" y="227"/>
      <point x="81" y="140"/>
      <point x="81" y="16" type="curve" smooth="yes"/>
      <point x="81" y="8"/>
      <point x="82" y="6"/>
    </contour>
  </outline>
</glyph>
<glyph name="three" format="2">
  <advance width="560"/>
  <unicode hex="0033"/>
  <outline>
    <contour>
      <point x="239" y="-15" type="curve" smooth="yes"/>
      <point x="416" y="-15"/>
      <point x="492" y="74"/>
      <point x="492" y="192" type="curve" smooth="yes"/>
      <point x="492" y="297"/>
      <point x="426" y="357"/>
      <point x="354" y="376" type="curve"/>
      <point x="415" y="403"/>
      <point x="461" y="454"/>
      <point x="461" y="532" type="curve" smooth="yes"/>
      <point x="461" y="634"/>
      <point x="401" y="709"/>
      <point x="258" y="709" type="curve" smooth="yes"/>
      <point x="182" y="709"/>
      <point x="115" y="679"/>
      <point x="87" y="657" type="curve"/>
      <point x="117" y="596" type="line"/>
      <point x="147" y="614"/>
      <point x="186" y="638"/>
      <point x="253" y="638" type="curve" smooth="yes"/>
      <point x="319" y="638"/>
      <point x="381" y="609"/>
      <point x="381" y="526" type="curve" smooth="yes"/>
      <point x="381" y="426"/>
      <point x="294" y="403"/>
      <point x="224" y="403" type="curve" smooth="yes"/>
      <point x="197" y="403" type="line"/>
      <point x="197" y="340" type="line"/>
      <point x="215" y="340" type="line" smooth="yes"/>
      <point x="314" y="340"/>
      <point x="412" y="304"/>
      <point x="412" y="194" type="curve" smooth="yes"/>
      <point x="412" y="109"/>
      <point x="363" y="56"/>
      <point x="237" y="56" type="curve" smooth="yes"/>
      <point x="161" y="56"/>
      <point x="109" y="80"/>
      <point x="87" y="90" type="curve"/>
      <point x="72" y="20" type="line"/>
      <point x="89" y="12"/>
      <point x="169" y="-15"/>
    </contour>
  </outline>
</glyph>
<glyph name="four" format="2">
  <advance width="560"/>
  <unicode hex="0034"/>
  <outline>
    <contour>
      <point x="361" y="0" type="line"/>
      <point x="435" y="0" type="line"/>
      <point x="435" y="181" type="line"/>
      <point x="519" y="181" type="line"/>
      <point x="519" y="246" type="line"/>
      <point x="435" y="246" type="line"/>
      <point x="435" y="693" type="line"/>
      <point x="356" y="693" type="line"/>
      <point x="226" y="564"/>
      <point x="92" y="351"/>
      <point x="43" y="233" type="curve"/>
      <point x="43" y="181" type="line"/>
      <point x="361" y="181" type="line"/>
    </contour>
    <contour>
      <point x="120" y="246" type="line"/>
      <point x="177" y="370"/>
      <point x="271" y="511"/>
      <point x="361" y="603" type="curve"/>
      <point x="361" y="246" type="line"/>
    </contour>
  </outline>
</glyph>
<glyph name="five" format="2">
  <advance width="560"/>
  <unicode hex="0035"/>
  <outline>
    <contour>
      <point x="244" y="-15" type="curve" smooth="yes"/>
      <point x="419" y="-15"/>
      <point x="495" y="74"/>
      <point x="495" y="197" type="curve" smooth="yes"/>
      <point x="495" y="334"/>
      <point x="409" y="418"/>
      <point x="208" y="426" type="curve"/>
      <point x="213" y="467"/>
      <point x="220" y="575"/>
      <point x="223" y="615" type="curve"/>
      <point x="476" y="615" type="line"/>
      <point x="476" y="693" type="line"/>
      <point x="142" y="693" type="line"/>
      <point x="137" y="575"/>
      <point x="133" y="482"/>
      <point x="116" y="351" type="curve"/>
      <point x="342" y="351"/>
      <point x="401" y="293"/>
      <point x="401" y="192" type="curve" smooth="yes"/>
      <point x="401" y="125"/>
      <point x="361" y="67"/>
      <point x="242" y="67" type="curve" smooth="yes"/>
      <point x="167" y="67"/>
      <point x="115" y="90"/>
      <point x="92" y="101" type="curve"/>
      <point x="74" y="21" type="line"/>
      <point x="96" y="10"/>
      <point x="174" y="-15"/>
    </contour>
  </outline>
</glyph>
<glyph name="six" format="2">
  <advance width="560"/>
  <unicode hex="0036"/>
  <outline>
    <contour>
      <point x="290" y="-15" type="curve" smooth="yes"/>
      <point x="438" y="-15"/>
      <point x="501" y="109"/>
      <point x="501" y="208" type="curve" smooth="yes"/>
      <point x="501" y="317"/>
      <point x="448" y="421"/>
      <point x="292" y="421" type="curve" smooth="yes"/>
      <point x="237" y="421"/>
      <point x="188" y="406"/>
      <point x="151" y="390" type="curve"/>
      <point x="186" y="565"/>
      <point x="290" y="626"/>
      <point x="459" y="629" type="curve"/>
      <point x="451" y="697" type="line"/>
      <point x="209" y="692"/>
      <point x="62" y="546"/>
      <point x="62" y="277" type="curve" smooth="yes"/>
      <point x="62" y="99"/>
      <point x="139" y="-15"/>
    </contour>
    <contour>
      <point x="290" y="51" type="curve" smooth="yes"/>
      <point x="176" y="51"/>
      <point x="145" y="155"/>
      <point x="145" y="280" type="curve" smooth="yes"/>
      <point x="145" y="295"/>
      <point x="145" y="311"/>
      <point x="146" y="326" type="curve"/>
      <point x="192" y="345"/>
      <point x="232" y="355"/>
      <point x="284" y="355" type="curve" smooth="yes"/>
      <point x="374" y="355"/>
      <point x="419" y="303"/>
      <point x="419" y="206" type="curve" smooth="yes"/>
      <point x="419" y="139"/>
      <point x="385" y="51"/>
    </contour>
  </outline>
</glyph>
<glyph name="seven" format="2">
  <advance width="560"/>
  <unicode hex="0037"/>
  <outline>
    <contour>
      <point x="182" y="0" type="curve"/>
      <point x="263" y="0" type="line"/>
      <point x="281" y="251"/>
      <point x="418" y="518"/>
      <point x="511" y="624" type="curve"/>
      <point x="511" y="693" type="line"/>
      <point x="76" y="693" type="line"/>
      <point x="76" y="623" type="line"/>
      <point x="425" y="623" type="line"/>
      <point x="317" y="506"/>
      <point x="199" y="220"/>
    </contour>
  </outline>
</glyph>
<glyph name="eight" format="2">
  <advance width="560"/>
  <unicode hex="0038"/>
  <outline>
    <contour>
      <point x="279" y="-15" type="curve" smooth="yes"/>
      <point x="429" y="-15"/>
      <point x="503" y="64"/>
      <point x="503" y="180" type="curve" smooth="yes"/>
      <point x="503" y="261"/>
      <point x="466" y="320"/>
      <point x="388" y="357" type="curve"/>
      <point x="440" y="391"/>
      <point x="487" y="450"/>
      <point x="487" y="529" type="curve" smooth="yes"/>
      <point x="487" y="608"/>
      <point x="430" y="709"/>
      <point x="280" y="709" type="curve" smooth="yes"/>
      <point x="152" y="709"/>
      <point x="72" y="620"/>
      <point x="72" y="519" type="curve" smooth="yes"/>
      <point x="72" y="446"/>
      <point x="102" y="391"/>
      <point x="167" y="354" type="curve"/>
      <point x="108" y="317"/>
      <point x="57" y="253"/>
      <point x="57" y="175" type="curve" smooth="yes"/>
      <point x="57" y="87"/>
      <point x="106" y="-15"/>
    </contour>
    <contour>
      <point x="280" y="62" type="curve" smooth="yes"/>
      <point x="180" y="62"/>
      <point x="147" y="127"/>
      <point x="147" y="174" type="curve" smooth="yes"/>
      <point x="147" y="242"/>
      <point x="181" y="291"/>
      <point x="241" y="324" type="curve"/>
      <point x="347" y="300"/>
      <point x="413" y="259"/>
      <point x="413" y="174" type="curve" smooth="yes"/>
      <point x="413" y="119"/>
      <point x="372" y="62"/>
    </contour>
    <contour>
      <point x="305" y="383" type="curve"/>
      <point x="203" y="407"/>
      <point x="162" y="466"/>
      <point x="162" y="526" type="curve" smooth="yes"/>
      <point x="162" y="573"/>
      <point x="195" y="632"/>
      <point x="280" y="632" type="curve" smooth="yes"/>
      <point x="364" y="632"/>
      <point x="398" y="569"/>
      <point x="398" y="529" type="curve" smooth="yes"/>
      <point x="398" y="457"/>
      <point x="361" y="416"/>
    </contour>
  </outline>
</glyph>
<glyph name="nine" format="2">
  <advance width="560"/>
  <unicode hex="0039"/>
  <outline>
    <contour>
      <point x="96" y="-2" type="line"/>
      <point x="370" y="-1"/>
      <point x="498" y="140"/>
      <point x="498" y="417" type="curve" smooth="yes"/>
      <point x="498" y="598"/>
      <point x="421" y="708"/>
      <point x="269" y="708" type="curve" smooth="yes"/>
      <point x="120" y="708"/>
      <point x="59" y="586"/>
      <point x="59" y="487" type="curve" smooth="yes"/>
      <point x="59" y="377"/>
      <point x="112" y="276"/>
      <point x="268" y="276" type="curve" smooth="yes"/>
      <point x="322" y="276"/>
      <point x="372" y="288"/>
      <point x="409" y="306" type="curve"/>
      <point x="379" y="127"/>
      <point x="274" y="63"/>
      <point x="93" y="64" type="curve"/>
    </contour>
    <contour>
      <point x="275" y="341" type="curve" smooth="yes"/>
      <point x="185" y="341"/>
      <point x="141" y="391"/>
      <point x="141" y="489" type="curve" smooth="yes"/>
      <point x="141" y="552"/>
      <point x="175" y="642"/>
      <point x="270" y="642" type="curve" smooth="yes"/>
      <point x="387" y="642"/>
      <point x="416" y="540"/>
      <point x="416" y="411" type="curve" smooth="yes"/>
      <point x="416" y="396"/>
      <point x="416" y="385"/>
      <point x="414" y="369" type="curve"/>
      <point x="369" y="350"/>
      <point x="328" y="341"/>
    </contour>
  </outline>
</glyph>
<glyph name="less" format="2">
  <advance width="560"/>
  <unicode hex="003C"/>
  <outline>
    <contour>
      <point x="489" y="67" type="line"/>
      <point x="511" y="131" type="line"/>
      <point x="144" y="285" type="line"/>
      <point x="511" y="437" type="line"/>
      <point x="489" y="501" type="line"/>
      <point x="57" y="317" type="line"/>
      <point x="57" y="251" type="line"/>
    </contour>
  </outline>
</glyph>
<glyph name="equal" format="2">
  <advance width="560"/>
  <unicode hex="003D"/>
  <outline>
    <contour>
      <point x="54" y="366" type="line"/>
      <point x="509" y="366" type="line"/>
      <point x="509" y="434" type="line"/>
      <point x="54" y="434" type="line"/>
    </contour>
    <contour>
      <point x="54" y="154" type="line"/>
      <point x="509" y="154" type="line"/>
      <point x="509" y="223" type="line"/>
      <point x="54" y="223" type="line"/>
    </contour>
  </outline>
</glyph>
<glyph name="greater" format="2">
  <advance width="560"/>
  <unicode hex="003E"/>
  <outline>
    <contour>
      <point x="80" y="67" type="line"/>
      <point x="513" y="251" type="line"/>
      <point x="513" y="318" type="line"/>
      <point x="80" y="501" type="line"/>
      <point x="58" y="438" type="line"/>
      <point x="425" y="286" type="line"/>
      <point x="58" y="131" type="line"/>
    </contour>
  </outline>
</glyph>
<glyph name="question" format="2">
  <advance width="560"/>
  <unicode hex="003F"/>
  <outline>
    <contour>
      <point x="213" y="231" type="curve"/>
      <point x="280" y="231" type="line"/>
      <point x="281" y="374"/>
      <point x="451" y="414"/>
      <point x="451" y="547" type="curve" smooth="yes"/>
      <point x="451" y="620"/>
      <point x="414" y="709"/>
      <point x="269" y="709" type="curve" smooth="yes"/>
      <point x="206" y="709"/>
      <point x="154" y="694"/>
      <point x="111" y="673" type="curve"/>
      <point x="133" y="611" type="line"/>
      <point x="172" y="633"/>
      <point x="215" y="643"/>
      <point x="258" y="643" type="curve" smooth="yes"/>
      <point x="333" y="643"/>
      <point x="371" y="599"/>
      <point x="371" y="540" type="curve" smooth="yes"/>
      <point x="371" y="427"/>
      <point x="212" y="381"/>
      <point x="212" y="255" type="curve" smooth="yes"/>
      <point x="212" y="247"/>
      <point x="214" y="239"/>
    </contour>
    <contour>
      <point x="254" y="-13" type="curve" smooth="yes"/>
      <point x="293" y="-13"/>
      <point x="324" y="16"/>
      <point x="324" y="58" type="curve" smooth="yes"/>
      <point x="324" y="101"/>
      <point x="293" y="129"/>
      <point x="254" y="129" type="curve" smooth="yes"/>
      <point x="216" y="129"/>
      <point x="185" y="101"/>
      <point x="185" y="58" type="curve" smooth="yes"/>
      <point x="185" y="16"/>
      <point x="216" y="-13"/>
    </contour>
  </outline>
</glyph>
<glyph name="at" format="2">
  <advance width="560"/>
  <unicode hex="0040"/>
  <outline>
    <contour>
      <point x="362" y="-151" type="curve" smooth="yes"/>
      <point x="396" y="-151"/>
      <point x="433" y="-146"/>
      <point x="472" y="-136" type="curve"/>
      <point x="463" y="-60" type="line"/>
      <point x="429" y="-71"/>
      <point x="398" y="-75"/>
      <point x="370" y="-75" type="curve" smooth="yes"/>
      <point x="205" y="-75"/>
      <point x="136" y="95"/>
      <point x="136" y="284" type="curve" smooth="yes"/>
      <point x="136" y="535"/>
      <point x="209" y="633"/>
      <point x="314" y="633" type="curve" smooth="yes"/>
      <point x="394" y="633"/>
      <point x="433" y="578"/>
      <point x="436" y="489" type="curve"/>
      <point x="436" y="479" type="line"/>
      <point x="424" y="480"/>
      <point x="412" y="482"/>
      <point x="401" y="482" type="curve" smooth="yes"/>
      <point x="286" y="482"/>
      <point x="207" y="408"/>
      <point x="207" y="269" type="curve" smooth="yes"/>
      <point x="207" y="113"/>
      <point x="288" y="47"/>
      <point x="392" y="47" type="curve" smooth="yes"/>
      <point x="431" y="47"/>
      <point x="479" y="53"/>
      <point x="524" y="71" type="curve"/>
      <point x="524" y="457" type="line" smooth="yes"/>
      <point x="524" y="614"/>
      <point x="442" y="709"/>
      <point x="311" y="709" type="curve" smooth="yes"/>
      <point x="164" y="709"/>
      <point x="45" y="580"/>
      <point x="45" y="272" type="curve" smooth="yes"/>
      <point x="45" y="59"/>
      <point x="143" y="-151"/>
    </contour>
    <contour>
      <point x="392" y="121" type="curve" smooth="yes"/>
      <point x="307" y="121"/>
      <point x="297" y="211"/>
      <point x="297" y="269" type="curve" smooth="yes"/>
      <point x="297" y="352"/>
      <point x="334" y="407"/>
      <point x="398" y="407" type="curve" smooth="yes"/>
      <point x="410" y="407"/>
      <point x="422" y="405"/>
      <point x="436" y="401" type="curve"/>
      <point x="436" y="127" type="line"/>
      <point x="420" y="122"/>
      <point x="404" y="121"/>
    </contour>
  </outline>
</glyph>
<glyph name="A" format="2">
  <advance width="560"/>
  <unicode hex="0041"/>
  <anchor x="280" y="0" name="bottom"/>
  <anchor x="504" y="11" name="ogonek"/>
  <anchor x="280" y="776" name="top"/>
  <outline>
    <contour>
      <point x="10" y="0" type="curve"/>
      <point x="89" y="0" type="line"/>
      <point x="132" y="187" type="line"/>
      <point x="423" y="187" type="line"/>
      <point x="467" y="0" type="line"/>
      <point x="550" y="0" type="line"/>
      <point x="501" y="176"/>
      <point x="427" y="466"/>
      <point x="334" y="693" type="curve"/>
      <point x="230" y="693" type="line"/>
      <point x="135" y="466"/>
      <point x="58" y="174"/>
    </contour>
    <contour>
      <point x="153" y="253" type="line"/>
      <point x="194" y="394"/>
      <point x="244" y="540"/>
      <point x="279" y="629" type="curve"/>
      <point x="313" y="545"/>
      <point x="363" y="396"/>
      <point x="403" y="253" type="curve"/>
    </contour>
  </outline>
</glyph>
<glyph name="B" format="2">
  <advance width="560"/>
  <unicode hex="0042"/>
  <anchor x="280" y="0" name="bottom"/>
  <anchor x="280" y="389" name="center"/>
  <anchor x="280" y="776" name="top"/>
  <outline>
    <contour>
      <point x="221" y="-5" type="curve" smooth="yes"/>
      <point x="426" y="-5"/>
      <point x="499" y="72"/>
      <point x="499" y="201" type="curve" smooth="yes"/>
      <point x="499" y="298"/>
      <point x="432" y="351"/>
      <point x="361" y="370" type="curve"/>
      <point x="418" y="388"/>
      <point x="467" y="454"/>
      <point x="467" y="519" type="curve" smooth="yes"/>
      <point x="467" y="670"/>
      <point x="342" y="700"/>
      <point x="224" y="700" type="curve" smooth="yes"/>
      <point x="182" y="700"/>
      <point x="104" y="697"/>
      <point x="60" y="683" type="curve"/>
      <point x="60" y="11" type="line"/>
      <point x="101" y="-1"/>
      <point x="180" y="-5"/>
    </contour>
    <contour>
      <point x="226" y="60" type="curve" smooth="yes"/>
      <point x="173" y="60"/>
      <point x="136" y="64"/>
      <point x="138" y="64" type="curve"/>
      <point x="138" y="330" type="line"/>
      <point x="238" y="330" type="line"/>
      <point x="331" y="330"/>
      <point x="420" y="301"/>
      <point x="420" y="200" type="curve" smooth="yes"/>
      <point x="420" y="90"/>
      <point x="327" y="60"/>
    </contour>
    <contour>
      <point x="138" y="395" type="line"/>
      <point x="138" y="630" type="line"/>
      <point x="150" y="632"/>
      <point x="183" y="634"/>
      <point x="226" y="634" type="curve" smooth="yes"/>
      <point x="311" y="634"/>
      <point x="388" y="599"/>
      <point x="388" y="513" type="curve" smooth="yes"/>
      <point x="388" y="419"/>
      <point x="295" y="395"/>
      <point x="217" y="395" type="curve" smooth="yes"/>
    </contour>
  </outline>
</glyph>
<glyph name="C" format="2">
  <advance width="560"/>
  <unicode hex="0043"/>
  <anchor x="280" y="0" name="bottom"/>
  <anchor x="280" y="776" name="top"/>
  <outline>
    <contour>
      <point x="339" y="-15" type="curve" smooth="yes"/>
      <point x="400" y="-15"/>
      <point x="456" y="-4"/>
      <point x="512" y="28" type="curve"/>
      <point x="491" y="94" type="line"/>
      <point x="433" y="63"/>
      <point x="385" y="56"/>
      <point x="349" y="56" type="curve" smooth="yes"/>
      <point x="234" y="56"/>
      <point x="139" y="146"/>
      <point x="139" y="346" type="curve" smooth="yes"/>
      <point x="139" y="512"/>
      <point x="211" y="638"/>
      <point x="344" y="638" type="curve" smooth="yes"/>
      <point x="381" y="638"/>
      <point x="425" y="627"/>
      <point x="482" y="596" type="curve"/>
      <point x="506" y="662" type="line"/>
      <point x="440" y="701"/>
      <point x="381" y="709"/>
      <point x="339" y="709" type="curve" smooth="yes"/>
      <point x="189" y="709"/>
      <point x="59" y="584"/>
      <point x="59" y="347" type="curve" smooth="yes"/>
      <point x="59" y="95"/>
      <point x="185" y="-15"/>
    </contour>
  </outline>
</glyph>
<glyph name="D" format="2">
  <advance width="560"/>
  <unicode hex="0044"/>
  <anchor x="280" y="0" name="bottom"/>
  <anchor x="280" y="389" name="center"/>
  <anchor x="280" y="685" name="top"/>
  <outline>
    <contour>
      <point x="198" y="-5" type="curve" smooth="yes"/>
      <point x="376" y="-5"/>
      <point x="511" y="91"/>
      <point x="511" y="347" type="curve" smooth="yes"/>
      <point x="511" y="605"/>
      <point x="371" y="700"/>
      <point x="192" y="700" type="curve" smooth="yes"/>
      <point x="148" y="700"/>
      <point x="104" y="693"/>
      <point x="60" y="683" type="curve"/>
      <point x="60" y="12" type="line"/>
      <point x="106" y="1"/>
      <point x="154" y="-5"/>
    </contour>
    <contour>
      <point x="205" y="63" type="curve" smooth="yes"/>
      <point x="185" y="63"/>
      <point x="161" y="64"/>
      <point x="138" y="67" type="curve"/>
      <point x="138" y="629" type="line"/>
      <point x="154" y="631"/>
      <point x="175" y="632"/>
      <point x="196" y="632" type="curve" smooth="yes"/>
      <point x="343" y="632"/>
      <point x="430" y="554"/>
      <point x="430" y="347" type="curve" smooth="yes"/>
      <point x="430" y="134"/>
      <point x="342" y="63"/>
    </contour>
  </outline>
</glyph>
<glyph name="E" format="2">
  <advance width="560"/>
  <unicode hex="0045"/>
  <anchor x="280" y="0" name="bottom"/>
  <anchor x="504" y="11" name="ogonek"/>
  <anchor x="280" y="776" name="top"/>
  <anchor x="22" y="776" name="topleft"/>
  <outline>
    <contour>
      <point x="111" y="0" type="line"/>
      <point x="515" y="0" type="line"/>
      <point x="515" y="67" type="line"/>
      <point x="190" y="67" type="line"/>
      <point x="190" y="329" type="line"/>
      <point x="454" y="329" type="line"/>
      <point x="454" y="396" type="line"/>
      <point x="190" y="396" type="line"/>
      <point x="190" y="626" type="line"/>
      <point x="491" y="626" type="line"/>
      <point x="491" y="693" type="line"/>
      <point x="111" y="693" type="line"/>
    </contour>
  </outline>
</glyph>
<glyph name="F" format="2">
  <advance width="560"/>
  <unicode hex="0046"/>
  <anchor x="280" y="0" name="bottom"/>
  <anchor x="280" y="776" name="top"/>
  <outline>
    <contour>
      <point x="111" y="0" type="line"/>
      <point x="190" y="0" type="line"/>
      <point x="190" y="328" type="line"/>
      <point x="459" y="328" type="line"/>
      <point x="459" y="395" type="line"/>
      <point x="190" y="395" type="line"/>
      <point x="190" y="626" type="line"/>
      <point x="495" y="626" type="line"/>
      <point x="495" y="693" type="line"/>
      <point x="111" y="693" type="line"/>
    </contour>
  </outline>
</glyph>
<glyph name="G" format="2">
  <advance width="560"/>
  <unicode hex="0047"/>
  <anchor x="280" y="0" name="bottom"/>
  <anchor x="280" y="776" name="top"/>
  <outline>
    <contour>
      <point x="335" y="-15" type="curve" smooth="yes"/>
      <point x="415" y="-15"/>
      <point x="481" y="8"/>
      <point x="508" y="17" type="curve"/>
      <point x="508" y="336" type="line"/>
      <point x="430" y="336" type="line"/>
      <point x="430" y="71" type="line"/>
      <point x="421" y="64"/>
      <point x="397" y="54"/>
      <point x="345" y="54" type="curve" smooth="yes"/>
      <point x="211" y="54"/>
      <point x="139" y="180"/>
      <point x="139" y="347" type="curve" smooth="yes"/>
      <point x="139" y="527"/>
      <point x="229" y="641"/>
      <point x="340" y="641" type="curve" smooth="yes"/>
      <point x="392" y="641"/>
      <point x="439" y="622"/>
      <point x="475" y="595" type="curve"/>
      <point x="503" y="662" type="line"/>
      <point x="486" y="675"/>
      <point x="438" y="709"/>
      <point x="338" y="709" type="curve" smooth="yes"/>
      <point x="184" y="709"/>
      <point x="59" y="577"/>
      <point x="59" y="347" type="curve" smooth="yes"/>
      <point x="59" y="118"/>
      <point x="171" y="-15"/>
    </contour>
  </outline>
</glyph>
<glyph name="H" format="2">
  <advance width="560"/>
  <unicode hex="0048"/>
  <anchor x="280" y="0" name="bottom"/>
  <anchor x="280" y="389" name="center"/>
  <anchor x="280" y="776" name="top"/>
  <anchor x="22" y="776" name="topleft"/>
  <outline>
    <contour>
      <point x="50" y="0" type="line"/>
      <point x="142" y="0" type="line"/>
      <point x="142" y="323" type="line"/>
      <point x="418" y="323" type="line"/>
      <point x="418" y="0" type="line"/>
      <point x="510" y="0" type="line"/>
      <point x="510" y="693" type="line"/>
      <point x="418" y="693" type="line"/>
      <point x="418" y="401" type="line"/>
      <point x="142" y="401" type="line"/>
      <point x="142" y="693" type="line"/>
      <point x="50" y="693" type="line"/>
    </contour>
  </outline>
</glyph>
<glyph name="I" format="2">
  <advance width="560"/>
  <unicode hex="0049"/>
  <anchor x="280" y="0" name="bottom"/>
  <anchor x="504" y="11" name="ogonek"/>
  <anchor x="280" y="776" name="top"/>
  <anchor x="22" y="776" name="topleft"/>
  <outline>
    <contour>
      <point x="112" y="0" type="line"/>
      <point x="448" y="0" type="line"/>
      <point x="448" y="67" type="line"/>
      <point x="319" y="67" type="line"/>
      <point x="319" y="626" type="line"/>
      <point x="448" y="626" type="line"/>
      <point x="448" y="693" type="line"/>
      <point x="112" y="693" type="line"/>
      <point x="112" y="626" type="line"/>
      <point x="241" y="626" type="line"/>
      <point x="241" y="67" type="line"/>
      <point x="112" y="67" type="line"/>
    </contour>
  </outline>
</glyph>
<glyph name="J" format="2">
  <advance width="560"/>
  <unicode hex="004A"/>
  <anchor x="280" y="0" name="bottom"/>
  <anchor x="280" y="776" name="top"/>
  <outline>
    <contour>
      <point x="240" y="-15" type="curve" smooth="yes"/>
      <point x="419" y="-15"/>
      <point x="464" y="90"/>
      <point x="464" y="220" type="curve" smooth="yes"/>
      <point x="464" y="693" type="line"/>
      <point x="149" y="693" type="line"/>
      <point x="149" y="626" type="line"/>
      <point x="387" y="626" type="line"/>
      <point x="387" y="230" type="line" smooth="yes"/>
      <point x="387" y="105"/>
      <point x="340" y="53"/>
      <point x="237" y="53" type="curve" smooth="yes"/>
      <point x="172" y="53"/>
      <point x="121" y="84"/>
      <point x="96" y="104" type="curve"/>
      <point x="64" y="39" type="line"/>
      <point x="87" y="20"/>
      <point x="152" y="-15"/>
    </contour>
  </outline>
</glyph>
<glyph name="K" format="2">
  <advance width="500"/>
  <unicode hex="004B"/>
  <anchor x="250" y="0" name="bottom"/>
  <anchor x="250" y="693" name="top"/>
  <outline>
    <contour>
      <point x="64" y="0" type="line"/>
      <point x="146" y="0" type="line"/>
      <point x="146" y="296" type="line"/>
      <point x="240" y="236"/>
      <point x="332" y="124"/>
      <point x="398" y="0" type="curve"/>
      <point x="491" y="0" type="line"/>
      <point x="435" y="134"/>
      <point x="321" y="259"/>
      <point x="236" y="330" type="curve"/>
      <point x="326" y="426"/>
      <point x="405" y="522"/>
      <point x="470" y="619" type="curve"/>
      <point x="375" y="619" type="line"/>
      <point x="315" y="535"/>
      <point x="232" y="432"/>
      <point x="146" y="343" type="curve"/>
      <point x="146" y="619" type="line"/>
      <point x="64" y="619" type="line"/>
    </contour>
  </outline>
</glyph>
<glyph name="M" format="2">
  <advance width="560"/>
  <unicode hex="004D"/>
  <anchor x="280" y="0" name="bottom"/>
  <anchor x="280" y="685" name="top"/>
  <outline>
    <contour>
      <point x="39" y="0" type="curve"/>
      <point x="117" y="0" type="line"/>
      <point x="121" y="156"/>
      <point x="132" y="393"/>
      <point x="135" y="591" type="curve"/>
      <point x="245" y="268" type="line"/>
      <point x="319" y="268" type="line"/>
      <point x="424" y="591" type="line"/>
      <point x="433" y="391"/>
      <point x="437" y="156"/>
      <point x="443" y="0" type="curve"/>
      <point x="521" y="0" type="line"/>
      <point x="509" y="251"/>
      <point x="502" y="485"/>
      <point x="470" y="693" type="curve"/>
      <point x="392" y="693" type="line"/>
      <point x="352" y="563"/>
      <point x="318" y="454"/>
      <point x="282" y="337" type="curve"/>
      <point x="245" y="457"/>
      <point x="210" y="563"/>
      <point x="170" y="693" type="curve"/>
      <point x="93" y="693" type="line"/>
      <point x="63" y="474"/>
      <point x="48" y="229"/>
    </contour>
  </outline>
</glyph>
<glyph name="N" format="2">
  <advance width="560"/>
  <unicode hex="004E"/>
  <anchor x="280" y="0" name="bottom"/>
  <anchor x="280" y="776" name="top"/>
  <outline>
    <contour>
      <point x="65" y="0" type="line"/>
      <point x="137" y="0" type="line"/>
      <point x="137" y="581" type="line"/>
      <point x="218" y="421"/>
      <point x="294" y="277"/>
      <point x="406" y="0" type="curve"/>
      <point x="495" y="0" type="line"/>
      <point x="495" y="693" type="line"/>
      <point x="423" y="693" type="line"/>
      <point x="423" y="128" type="line"/>
      <point x="323" y="378"/>
      <point x="289" y="442"/>
      <point x="154" y="693" type="curve"/>
      <point x="65" y="693" type="line"/>
    </contour>
  </outline>
</glyph>
<glyph name="O" format="2">
  <advance width="560"/>
  <unicode hex="004F"/>
  <anchor x="280" y="0" name="bottom"/>
  <anchor x="280" y="389" name="center"/>
  <anchor x="504" y="11" name="ogonek"/>
  <anchor x="280" y="776" name="top"/>
  <anchor x="22" y="776" name="topleft"/>
  <anchor x="538" y="776" name="topright"/>
  <outline>
    <contour>
      <point x="280" y="-15" type="curve" smooth="yes"/>
      <point x="424" y="-15"/>
      <point x="529" y="96"/>
      <point x="529" y="347" type="curve" smooth="yes"/>
      <point x="529" y="598"/>
      <point x="423" y="709"/>
      <point x="280" y="709" type="curve" smooth="yes"/>
      <point x="134" y="709"/>
      <point x="33" y="598"/>
      <point x="33" y="347" type="curve" smooth="yes"/>
      <point x="33" y="96"/>
      <point x="136" y="-15"/>
    </contour>
    <contour>
      <point x="277" y="53" type="curve" smooth="yes"/>
      <point x="172" y="53"/>
      <point x="114" y="152"/>
      <point x="114" y="347" type="curve" smooth="yes"/>
      <point x="114" y="544"/>
      <point x="172" y="641"/>
      <point x="277" y="641" type="curve" smooth="yes"/>
      <point x="384" y="641"/>
      <point x="449" y="543"/>
      <point x="449" y="347" type="curve" smooth="yes"/>
      <point x="449" y="152"/>
      <point x="384" y="53"/>
    </contour>
  </outline>
</glyph>
<glyph name="P" format="2">
  <advance width="560"/>
  <unicode hex="0050"/>
  <anchor x="280" y="0" name="bottom"/>
  <anchor x="280" y="776" name="top"/>
  <outline>
    <contour>
      <point x="89" y="0" type="line"/>
      <point x="167" y="0" type="line"/>
      <point x="167" y="267" type="line"/>
      <point x="256" y="267" type="line" smooth="yes"/>
      <point x="422" y="267"/>
      <point x="504" y="353"/>
      <point x="504" y="490" type="curve" smooth="yes"/>
      <point x="504" y="607"/>
      <point x="429" y="700"/>
      <point x="267" y="700" type="curve" smooth="yes"/>
      <point x="219" y="700"/>
      <point x="142" y="697"/>
      <point x="89" y="683" type="curve"/>
    </contour>
    <contour>
      <point x="167" y="332" type="line"/>
      <point x="167" y="629" type="line"/>
      <point x="185" y="631"/>
      <point x="227" y="632"/>
      <point x="271" y="632" type="curve" smooth="yes"/>
      <point x="373" y="632"/>
      <point x="424" y="578"/>
      <point x="424" y="486" type="curve" smooth="yes"/>
      <point x="424" y="378"/>
      <point x="367" y="332"/>
      <point x="249" y="332" type="curve" smooth="yes"/>
    </contour>
  </outline>
</glyph>
<glyph name="Q" format="2">
  <advance width="560"/>
  <unicode hex="0051"/>
  <anchor x="280" y="0" name="bottom"/>
  <anchor x="280" y="776" name="top"/>
  <outline>
    <contour>
      <point x="476" y="-183" type="curve"/>
      <point x="495" y="-117" type="line"/>
      <point x="410" y="-107"/>
      <point x="328" y="-78"/>
      <point x="321" y="-12" type="curve"/>
      <point x="443" y="8"/>
      <point x="529" y="120"/>
      <point x="529" y="347" type="curve" smooth="yes"/>
      <point x="529" y="598"/>
      <point x="423" y="709"/>
      <point x="280" y="709" type="curve" smooth="yes"/>
      <point x="134" y="709"/>
      <point x="33" y="598"/>
      <point x="33" y="347" type="curve" smooth="yes"/>
      <point x="33" y="124"/>
      <point x="113" y="11"/>
      <point x="231" y="-11" type="curve"/>
      <point x="256" y="-127"/>
      <point x="368" y="-163"/>
    </contour>
    <contour>
      <point x="277" y="53" type="curve" smooth="yes"/>
      <point x="172" y="53"/>
      <point x="114" y="151"/>
      <point x="114" y="347" type="curve" smooth="yes"/>
      <point x="114" y="543"/>
      <point x="172" y="641"/>
      <point x="277" y="641" type="curve" smooth="yes"/>
      <point x="384" y="641"/>
      <point x="449" y="543"/>
      <point x="449" y="347" type="curve" smooth="yes"/>
      <point x="449" y="151"/>
      <point x="384" y="53"/>
    </contour>
  </outline>
</glyph>
<glyph name="R" format="2">
  <advance width="560"/>
  <unicode hex="0052"/>
  <anchor x="280" y="0" name="bottom"/>
  <anchor x="280" y="776" name="top"/>
  <outline>
    <contour>
      <point x="63" y="0" type="line"/>
      <point x="142" y="0" type="line"/>
      <point x="142" y="278" type="line"/>
      <point x="226" y="278" type="line" smooth="yes"/>
      <point x="233" y="278"/>
      <point x="260" y="278"/>
      <point x="270" y="280" type="curve"/>
      <point x="318" y="227"/>
      <point x="377" y="111"/>
      <point x="425" y="0" type="curve"/>
      <point x="510" y="0" type="line"/>
      <point x="460" y="109"/>
      <point x="391" y="225"/>
      <point x="347" y="294" type="curve"/>
      <point x="421" y="331"/>
      <point x="477" y="397"/>
      <point x="477" y="484" type="curve" smooth="yes"/>
      <point x="477" y="625"/>
      <point x="395" y="700"/>
      <point x="228" y="700" type="curve" smooth="yes"/>
      <point x="179" y="700"/>
      <point x="107" y="696"/>
      <point x="63" y="683" type="curve"/>
    </contour>
    <contour>
      <point x="142" y="343" type="line"/>
      <point x="142" y="629" type="line"/>
      <point x="155" y="631"/>
      <point x="196" y="632"/>
      <point x="239" y="632" type="curve" smooth="yes"/>
      <point x="321" y="632"/>
      <point x="397" y="608"/>
      <point x="397" y="489" type="curve" smooth="yes"/>
      <point x="397" y="364"/>
      <point x="319" y="343"/>
      <point x="210" y="343" type="curve" smooth="yes"/>
    </contour>
  </outline>
</glyph>
<glyph name="S" format="2">
  <advance width="560"/>
  <unicode hex="0053"/>
  <anchor x="280" y="0" name="bottom"/>
  <anchor x="280" y="776" name="top"/>
  <outline>
    <contour>
      <point x="263" y="-15" type="curve" smooth="yes"/>
      <point x="408" y="-15"/>
      <point x="493" y="52"/>
      <point x="493" y="170" type="curve" smooth="yes"/>
      <point x="493" y="293"/>
      <point x="425" y="333"/>
      <point x="305" y="385" type="curve" smooth="yes"/>
      <point x="222" y="423"/>
      <point x="163" y="449"/>
      <point x="163" y="534" type="curve" smooth="yes"/>
      <point x="163" y="604"/>
      <point x="227" y="640"/>
      <point x="293" y="640" type="curve" smooth="yes"/>
      <point x="357" y="640"/>
      <point x="415" y="616"/>
      <point x="444" y="599" type="curve"/>
      <point x="470" y="667" type="line"/>
      <point x="442" y="689"/>
      <point x="370" y="709"/>
      <point x="296" y="709" type="curve" smooth="yes"/>
      <point x="163" y="709"/>
      <point x="85" y="638"/>
      <point x="85" y="520" type="curve" smooth="yes"/>
      <point x="85" y="418"/>
      <point x="160" y="368"/>
      <point x="252" y="330" type="curve" smooth="yes"/>
      <point x="333" y="297"/>
      <point x="416" y="262"/>
      <point x="416" y="167" type="curve" smooth="yes"/>
      <point x="416" y="89"/>
      <point x="356" y="54"/>
      <point x="263" y="54" type="curve" smooth="yes"/>
      <point x="179" y="54"/>
      <point x="117" y="83"/>
      <point x="92" y="98" type="curve"/>
      <point x="67" y="33" type="line"/>
      <point x="93" y="17"/>
      <point x="167" y="-15"/>
    </contour>
  </outline>
</glyph>
<glyph name="T" format="2">
  <advance width="560"/>
  <unicode hex="0054"/>
  <anchor x="280" y="0" name="bottom"/>
  <anchor x="280" y="389" name="center"/>
  <anchor x="280" y="776" name="top"/>
  <outline>
    <contour>
      <point x="241" y="0" type="line"/>
      <point x="319" y="0" type="line"/>
      <point x="319" y="626" type="line"/>
      <point x="511" y="626" type="line"/>
      <point x="511" y="693" type="line"/>
      <point x="49" y="693" type="line"/>
      <point x="49" y="626" type="line"/>
      <point x="241" y="626" type="line"/>
    </contour>
  </outline>
</glyph>
<glyph name="U" format="2">
  <advance width="560"/>
  <unicode hex="0055"/>
  <anchor x="280" y="0" name="bottom"/>
  <anchor x="504" y="11" name="ogonek"/>
  <anchor x="280" y="776" name="top"/>
  <anchor x="538" y="776" name="topright"/>
  <outline>
    <contour>
      <point x="280" y="-15" type="curve" smooth="yes"/>
      <point x="445" y="-15"/>
      <point x="506" y="83"/>
      <point x="506" y="239" type="curve" smooth="yes"/>
      <point x="506" y="693" type="line"/>
      <point x="414" y="693" type="line"/>
      <point x="414" y="249" type="line" smooth="yes"/>
      <point x="414" y="108"/>
      <point x="363" y="65"/>
      <point x="280" y="65" type="curve" smooth="yes"/>
      <point x="197" y="65"/>
      <point x="146" y="108"/>
      <point x="146" y="249" type="curve" smooth="yes"/>
      <point x="146" y="693" type="line"/>
      <point x="54" y="693" type="line"/>
      <point x="54" y="239" type="line" smooth="yes"/>
      <point x="54" y="83"/>
      <point x="116" y="-15"/>
    </contour>
  </outline>
</glyph>
<glyph name="V" format="2">
  <advance width="560"/>
  <unicode hex="0056"/>
  <anchor x="280" y="0" name="bottom"/>
  <anchor x="280" y="776" name="top"/>
  <outline>
    <contour>
      <point x="222" y="0" type="curve"/>
      <point x="336" y="0" type="line"/>
      <point x="436" y="270"/>
      <point x="522" y="575"/>
      <point x="547" y="693" type="curve"/>
      <point x="450" y="693" type="line"/>
      <point x="416" y="508"/>
      <point x="332" y="233"/>
      <point x="282" y="80" type="curve"/>
      <point x="230" y="232"/>
      <point x="151" y="504"/>
      <point x="114" y="693" type="curve"/>
      <point x="15" y="693" type="line"/>
      <point x="40" y="573"/>
      <point x="129" y="269"/>
    </contour>
  </outline>
</glyph>
<glyph name="W" format="2">
  <advance width="560"/>
  <unicode hex="0057"/>
  <anchor x="280" y="0" name="bottom"/>
  <anchor x="280" y="776" name="top"/>
  <outline>
    <contour>
      <point x="90" y="0" type="curve"/>
      <point x="168" y="0" type="line"/>
      <point x="206" y="122"/>
      <point x="241" y="235"/>
      <point x="278" y="356" type="curve"/>
      <point x="315" y="236"/>
      <point x="353" y="122"/>
      <point x="390" y="0" type="curve"/>
      <point x="466" y="0" type="line"/>
      <point x="491" y="178"/>
      <point x="510" y="437"/>
      <point x="521" y="693" type="curve"/>
      <point x="443" y="693" type="line"/>
      <point x="437" y="497"/>
      <point x="431" y="306"/>
      <point x="425" y="102" type="curve"/>
      <point x="390" y="203"/>
      <point x="357" y="305"/>
      <point x="315" y="425" type="curve"/>
      <point x="241" y="425" type="line"/>
      <point x="202" y="304"/>
      <point x="170" y="211"/>
      <point x="136" y="102" type="curve"/>
      <point x="129" y="306"/>
      <point x="124" y="497"/>
      <point x="117" y="693" type="curve"/>
      <point x="39" y="693" type="line"/>
      <point x="50" y="439"/>
      <point x="64" y="177"/>
    </contour>
  </outline>
</glyph>
<glyph name="X" format="2">
  <advance width="560"/>
  <unicode hex="0058"/>
  <anchor x="280" y="0" name="bottom"/>
  <anchor x="280" y="776" name="top"/>
  <outline>
    <contour>
      <point x="33" y="0" type="curve"/>
      <point x="118" y="0" type="line"/>
      <point x="166" y="110"/>
      <point x="222" y="233"/>
      <point x="278" y="313" type="curve"/>
      <point x="344" y="222"/>
      <point x="404" y="83"/>
      <point x="439" y="0" type="curve"/>
      <point x="527" y="0" type="line"/>
      <point x="467" y="137"/>
      <point x="401" y="258"/>
      <point x="331" y="370" type="curve"/>
      <point x="518" y="693" type="line"/>
      <point x="429" y="693" type="line"/>
      <point x="276" y="415" type="line"/>
      <point x="132" y="693" type="line"/>
      <point x="44" y="693" type="line"/>
      <point x="225" y="366" type="line"/>
      <point x="150" y="251"/>
      <point x="87" y="119"/>
    </contour>
  </outline>
</glyph>
<glyph name="Y" format="2">
  <advance width="560"/>
  <unicode hex="0059"/>
  <anchor x="280" y="0" name="bottom"/>
  <anchor x="280" y="776" name="top"/>
  <anchor x="22" y="776" name="topleft"/>
  <outline>
    <contour>
      <point x="242" y="0" type="line"/>
      <point x="320" y="0" type="line"/>
      <point x="320" y="259" type="line"/>
      <point x="411" y="413"/>
      <point x="491" y="550"/>
      <point x="547" y="693" type="curve"/>
      <point x="459" y="693" type="line"/>
      <point x="412" y="568"/>
      <point x="361" y="468"/>
      <point x="281" y="325" type="curve"/>
      <point x="211" y="455"/>
      <point x="149" y="564"/>
      <point x="105" y="693" type="curve"/>
      <point x="15" y="693" type="line"/>
      <point x="68" y="549"/>
      <point x="148" y="406"/>
      <point x="242" y="257" type="curve"/>
    </contour>
  </outline>
</glyph>
<glyph name="Z" format="2">
  <advance width="560"/>
  <unicode hex="005A"/>
  <anchor x="280" y="0" name="bottom"/>
  <anchor x="280" y="389" name="center"/>
  <anchor x="280" y="776" name="top"/>
  <outline>
    <contour>
      <point x="62" y="0" type="line"/>
      <point x="511" y="0" type="line"/>
      <point x="511" y="67" type="line"/>
      <point x="153" y="67" type="line"/>
      <point x="242" y="241"/>
      <point x="418" y="516"/>
      <point x="502" y="630" type="curve"/>
      <point x="502" y="693" type="line"/>
      <point x="80" y="693" type="line"/>
      <point x="80" y="626" type="line"/>
      <point x="412" y="626" type="line"/>
      <point x="314" y="495"/>
      <point x="167" y="262"/>
      <point x="62" y="54" type="curve"/>
    </contour>
  </outline>
</glyph>
<glyph name="bracketleft" format="2">
  <advance width="560"/>
  <unicode hex="005B"/>
  <outline>
    <contour>
      <point x="170" y="-185" type="line"/>
      <point x="425" y="-185" type="line"/>
      <point x="425" y="-122" type="line"/>
      <point x="245" y="-122" type="line"/>
      <point x="245" y="721" type="line"/>
      <point x="425" y="721" type="line"/>
      <point x="425" y="783" type="line"/>
      <point x="170" y="783" type="line"/>
    </contour>
  </outline>
</glyph>
<glyph name="backslash" format="2">
  <advance width="500"/>
  <unicode hex="005C"/>
  <outline>
    <contour>
      <point x="346" y="-165" type="line"/>
      <point x="430" y="-165" type="line"/>
      <point x="153" y="699" type="line"/>
      <point x="70" y="699" type="line"/>
    </contour>
  </outline>
</glyph>
<glyph name="bracketright" format="2">
  <advance width="560"/>
  <unicode hex="005D"/>
  <outline>
    <contour>
      <point x="135" y="-185" type="line"/>
      <point x="390" y="-185" type="line"/>
      <point x="390" y="783" type="line"/>
      <point x="135" y="783" type="line"/>
      <point x="135" y="721" type="line"/>
      <point x="315" y="721" type="line"/>
      <point x="315" y="-122" type="line"/>
      <point x="135" y="-122" type="line"/>
    </contour>
  </outline>
</glyph>
<glyph name="asciicircum" format="2">
  <advance width="560"/>
  <unicode hex="005E"/>
  <outline>
    <contour>
      <point x="112" y="324" type="line"/>
      <point x="279" y="617" type="line"/>
      <point x="446" y="324" type="line"/>
      <point x="505" y="355" type="line"/>
      <point x="314" y="693" type="line"/>
      <point x="243" y="693" type="line"/>
      <point x="53" y="355" type="line"/>
    </contour>
  </outline>
</glyph>
<glyph name="grave" format="2">
  <advance width="560"/>
  <unicode hex="0060"/>
  <outline>
    <contour>
      <point x="310" y="582" type="line"/>
      <point x="356" y="614" type="line"/>
      <point x="243" y="777" type="line"/>
      <point x="187" y="731" type="line"/>
    </contour>
  </outline>
</glyph>
<glyph name="a" format="2">
  <advance width="560"/>
  <unicode hex="0061"/>
  <anchor x="280" y="0" name="bottom"/>
  <anchor x="504" y="11" name="ogonek"/>
  <anchor x="280" y="582" name="top"/>
  <outline>
    <contour>
      <point x="294" y="-12" type="curve" smooth="yes"/>
      <point x="362" y="-12"/>
      <point x="436" y="0"/>
      <point x="481" y="8" type="curve"/>
      <point x="481" y="336" type="line" smooth="yes"/>
      <point x="481" y="449"/>
      <point x="431" y="530"/>
      <point x="279" y="530" type="curve" smooth="yes"/>
      <point x="211" y="530"/>
      <point x="148" y="519"/>
      <point x="125" y="508" type="curve"/>
      <point x="134" y="441" type="line"/>
      <point x="157" y="450"/>
      <point x="207" y="463"/>
      <point x="274" y="463" type="curve" smooth="yes"/>
      <point x="381" y="463"/>
      <point x="402" y="393"/>
      <point x="402" y="328" type="curve" smooth="yes"/>
      <point x="402" y="300" type="line"/>
      <point x="367" y="308"/>
      <point x="330" y="313"/>
      <point x="292" y="313" type="curve" smooth="yes"/>
      <point x="185" y="313"/>
      <point x="70" y="270"/>
      <point x="70" y="153" type="curve" smooth="yes"/>
      <point x="70" y="16"/>
      <point x="188" y="-12"/>
    </contour>
    <contour>
      <point x="288" y="56" type="curve" smooth="yes"/>
      <point x="203" y="56"/>
      <point x="151" y="79"/>
      <point x="151" y="153" type="curve" smooth="yes"/>
      <point x="151" y="224"/>
      <point x="228" y="245"/>
      <point x="298" y="245" type="curve" smooth="yes"/>
      <point x="339" y="245"/>
      <point x="378" y="238"/>
      <point x="402" y="230" type="curve"/>
      <point x="402" y="66" type="line"/>
      <point x="379" y="60"/>
      <point x="339" y="56"/>
    </contour>
  </outline>
</glyph>
<glyph name="b" format="2">
  <advance width="560"/>
  <unicode hex="0062"/>
  <anchor x="280" y="0" name="bottom"/>
  <anchor x="280" y="291" name="center"/>
  <anchor x="280" y="582" name="top"/>
  <outline>
    <contour>
      <point x="265" y="-12" type="curve" smooth="yes"/>
      <point x="410" y="-12"/>
      <point x="512" y="91"/>
      <point x="512" y="259" type="curve" smooth="yes"/>
      <point x="512" y="418"/>
      <point x="425" y="530"/>
      <point x="285" y="530" type="curve" smooth="yes"/>
      <point x="228" y="530"/>
      <point x="180" y="509"/>
      <point x="162" y="497" type="curve"/>
      <point x="162" y="776" type="line"/>
      <point x="83" y="762" type="line"/>
      <point x="83" y="15" type="line"/>
      <point x="119" y="4"/>
      <point x="180" y="-12"/>
    </contour>
    <contour>
      <point x="251" y="58" type="curve" smooth="yes"/>
      <point x="223" y="58"/>
      <point x="192" y="63"/>
      <point x="162" y="72" type="curve"/>
      <point x="162" y="414" type="line"/>
      <point x="183" y="435"/>
      <point x="233" y="459"/>
      <point x="279" y="459" type="curve" smooth="yes"/>
      <point x="387" y="459"/>
      <point x="430" y="369"/>
      <point x="430" y="258" type="curve" smooth="yes"/>
      <point x="430" y="129"/>
      <point x="362" y="58"/>
    </contour>
  </outline>
</glyph>
<glyph name="c" format="2">
  <advance width="560"/>
  <unicode hex="0063"/>
  <anchor x="280" y="0" name="bottom"/>
  <anchor x="280" y="582" name="top"/>
  <outline>
    <contour>
      <point x="333" y="-12" type="curve" smooth="yes"/>
      <point x="393" y="-12"/>
      <point x="445" y="-5"/>
      <point x="500" y="16" type="curve"/>
      <point x="489" y="82" type="line"/>
      <point x="433" y="62"/>
      <point x="394" y="60"/>
      <point x="345" y="60" type="curve" smooth="yes"/>
      <point x="230" y="60"/>
      <point x="138" y="116"/>
      <point x="138" y="258" type="curve" smooth="yes"/>
      <point x="138" y="409"/>
      <point x="241" y="459"/>
      <point x="341" y="459" type="curve" smooth="yes"/>
      <point x="378" y="459"/>
      <point x="419" y="458"/>
      <point x="474" y="438" type="curve"/>
      <point x="492" y="507" type="line"/>
      <point x="435" y="524"/>
      <point x="386" y="530"/>
      <point x="339" y="530" type="curve" smooth="yes"/>
      <point x="197" y="530"/>
      <point x="57" y="455"/>
      <point x="57" y="258" type="curve" smooth="yes"/>
      <point x="57" y="72"/>
      <point x="181" y="-12"/>
    </contour>
  </outline>
</glyph>
<glyph name="d" format="2">
  <advance width="500"/>
  <unicode hex="0064"/>
  <anchor x="250" y="0" name="bottom"/>
  <anchor x="250" y="260" name="center"/>
  <anchor x="250" y="776" name="top"/>
  <anchor x="480" y="776" name="topright"/>
  <outline>
    <contour>
      <point x="262" y="-11" type="curve" smooth="yes"/>
      <point x="336" y="-11"/>
      <point x="393" y="3"/>
      <point x="429" y="13" type="curve"/>
      <point x="429" y="693" type="line"/>
      <point x="346" y="679" type="line"/>
      <point x="346" y="447" type="line"/>
      <point x="327" y="460"/>
      <point x="288" y="475"/>
      <point x="239" y="475" type="curve" smooth="yes"/>
      <point x="115" y="475"/>
      <point x="40" y="375"/>
      <point x="40" y="232" type="curve" smooth="yes"/>
      <point x="40" y="82"/>
      <point x="129" y="-11"/>
    </contour>
    <contour>
      <point x="262" y="63" type="curve" smooth="yes"/>
      <point x="181" y="63"/>
      <point x="125" y="124"/>
      <point x="125" y="232" type="curve" smooth="yes"/>
      <point x="125" y="329"/>
      <point x="162" y="402"/>
      <point x="249" y="402" type="curve" smooth="yes"/>
      <point x="288" y="402"/>
      <point x="328" y="383"/>
      <point x="346" y="366" type="curve"/>
      <point x="346" y="72" type="line"/>
      <point x="333" y="68"/>
      <point x="303" y="63"/>
    </contour>
  </outline>
</glyph>
<glyph name="e" format="2">
  <advance width="560"/>
  <unicode hex="0065"/>
  <anchor x="280" y="0" name="bottom"/>
  <anchor x="504" y="11" name="ogonek"/>
  <anchor x="280" y="582" name="top"/>
  <outline>
    <contour>
      <point x="312" y="-12" type="curve" smooth="yes"/>
      <point x="387" y="-12"/>
      <point x="453" y="5"/>
      <point x="469" y="17" type="curve"/>
      <point x="458" y="83" type="line"/>
      <point x="438" y="73"/>
      <point x="392" y="60"/>
      <point x="324" y="60" type="curve" smooth="yes"/>
      <point x="202" y="60"/>
      <point x="137" y="121"/>
      <point x="126" y="240" type="curve"/>
      <point x="507" y="240" type="line"/>
      <point x="507" y="249"/>
      <point x="507" y="262"/>
      <point x="507" y="267" type="curve" smooth="yes"/>
      <point x="507" y="445"/>
      <point x="426" y="530"/>
      <point x="292" y="530" type="curve" smooth="yes"/>
      <point x="173" y="530"/>
      <point x="48" y="444"/>
      <point x="48" y="259" type="curve" smooth="yes"/>
      <point x="48" y="110"/>
      <point x="130" y="-12"/>
    </contour>
    <contour>
      <point x="129" y="309" type="line"/>
      <point x="138" y="385"/>
      <point x="200" y="463"/>
      <point x="290" y="463" type="curve" smooth="yes"/>
      <point x="367" y="463"/>
      <point x="424" y="406"/>
      <point x="424" y="309" type="curve"/>
    </contour>
  </outline>
</glyph>
<glyph name="f" format="2">
  <advance width="560"/>
  <unicode hex="0066"/>
  <anchor x="280" y="0" name="bottom"/>
  <anchor x="280" y="869" name="top"/>
  <outline>
    <contour>
      <point x="187" y="0" type="line"/>
      <point x="265" y="0" type="line"/>
      <point x="265" y="451" type="line"/>
      <point x="473" y="451" type="line"/>
      <point x="473" y="518" type="line"/>
      <point x="265" y="518" type="line"/>
      <point x="265" y="570" type="line" smooth="yes"/>
      <point x="265" y="675"/>
      <point x="320" y="708"/>
      <point x="385" y="708" type="curve" smooth="yes"/>
      <point x="437" y="708"/>
      <point x="490" y="695"/>
      <point x="522" y="677" type="curve"/>
      <point x="537" y="747" type="line"/>
      <point x="490" y="762"/>
      <point x="436" y="776"/>
      <point x="383" y="776" type="curve" smooth="yes"/>
      <point x="280" y="776"/>
      <point x="187" y="727"/>
      <point x="187" y="570" type="curve" smooth="yes"/>
      <point x="187" y="518" type="line"/>
      <point x="80" y="518" type="line"/>
      <point x="80" y="451" type="line"/>
      <point x="187" y="451" type="line"/>
    </contour>
  </outline>
</glyph>
<glyph name="g" format="2">
  <advance width="560"/>
  <unicode hex="0067"/>
  <anchor x="280" y="-207" name="bottom"/>
  <anchor x="280" y="582" name="top"/>
  <outline>
    <contour>
      <point x="235" y="-188" type="curve" smooth="yes"/>
      <point x="399" y="-188"/>
      <point x="480" y="-120"/>
      <point x="480" y="40" type="curve" smooth="yes"/>
      <point x="480" y="504" type="line"/>
      <point x="437" y="516"/>
      <point x="374" y="532"/>
      <point x="286" y="532" type="curve" smooth="yes"/>
      <point x="132" y="532"/>
      <point x="45" y="422"/>
      <point x="45" y="271" type="curve" smooth="yes"/>
      <point x="45" y="99"/>
      <point x="142" y="19"/>
      <point x="264" y="19" type="curve" smooth="yes"/>
      <point x="321" y="19"/>
      <point x="367" y="37"/>
      <point x="388" y="48" type="curve"/>
      <point x="388" y="30" type="line"/>
      <point x="388" y="-66"/>
      <point x="344" y="-108"/>
      <point x="237" y="-108" type="curve" smooth="yes"/>
      <point x="178" y="-108"/>
      <point x="128" y="-96"/>
      <point x="88" y="-80" type="curve"/>
      <point x="72" y="-161" type="line"/>
      <point x="113" y="-176"/>
      <point x="169" y="-188"/>
    </contour>
    <contour>
      <point x="272" y="101" type="curve" smooth="yes"/>
      <point x="202" y="101"/>
      <point x="140" y="151"/>
      <point x="140" y="270" type="curve" smooth="yes"/>
      <point x="140" y="379"/>
      <point x="192" y="450"/>
      <point x="287" y="450" type="curve" smooth="yes"/>
      <point x="340" y="450"/>
      <point x="370" y="444"/>
      <point x="388" y="438" type="curve"/>
      <point x="388" y="134" type="line"/>
      <point x="363" y="116"/>
      <point x="318" y="101"/>
    </contour>
  </outline>
</glyph>
<glyph name="h" format="2">
  <advance width="500"/>
  <unicode hex="0068"/>
  <anchor x="250" y="0" name="bottom"/>
  <anchor x="250" y="388" name="center"/>
  <anchor x="250" y="776" name="top"/>
  <outline>
    <contour>
      <point x="71" y="0" type="line"/>
      <point x="154" y="0" type="line"/>
      <point x="154" y="385" type="line"/>
      <point x="168" y="391"/>
      <point x="206" y="401"/>
      <point x="240" y="401" type="curve" smooth="yes"/>
      <point x="323" y="401"/>
      <point x="350" y="359"/>
      <point x="350" y="244" type="curve" smooth="yes"/>
      <point x="350" y="0" type="line"/>
      <point x="432" y="0" type="line"/>
      <point x="432" y="262" type="line" smooth="yes"/>
      <point x="432" y="388"/>
      <point x="389" y="474"/>
      <point x="248" y="474" type="curve" smooth="yes"/>
      <point x="216" y="474"/>
      <point x="181" y="468"/>
      <point x="154" y="457" type="curve"/>
      <point x="154" y="693" type="line"/>
      <point x="71" y="679" type="line"/>
    </contour>
  </outline>
</glyph>
<glyph name="i" format="2">
  <advance width="500"/>
  <unicode hex="0069"/>
  <anchor x="250" y="0" name="bottom"/>
  <outline>
    <contour>
      <point x="339" y="-11" type="curve" smooth="yes"/>
      <point x="389" y="-11"/>
      <point x="435" y="7"/>
      <point x="450" y="15" type="curve"/>
      <point x="438" y="85" type="line"/>
      <point x="419" y="75"/>
      <point x="385" y="63"/>
      <point x="346" y="63" type="curve" smooth="yes"/>
      <point x="296" y="63"/>
      <point x="270" y="87"/>
      <point x="270" y="179" type="curve" smooth="yes"/>
      <point x="270" y="464" type="line"/>
      <point x="54" y="464" type="line"/>
      <point x="54" y="395" type="line"/>
      <point x="188" y="395" type="line"/>
      <point x="188" y="179" type="line"/>
      <point x="188" y="54"/>
      <point x="222" y="-11"/>
    </contour>
    <contour>
      <point x="209" y="536" type="curve" smooth="yes"/>
      <point x="245" y="536"/>
      <point x="273" y="562"/>
      <point x="273" y="603" type="curve" smooth="yes"/>
      <point x="273" y="644"/>
      <point x="245" y="670"/>
      <point x="209" y="670" type="curve" smooth="yes"/>
      <point x="174" y="670"/>
      <point x="145" y="644"/>
      <point x="145" y="603" type="curve" smooth="yes"/>
      <point x="145" y="562"/>
      <point x="174" y="536"/>
    </contour>
  </outline>
</glyph>
<glyph name="k" format="2">
  <advance width="560"/>
  <unicode hex="006B"/>
  <anchor x="280" y="0" name="bottom"/>
  <anchor x="280" y="869" name="top"/>
  <outline>
    <contour>
      <point x="83" y="0" type="line"/>
      <point x="161" y="0" type="line"/>
      <point x="161" y="250" type="line"/>
      <point x="242" y="202"/>
      <point x="376" y="98"/>
      <point x="437" y="0" type="curve"/>
      <point x="532" y="0" type="line"/>
      <point x="475" y="95"/>
      <point x="331" y="227"/>
      <point x="251" y="283" type="curve"/>
      <point x="344" y="360"/>
      <point x="445" y="440"/>
      <point x="512" y="518" type="curve"/>
      <point x="421" y="518" type="line"/>
      <point x="348" y="438"/>
      <point x="252" y="372"/>
      <point x="161" y="297" type="curve"/>
      <point x="161" y="776" type="line"/>
      <point x="83" y="762" type="line"/>
    </contour>
  </outline>
</glyph>
<glyph name="l" format="2">
  <advance width="560"/>
  <unicode hex="006C"/>
  <anchor x="280" y="0" name="bottom"/>
  <anchor x="280" y="435" name="center"/>
  <anchor x="280" y="869" name="top"/>
  <anchor x="538" y="869" name="topright"/>
  <outline>
    <contour>
      <point x="379" y="-12" type="curve" smooth="yes"/>
      <point x="435" y="-12"/>
      <point x="487" y="8"/>
      <point x="504" y="17" type="curve"/>
      <point x="491" y="95" type="line"/>
      <point x="469" y="84"/>
      <point x="430" y="71"/>
      <point x="386" y="71" type="curve" smooth="yes"/>
      <point x="330" y="71"/>
      <point x="302" y="97"/>
      <point x="302" y="200" type="curve" smooth="yes"/>
      <point x="302" y="771" type="line"/>
      <point x="60" y="771" type="line"/>
      <point x="60" y="692" type="line"/>
      <point x="211" y="692" type="line"/>
      <point x="211" y="200" type="line" smooth="yes"/>
      <point x="211" y="60"/>
      <point x="248" y="-12"/>
    </contour>
  </outline>
</glyph>
<glyph name="m" format="2">
  <advance width="560"/>
  <unicode hex="006D"/>
  <anchor x="280" y="0" name="bottom"/>
  <anchor x="280" y="582" name="top"/>
  <outline>
    <contour>
      <point x="46" y="0" type="line"/>
      <point x="130" y="0" type="line"/>
      <point x="130" y="445" type="line"/>
      <point x="149" y="451"/>
      <point x="166" y="455"/>
      <point x="180" y="455" type="curve" smooth="yes"/>
      <point x="227" y="455"/>
      <point x="241" y="423"/>
      <point x="241" y="371" type="curve" smooth="yes"/>
      <point x="241" y="200" type="line"/>
      <point x="325" y="200" type="line"/>
      <point x="325" y="370" type="line" smooth="yes"/>
      <point x="325" y="391"/>
      <point x="323" y="410"/>
      <point x="318" y="427" type="curve"/>
      <point x="335" y="446"/>
      <point x="355" y="455"/>
      <point x="373" y="455" type="curve" smooth="yes"/>
      <point x="409" y="455"/>
      <point x="436" y="426"/>
      <point x="436" y="372" type="curve" smooth="yes"/>
      <point x="436" y="0" type="line"/>
      <point x="520" y="0" type="line"/>
      <point x="520" y="370" type="line" smooth="yes"/>
      <point x="520" y="478"/>
      <point x="456" y="531"/>
      <point x="385" y="531" type="curve" smooth="yes"/>
      <point x="349" y="531"/>
      <point x="314" y="517"/>
      <point x="282" y="492" type="curve"/>
      <point x="255" y="519"/>
      <point x="216" y="531"/>
      <point x="172" y="531" type="curve" smooth="yes"/>
      <point x="133" y="531"/>
      <point x="90" y="522"/>
      <point x="46" y="505" type="curve"/>
    </contour>
  </outline>
</glyph>
<glyph name="n" format="2">
  <advance width="560"/>
  <unicode hex="006E"/>
  <anchor x="280" y="0" name="bottom"/>
  <anchor x="280" y="582" name="top"/>
  <outline>
    <contour>
      <point x="83" y="0" type="line"/>
      <point x="161" y="0" type="line"/>
      <point x="161" y="447" type="line"/>
      <point x="196" y="454"/>
      <point x="235" y="458"/>
      <point x="268" y="458" type="curve" smooth="yes"/>
      <point x="343" y="458"/>
      <point x="403" y="434"/>
      <point x="403" y="291" type="curve" smooth="yes"/>
      <point x="403" y="0" type="line"/>
      <point x="481" y="0" type="line"/>
      <point x="481" y="307" type="line" smooth="yes"/>
      <point x="481" y="470"/>
      <point x="400" y="529"/>
      <point x="271" y="529" type="curve" smooth="yes"/>
      <point x="221" y="529"/>
      <point x="154" y="522"/>
      <point x="83" y="504" type="curve"/>
    </contour>
  </outline>
</glyph>
<glyph name="o" format="2">
  <advance width="560"/>
  <unicode hex="006F"/>
  <anchor x="280" y="0" name="bottom"/>
  <anchor x="280" y="291" name="center"/>
  <anchor x="504" y="11" name="ogonek"/>
  <anchor x="280" y="582" name="top"/>
  <anchor x="538" y="582" name="topright"/>
  <outline>
    <contour>
      <point x="278" y="-11" type="curve" smooth="yes"/>
      <point x="413" y="-11"/>
      <point x="511" y="95"/>
      <point x="511" y="259" type="curve" smooth="yes"/>
      <point x="511" y="422"/>
      <point x="414" y="530"/>
      <point x="278" y="530" type="curve" smooth="yes"/>
      <point x="145" y="530"/>
      <point x="49" y="422"/>
      <point x="49" y="259" type="curve" smooth="yes"/>
      <point x="49" y="95"/>
      <point x="146" y="-11"/>
    </contour>
    <contour>
      <point x="279" y="61" type="curve" smooth="yes"/>
      <point x="192" y="61"/>
      <point x="130" y="135"/>
      <point x="130" y="259" type="curve" smooth="yes"/>
      <point x="130" y="383"/>
      <point x="190" y="459"/>
      <point x="278" y="459" type="curve" smooth="yes"/>
      <point x="368" y="459"/>
      <point x="430" y="383"/>
      <point x="430" y="259" type="curve" smooth="yes"/>
      <point x="430" y="135"/>
      <point x="369" y="61"/>
    </contour>
  </outline>
</glyph>
<glyph name="p" format="2">
  <advance width="560"/>
  <unicode hex="0070"/>
  <anchor x="280" y="0" name="bottom"/>
  <anchor x="280" y="582" name="top"/>
  <outline>
    <contour>
      <point x="83" y="-185" type="line"/>
      <point x="161" y="-185" type="line"/>
      <point x="161" y="22" type="line"/>
      <point x="178" y="6"/>
      <point x="224" y="-12"/>
      <point x="285" y="-12" type="curve" smooth="yes"/>
      <point x="425" y="-12"/>
      <point x="512" y="101"/>
      <point x="512" y="258" type="curve" smooth="yes"/>
      <point x="512" y="426"/>
      <point x="410" y="529"/>
      <point x="265" y="529" type="curve" smooth="yes"/>
      <point x="180" y="529"/>
      <point x="120" y="512"/>
      <point x="83" y="502" type="curve"/>
    </contour>
    <contour>
      <point x="279" y="61" type="curve" smooth="yes"/>
      <point x="233" y="61"/>
      <point x="184" y="84"/>
      <point x="161" y="105" type="curve"/>
      <point x="161" y="445" type="line"/>
      <point x="177" y="452"/>
      <point x="206" y="458"/>
      <point x="266" y="458" type="curve" smooth="yes"/>
      <point x="360" y="458"/>
      <point x="431" y="388"/>
      <point x="431" y="259" type="curve" smooth="yes"/>
      <point x="431" y="149"/>
      <point x="387" y="61"/>
    </contour>
  </outline>
</glyph>
<glyph name="q" format="2">
  <advance width="560"/>
  <unicode hex="0071"/>
  <anchor x="280" y="0" name="bottom"/>
  <anchor x="280" y="582" name="top"/>
  <outline>
    <contour>
      <point x="399" y="-185" type="line"/>
      <point x="477" y="-185" type="line"/>
      <point x="477" y="501" type="line"/>
      <point x="437" y="511"/>
      <point x="379" y="529"/>
      <point x="297" y="529" type="curve" smooth="yes"/>
      <point x="150" y="529"/>
      <point x="48" y="427"/>
      <point x="48" y="258" type="curve" smooth="yes"/>
      <point x="48" y="103"/>
      <point x="137" y="-12"/>
      <point x="277" y="-12" type="curve" smooth="yes"/>
      <point x="334" y="-12"/>
      <point x="379" y="8"/>
      <point x="399" y="22" type="curve"/>
    </contour>
    <contour>
      <point x="282" y="61" type="curve" smooth="yes"/>
      <point x="176" y="61"/>
      <point x="130" y="149"/>
      <point x="130" y="259" type="curve" smooth="yes"/>
      <point x="130" y="388"/>
      <point x="201" y="458"/>
      <point x="297" y="458" type="curve" smooth="yes"/>
      <point x="354" y="458"/>
      <point x="383" y="452"/>
      <point x="400" y="445" type="curve"/>
      <point x="400" y="105" type="line"/>
      <point x="379" y="84"/>
      <point x="330" y="61"/>
    </contour>
  </outline>
</glyph>
<glyph name="r" format="2">
  <advance width="560"/>
  <unicode hex="0072"/>
  <anchor x="280" y="0" name="bottom"/>
  <anchor x="280" y="582" name="top"/>
  <outline>
    <contour>
      <point x="120" y="0" type="line"/>
      <point x="212" y="0" type="line"/>
      <point x="212" y="431" type="line"/>
      <point x="258" y="444"/>
      <point x="304" y="450"/>
      <point x="351" y="450" type="curve" smooth="yes"/>
      <point x="393" y="450"/>
      <point x="427" y="448"/>
      <point x="474" y="435" type="curve"/>
      <point x="491" y="516" type="line"/>
      <point x="439" y="528"/>
      <point x="398" y="531"/>
      <point x="351" y="531" type="curve" smooth="yes"/>
      <point x="272" y="531"/>
      <point x="195" y="517"/>
      <point x="120" y="492" type="curve"/>
    </contour>
  </outline>
</glyph>
<glyph name="s" format="2">
  <advance width="560"/>
  <unicode hex="0073"/>
  <anchor x="280" y="0" name="bottom"/>
  <anchor x="280" y="582" name="top"/>
  <outline>
    <contour>
      <point x="259" y="-12" type="curve" smooth="yes"/>
      <point x="411" y="-12"/>
      <point x="483" y="36"/>
      <point x="483" y="133" type="curve" smooth="yes"/>
      <point x="483" y="229"/>
      <point x="378" y="268"/>
      <point x="287" y="302" type="curve" smooth="yes"/>
      <point x="222" y="325"/>
      <point x="164" y="346"/>
      <point x="164" y="389" type="curve" smooth="yes"/>
      <point x="164" y="442"/>
      <point x="209" y="463"/>
      <point x="295" y="463" type="curve" smooth="yes"/>
      <point x="350" y="463"/>
      <point x="418" y="452"/>
      <point x="442" y="437" type="curve"/>
      <point x="456" y="510" type="line"/>
      <point x="414" y="521"/>
      <point x="348" y="530"/>
      <point x="294" y="530" type="curve" smooth="yes"/>
      <point x="153" y="530"/>
      <point x="87" y="470"/>
      <point x="87" y="388" type="curve" smooth="yes"/>
      <point x="87" y="296"/>
      <point x="176" y="261"/>
      <point x="260" y="231" type="curve" smooth="yes"/>
      <point x="333" y="206"/>
      <point x="403" y="181"/>
      <point x="403" y="127" type="curve" smooth="yes"/>
      <point x="403" y="78"/>
      <point x="359" y="55"/>
      <point x="271" y="55" type="curve" smooth="yes"/>
      <point x="204" y="55"/>
      <point x="147" y="71"/>
      <point x="95" y="96" type="curve"/>
      <point x="78" y="22" type="line"/>
      <point x="137" y="-4"/>
      <point x="194" y="-12"/>
    </contour>
  </outline>
</glyph>
<glyph name="t" format="2">
  <advance width="560"/>
  <unicode hex="0074"/>
  <anchor x="280" y="0" name="bottom"/>
  <anchor x="280" y="291" name="center"/>
  <anchor x="280" y="582" name="top"/>
  <anchor x="538" y="869" name="topright"/>
  <outline>
    <contour>
      <point x="373" y="-12" type="curve" smooth="yes"/>
      <point x="442" y="-12"/>
      <point x="486" y="12"/>
      <point x="497" y="17" type="curve"/>
      <point x="485" y="83" type="line"/>
      <point x="461" y="72"/>
      <point x="433" y="60"/>
      <point x="380" y="60" type="curve" smooth="yes"/>
      <point x="293" y="60"/>
      <point x="264" y="90"/>
      <point x="264" y="200" type="curve" smooth="yes"/>
      <point x="264" y="451" type="line"/>
      <point x="484" y="451" type="line"/>
      <point x="484" y="518" type="line"/>
      <point x="264" y="518" type="line"/>
      <point x="264" y="681" type="line"/>
      <point x="186" y="667" type="line"/>
      <point x="186" y="518" type="line"/>
      <point x="80" y="518" type="line"/>
      <point x="80" y="451" type="line"/>
      <point x="186" y="451" type="line"/>
      <point x="186" y="201" type="line" smooth="yes"/>
      <point x="186" y="72"/>
      <point x="210" y="-12"/>
    </contour>
  </outline>
</glyph>
<glyph name="u" format="2">
  <advance width="560"/>
  <unicode hex="0075"/>
  <anchor x="280" y="0" name="bottom"/>
  <anchor x="504" y="11" name="ogonek"/>
  <anchor x="280" y="582" name="top"/>
  <anchor x="538" y="582" name="topright"/>
  <outline>
    <contour>
      <point x="284" y="-11" type="curve" smooth="yes"/>
      <point x="374" y="-11"/>
      <point x="440" y="4"/>
      <point x="477" y="14" type="curve"/>
      <point x="477" y="518" type="line"/>
      <point x="399" y="518" type="line"/>
      <point x="399" y="71" type="line"/>
      <point x="390" y="67"/>
      <point x="339" y="60"/>
      <point x="293" y="60" type="curve" smooth="yes"/>
      <point x="197" y="60"/>
      <point x="157" y="110"/>
      <point x="157" y="247" type="curve" smooth="yes"/>
      <point x="157" y="518" type="line"/>
      <point x="79" y="518" type="line"/>
      <point x="79" y="225" type="line" smooth="yes"/>
      <point x="79" y="86"/>
      <point x="133" y="-11"/>
    </contour>
  </outline>
</glyph>
<glyph name="v" format="2">
  <advance width="560"/>
  <unicode hex="0076"/>
  <anchor x="280" y="0" name="bottom"/>
  <anchor x="280" y="582" name="top"/>
  <outline>
    <contour>
      <point x="240" y="0" type="curve"/>
      <point x="315" y="0" type="line"/>
      <point x="384" y="142"/>
      <point x="469" y="330"/>
      <point x="521" y="518" type="curve"/>
      <point x="438" y="518" type="line"/>
      <point x="399" y="383"/>
      <point x="333" y="201"/>
      <point x="280" y="94" type="curve"/>
      <point x="225" y="201"/>
      <point x="165" y="383"/>
      <point x="126" y="518" type="curve"/>
      <point x="39" y="518" type="line"/>
      <point x="91" y="330"/>
      <point x="171" y="142"/>
    </contour>
  </outline>
</glyph>
<glyph name="w" format="2">
  <advance width="560"/>
  <unicode hex="0077"/>
  <anchor x="280" y="0" name="bottom"/>
  <anchor x="280" y="582" name="top"/>
  <outline>
    <contour>
      <point x="108" y="0" type="curve"/>
      <point x="167" y="0" type="line"/>
      <point x="216" y="105"/>
      <point x="236" y="161"/>
      <point x="280" y="286" type="curve"/>
      <point x="326" y="161"/>
      <point x="344" y="106"/>
      <point x="391" y="0" type="curve"/>
      <point x="451" y="0" type="line"/>
      <point x="492" y="182"/>
      <point x="523" y="387"/>
      <point x="536" y="518" type="curve"/>
      <point x="463" y="518" type="line"/>
      <point x="453" y="401"/>
      <point x="434" y="295"/>
      <point x="406" y="122" type="curve"/>
      <point x="360" y="240"/>
      <point x="346" y="283"/>
      <point x="312" y="394" type="curve"/>
      <point x="253" y="394" type="line"/>
      <point x="219" y="283"/>
      <point x="204" y="240"/>
      <point x="154" y="119" type="curve"/>
      <point x="127" y="315"/>
      <point x="110" y="403"/>
      <point x="103" y="518" type="curve"/>
      <point x="24" y="518" type="line"/>
      <point x="37" y="386"/>
      <point x="65" y="199"/>
    </contour>
  </outline>
</glyph>
<glyph name="x" format="2">
  <advance width="560"/>
  <unicode hex="0078"/>
  <anchor x="280" y="0" name="bottom"/>
  <anchor x="280" y="582" name="top"/>
  <outline>
    <contour>
      <point x="35" y="0" type="curve"/>
      <point x="118" y="0" type="line"/>
      <point x="148" y="53"/>
      <point x="225" y="154"/>
      <point x="283" y="223" type="curve"/>
      <point x="341" y="152"/>
      <point x="408" y="55"/>
      <point x="435" y="0" type="curve"/>
      <point x="526" y="0" type="line"/>
      <point x="473" y="98"/>
      <point x="400" y="193"/>
      <point x="333" y="281" type="curve"/>
      <point x="506" y="518" type="line"/>
      <point x="419" y="518" type="line"/>
      <point x="284" y="331" type="line"/>
      <point x="137" y="518" type="line"/>
      <point x="45" y="518" type="line"/>
      <point x="233" y="274" type="line"/>
      <point x="164" y="188"/>
      <point x="87" y="92"/>
    </contour>
  </outline>
</glyph>
<glyph name="y" format="2">
  <advance width="560"/>
  <unicode hex="0079"/>
  <anchor x="280" y="0" name="bottom"/>
  <anchor x="280" y="582" name="top"/>
  <outline>
    <contour>
      <point x="117" y="-188" type="curve" smooth="yes"/>
      <point x="227" y="-188"/>
      <point x="289" y="-136"/>
      <point x="340" y="-16" type="curve" smooth="yes"/>
      <point x="404" y="136"/>
      <point x="467" y="326"/>
      <point x="512" y="518" type="curve"/>
      <point x="430" y="518" type="line"/>
      <point x="386" y="347"/>
      <point x="359" y="229"/>
      <point x="303" y="80" type="curve"/>
      <point x="232" y="224"/>
      <point x="176" y="397"/>
      <point x="146" y="518" type="curve"/>
      <point x="58" y="518" type="line"/>
      <point x="104" y="344"/>
      <point x="183" y="151"/>
      <point x="272" y="-15" type="curve"/>
      <point x="233" y="-95"/>
      <point x="197" y="-122"/>
      <point x="119" y="-122" type="curve" smooth="yes"/>
      <point x="99" y="-122"/>
      <point x="69" y="-115"/>
      <point x="60" y="-110" type="curve"/>
      <point x="45" y="-173" type="line"/>
      <point x="54" y="-178"/>
      <point x="95" y="-188"/>
    </contour>
  </outline>
</glyph>
<glyph name="z" format="2">
  <advance width="560"/>
  <unicode hex="007A"/>
  <anchor x="280" y="0" name="bottom"/>
  <anchor x="280" y="291" name="center"/>
  <anchor x="280" y="582" name="top"/>
  <outline>
    <contour>
      <point x="84" y="0" type="line"/>
      <point x="475" y="0" type="line"/>
      <point x="475" y="67" type="line"/>
      <point x="179" y="67" type="line"/>
      <point x="262" y="211"/>
      <point x="410" y="392"/>
      <point x="468" y="457" type="curve"/>
      <point x="468" y="518" type="line"/>
      <point x="99" y="518" type="line"/>
      <point x="99" y="451" type="line"/>
      <point x="366" y="451" type="line"/>
      <point x="293" y="367"/>
      <point x="144" y="175"/>
      <point x="84" y="55" type="curve"/>
    </contour>
  </outline>
</glyph>
<glyph name="braceleft" format="2">
  <advance width="500"/>
  <unicode hex="007B"/>
  <outline>
    <contour>
      <point x="346" y="-165" type="curve" smooth="yes"/>
      <point x="427" y="-165" type="line"/>
      <point x="427" y="-100" type="line"/>
      <point x="343" y="-100" type="line" smooth="yes"/>
      <point x="287" y="-100"/>
      <point x="265" y="-78"/>
      <point x="265" y="-12" type="curve" smooth="yes"/>
      <point x="265" y="126" type="line" smooth="yes"/>
      <point x="265" y="210"/>
      <point x="234" y="251"/>
      <point x="199" y="267" type="curve"/>
      <point x="233" y="281"/>
      <point x="265" y="319"/>
      <point x="265" y="408" type="curve" smooth="yes"/>
      <point x="265" y="546" type="line" smooth="yes"/>
      <point x="265" y="612"/>
      <point x="287" y="634"/>
      <point x="342" y="634" type="curve" smooth="yes"/>
      <point x="427" y="634" type="line"/>
      <point x="427" y="699" type="line"/>
      <point x="346" y="699" type="line" smooth="yes"/>
      <point x="224" y="699"/>
      <point x="188" y="645"/>
      <point x="188" y="547" type="curve" smooth="yes"/>
      <point x="188" y="386" type="line" smooth="yes"/>
      <point x="188" y="344"/>
      <point x="164" y="299"/>
      <point x="119" y="299" type="curve" smooth="yes"/>
      <point x="79" y="299" type="line"/>
      <point x="79" y="235" type="line"/>
      <point x="120" y="235" type="line" smooth="yes"/>
      <point x="165" y="235"/>
      <point x="188" y="189"/>
      <point x="188" y="148" type="curve" smooth="yes"/>
      <point x="188" y="-13" type="line" smooth="yes"/>
      <point x="188" y="-111"/>
      <point x="224" y="-165"/>
    </contour>
  </outline>
</glyph>
<glyph name="bar" format="2">
  <advance width="560"/>
  <unicode hex="007C"/>
  <outline>
    <contour>
      <point x="237" y="-185" type="line"/>
      <point x="324" y="-185" type="line"/>
      <point x="324" y="783" type="line"/>
      <point x="237" y="783" type="line"/>
    </contour>
  </outline>
</glyph>
<glyph name="braceright" format="2">
  <advance width="560"/>
  <unicode hex="007D"/>
  <outline>
    <contour>
      <point x="82" y="-185" type="line"/>
      <point x="172" y="-185" type="line" smooth="yes"/>
      <point x="309" y="-185"/>
      <point x="351" y="-124"/>
      <point x="351" y="-15" type="curve" smooth="yes"/>
      <point x="351" y="166" type="line" smooth="yes"/>
      <point x="351" y="213"/>
      <point x="376" y="263"/>
      <point x="427" y="263" type="curve" smooth="yes"/>
      <point x="472" y="263" type="line"/>
      <point x="472" y="335" type="line"/>
      <point x="426" y="335" type="line" smooth="yes"/>
      <point x="375" y="335"/>
      <point x="351" y="386"/>
      <point x="351" y="432" type="curve" smooth="yes"/>
      <point x="351" y="613" type="line" smooth="yes"/>
      <point x="351" y="722"/>
      <point x="309" y="783"/>
      <point x="172" y="783" type="curve" smooth="yes"/>
      <point x="82" y="783" type="line"/>
      <point x="82" y="710" type="line"/>
      <point x="176" y="710" type="line" smooth="yes"/>
      <point x="239" y="710"/>
      <point x="263" y="685"/>
      <point x="263" y="612" type="curve" smooth="yes"/>
      <point x="263" y="457" type="line" smooth="yes"/>
      <point x="263" y="363"/>
      <point x="298" y="317"/>
      <point x="337" y="299" type="curve"/>
      <point x="299" y="283"/>
      <point x="263" y="241"/>
      <point x="263" y="141" type="curve" smooth="yes"/>
      <point x="263" y="-13" type="line" smooth="yes"/>
      <point x="263" y="-87"/>
      <point x="239" y="-112"/>
      <point x="177" y="-112" type="curve" smooth="yes"/>
      <point x="82" y="-112" type="line"/>
    </contour>
  </outline>
</glyph>
<glyph name="asciitilde" format="2">
  <advance width="560"/>
  <unicode hex="007E"/>
  <outline>
    <contour>
      <point x="382" y="212" type="curve" smooth="yes"/>
      <point x="476" y="212"/>
      <point x="510" y="300"/>
      <point x="519" y="352" type="curve"/>
      <point x="455" y="370" type="line"/>
      <point x="445" y="336"/>
      <point x="429" y="292"/>
      <point x="388" y="292" type="curve" smooth="yes"/>
      <point x="351" y="292"/>
      <point x="318" y="318"/>
      <point x="282" y="339" type="curve" smooth="yes"/>
      <point x="251" y="358"/>
      <point x="218" y="377"/>
      <point x="178" y="377" type="curve" smooth="yes"/>
      <point x="84" y="377"/>
      <point x="52" y="289"/>
      <point x="41" y="237" type="curve"/>
      <point x="105" y="220" type="line"/>
      <point x="115" y="253"/>
      <point x="131" y="297"/>
      <point x="172" y="297" type="curve" smooth="yes"/>
      <point x="211" y="297"/>
      <point x="242" y="271"/>
      <point x="278" y="250" type="curve" smooth="yes"/>
      <point x="309" y="231"/>
      <point x="342" y="212"/>
    </contour>
  </outline>
</glyph>
<glyph name="exclamdown" format="2">
  <advance width="560"/>
  <unicode hex="00A1"/>
  <outline>
    <contour>
      <point x="236" y="-185" type="line"/>
      <point x="320" y="-185" type="line"/>
      <point x="320" y="4" type="line" smooth="yes"/>
      <point x="320" y="116"/>
      <point x="313" y="190"/>
      <point x="304" y="277" type="curve"/>
      <point x="256" y="277" type="line"/>
      <point x="245" y="190"/>
      <point x="236" y="116"/>
      <point x="236" y="4" type="curve" smooth="yes"/>
    </contour>
    <contour>
      <point x="279" y="380" type="curve" smooth="yes"/>
      <point x="318" y="380"/>
      <point x="348" y="407"/>
      <point x="348" y="450" type="curve" smooth="yes"/>
      <point x="348" y="492"/>
      <point x="318" y="521"/>
      <point x="279" y="521" type="curve" smooth="yes"/>
      <point x="241" y="521"/>
      <point x="209" y="492"/>
      <point x="209" y="450" type="curve" smooth="yes"/>
      <point x="209" y="407"/>
      <point x="241" y="380"/>
    </contour>
  </outline>
</glyph>
<glyph name="cent" format="2">
  <advance width="560"/>
  <unicode hex="00A2"/>
  <outline>
    <contour>
      <point x="289" y="-109" type="line"/>
      <point x="355" y="-109" type="line"/>
      <point x="355" y="30" type="line"/>
      <point x="408" y="31"/>
      <point x="452" y="38"/>
      <point x="502" y="57" type="curve"/>
      <point x="491" y="120" type="line"/>
      <point x="435" y="100"/>
      <point x="397" y="97"/>
      <point x="347" y="97" type="curve" smooth="yes"/>
      <point x="230" y="97"/>
      <point x="137" y="156"/>
      <point x="137" y="290" type="curve" smooth="yes"/>
      <point x="137" y="432"/>
      <point x="233" y="488"/>
      <point x="338" y="488" type="curve" smooth="yes"/>
      <point x="375" y="488"/>
      <point x="414" y="487"/>
      <point x="469" y="467" type="curve"/>
      <point x="488" y="532" type="line"/>
      <point x="439" y="546"/>
      <point x="397" y="552"/>
      <point x="355" y="554" type="curve"/>
      <point x="355" y="693" type="line"/>
      <point x="289" y="693" type="line"/>
      <point x="289" y="552" type="line"/>
      <point x="160" y="537"/>
      <point x="56" y="458"/>
      <point x="56" y="290" type="curve" smooth="yes"/>
      <point x="56" y="131"/>
      <point x="153" y="48"/>
      <point x="289" y="31" type="curve"/>
    </contour>
  </outline>
</glyph>
<glyph name="sterling" format="2">
  <advance width="560"/>
  <unicode hex="00A3"/>
  <outline>
    <contour>
      <point x="120" y="0" type="curve"/>
      <point x="510" y="0" type="line"/>
      <point x="510" y="70" type="line"/>
      <point x="211" y="70" type="line"/>
      <point x="222" y="144"/>
      <point x="227" y="222"/>
      <point x="227" y="294" type="curve" smooth="yes"/>
      <point x="227" y="305" type="line"/>
      <point x="425" y="305" type="line"/>
      <point x="425" y="368" type="line"/>
      <point x="227" y="368" type="line"/>
      <point x="227" y="455" type="line"/>
      <point x="227" y="592"/>
      <point x="276" y="635"/>
      <point x="351" y="635" type="curve" smooth="yes"/>
      <point x="391" y="635"/>
      <point x="434" y="626"/>
      <point x="470" y="609" type="curve"/>
      <point x="488" y="680" type="line"/>
      <point x="454" y="693"/>
      <point x="421" y="706"/>
      <point x="361" y="706" type="curve" smooth="yes"/>
      <point x="234" y="706"/>
      <point x="147" y="656"/>
      <point x="147" y="459" type="curve" smooth="yes"/>
      <point x="147" y="368" type="line"/>
      <point x="52" y="368" type="line"/>
      <point x="52" y="305" type="line"/>
      <point x="147" y="305" type="line"/>
      <point x="147" y="285" type="line" smooth="yes"/>
      <point x="148" y="185"/>
      <point x="133" y="91"/>
    </contour>
  </outline>
</glyph>
<glyph name="currency" format="2">
  <advance width="560"/>
  <unicode hex="00A4"/>
  <outline>
    <contour>
      <point x="96" y="113" type="line"/>
      <point x="170" y="188" type="line"/>
      <point x="201" y="167"/>
      <point x="239" y="157"/>
      <point x="280" y="157" type="curve" smooth="yes"/>
      <point x="319" y="157"/>
      <point x="356" y="167"/>
      <point x="389" y="188" type="curve"/>
      <point x="464" y="113" type="line"/>
      <point x="513" y="161" type="line"/>
      <point x="437" y="236" type="line"/>
      <point x="457" y="266"/>
      <point x="468" y="301"/>
      <point x="468" y="347" type="curve" smooth="yes"/>
      <point x="468" y="390"/>
      <point x="457" y="428"/>
      <point x="437" y="459" type="curve"/>
      <point x="513" y="535" type="line"/>
      <point x="464" y="581" type="line"/>
      <point x="389" y="505" type="line"/>
      <point x="357" y="526"/>
      <point x="321" y="538"/>
      <point x="280" y="538" type="curve" smooth="yes"/>
      <point x="240" y="538"/>
      <point x="201" y="526"/>
      <point x="169" y="505" type="curve"/>
      <point x="95" y="581" type="line"/>
      <point x="49" y="535" type="line"/>
      <point x="121" y="459" type="line"/>
      <point x="101" y="427"/>
      <point x="91" y="390"/>
      <point x="91" y="347" type="curve" smooth="yes"/>
      <point x="91" y="304"/>
      <point x="101" y="266"/>
      <point x="121" y="235" type="curve"/>
      <point x="49" y="161" type="line"/>
    </contour>
    <contour>
      <point x="280" y="212" type="curve" smooth="yes"/>
      <point x="210" y="212"/>
      <point x="151" y="265"/>
      <point x="151" y="347" type="curve" smooth="yes"/>
      <point x="151" y="429"/>
      <point x="210" y="483"/>
      <point x="280" y="483" type="curve" smooth="yes"/>
      <point x="349" y="483"/>
      <point x="409" y="429"/>
      <point x="409" y="347" type="curve" smooth="yes"/>
      <point x="409" y="265"/>
      <point x="349" y="212"/>
    </contour>
  </outline>
</glyph>
<glyph name="yen" format="2">
  <advance width="560"/>
  <unicode hex="00A5"/>
  <outline>
    <contour>
      <point x="242" y="0" type="line"/>
      <point x="320" y="0" type="line"/>
      <point x="320" y="103" type="line"/>
      <point x="484" y="103" type="line"/>
      <point x="484" y="167" type="line"/>
      <point x="320" y="167" type="line"/>
      <point x="320" y="279" type="line"/>
      <point x="484" y="279" type="line"/>
      <point x="484" y="344" type="line"/>
      <point x="338" y="344" type="line"/>
      <point x="413" y="463"/>
      <point x="479" y="575"/>
      <point x="547" y="693" type="curve"/>
      <point x="457" y="693" type="line"/>
      <point x="402" y="586"/>
      <point x="344" y="478"/>
      <point x="283" y="386" type="curve"/>
      <point x="221" y="477"/>
      <point x="156" y="586"/>
      <point x="102" y="693" type="curve"/>
      <point x="15" y="693" type="line"/>
      <point x="79" y="579"/>
      <point x="143" y="465"/>
      <point x="220" y="344" type="curve"/>
      <point x="77" y="344" type="line"/>
      <point x="77" y="279" type="line"/>
      <point x="242" y="279" type="line"/>
      <point x="242" y="167" type="line"/>
      <point x="77" y="167" type="line"/>
      <point x="77" y="103" type="line"/>
      <point x="242" y="103" type="line"/>
    </contour>
  </outline>
</glyph>
<glyph name="brokenbar" format="2">
  <advance width="560"/>
  <unicode hex="00A6"/>
  <outline>
    <contour>
      <point x="245" y="404" type="line"/>
      <point x="316" y="404" type="line"/>
      <point x="316" y="783" type="line"/>
      <point x="245" y="783" type="line"/>
    </contour>
    <contour>
      <point x="245" y="-185" type="line"/>
      <point x="316" y="-185" type="line"/>
      <point x="316" y="194" type="line"/>
      <point x="245" y="194" type="line"/>
    </contour>
  </outline>
</glyph>
<glyph name="section" format="2">
  <advance width="560"/>
  <unicode hex="00A7"/>
  <outline>
    <contour>
      <point x="253" y="-109" type="curve" smooth="yes"/>
      <point x="383" y="-109"/>
      <point x="456" y="-57"/>
      <point x="456" y="40" type="curve" smooth="yes"/>
      <point x="456" y="88"/>
      <point x="426" y="127"/>
      <point x="388" y="153" type="curve"/>
      <point x="424" y="171"/>
      <point x="477" y="229"/>
      <point x="477" y="298" type="curve" smooth="yes"/>
      <point x="477" y="411"/>
      <point x="391" y="442"/>
      <point x="301" y="472" type="curve" smooth="yes"/>
      <point x="222" y="500"/>
      <point x="187" y="521"/>
      <point x="187" y="572" type="curve" smooth="yes"/>
      <point x="187" y="624"/>
      <point x="242" y="645"/>
      <point x="291" y="645" type="curve" smooth="yes"/>
      <point x="363" y="645"/>
      <point x="407" y="627"/>
      <point x="436" y="616" type="curve"/>
      <point x="452" y="683" type="line"/>
      <point x="422" y="691"/>
      <point x="362" y="709"/>
      <point x="292" y="709" type="curve" smooth="yes"/>
      <point x="181" y="709"/>
      <point x="116" y="652"/>
      <point x="116" y="563" type="curve" smooth="yes"/>
      <point x="116" y="515"/>
      <point x="138" y="482"/>
      <point x="173" y="455" type="curve"/>
      <point x="137" y="439"/>
      <point x="80" y="387"/>
      <point x="80" y="312" type="curve" smooth="yes"/>
      <point x="80" y="204"/>
      <point x="160" y="170"/>
      <point x="255" y="138" type="curve" smooth="yes"/>
      <point x="346" y="108"/>
      <point x="381" y="86"/>
      <point x="381" y="32" type="curve" smooth="yes"/>
      <point x="381" y="-22"/>
      <point x="339" y="-44"/>
      <point x="257" y="-44" type="curve" smooth="yes"/>
      <point x="181" y="-44"/>
      <point x="138" y="-30"/>
      <point x="104" y="-15" type="curve"/>
      <point x="85" y="-78" type="line"/>
      <point x="117" y="-93"/>
      <point x="168" y="-109"/>
    </contour>
    <contour>
      <point x="332" y="188" type="curve"/>
      <point x="327" y="190"/>
      <point x="322" y="191"/>
      <point x="318" y="193" type="curve" smooth="yes"/>
      <point x="234" y="220"/>
      <point x="154" y="243"/>
      <point x="154" y="318" type="curve" smooth="yes"/>
      <point x="154" y="363"/>
      <point x="182" y="398"/>
      <point x="225" y="424" type="curve"/>
      <point x="233" y="420"/>
      <point x="241" y="418"/>
      <point x="249" y="415" type="curve" smooth="yes"/>
      <point x="321" y="388"/>
      <point x="403" y="368"/>
      <point x="403" y="293" type="curve" smooth="yes"/>
      <point x="403" y="247"/>
      <point x="375" y="213"/>
    </contour>
  </outline>
</glyph>
<glyph name="dieresis" format="2">
  <advance width="560"/>
  <unicode hex="00A8"/>
  <outline>
    <contour>
      <point x="375" y="616" type="curve" smooth="yes"/>
      <point x="407" y="616"/>
      <point x="433" y="641"/>
      <point x="433" y="675" type="curve" smooth="yes"/>
      <point x="433" y="710"/>
      <point x="407" y="734"/>
      <point x="375" y="734" type="curve" smooth="yes"/>
      <point x="344" y="734"/>
      <point x="317" y="710"/>
      <point x="317" y="675" type="curve" smooth="yes"/>
      <point x="317" y="641"/>
      <point x="344" y="616"/>
    </contour>
    <contour>
      <point x="185" y="616" type="curve" smooth="yes"/>
      <point x="216" y="616"/>
      <point x="243" y="641"/>
      <point x="243" y="675" type="curve" smooth="yes"/>
      <point x="243" y="710"/>
      <point x="216" y="734"/>
      <point x="185" y="734" type="curve" smooth="yes"/>
      <point x="155" y="734"/>
      <point x="127" y="710"/>
      <point x="127" y="675" type="curve" smooth="yes"/>
      <point x="127" y="641"/>
      <point x="155" y="616"/>
    </contour>
  </outline>
</glyph>
<glyph name="copyright" format="2">
  <advance width="560"/>
  <unicode hex="00A9"/>
  <outline>
    <contour>
      <point x="278" y="-11" type="curve" smooth="yes"/>
      <point x="395" y="-11"/>
      <point x="518" y="81"/>
      <point x="518" y="262" type="curve" smooth="yes"/>
      <point x="518" y="441"/>
      <point x="399" y="532"/>
      <point x="281" y="532" type="curve" smooth="yes"/>
      <point x="164" y="532"/>
      <point x="41" y="441"/>
      <point x="41" y="259" type="curve" smooth="yes"/>
      <point x="41" y="81"/>
      <point x="160" y="-11"/>
    </contour>
    <contour>
      <point x="287" y="116" type="curve" smooth="yes"/>
      <point x="311" y="116"/>
      <point x="342" y="122"/>
      <point x="366" y="134" type="curve"/>
      <point x="347" y="194" type="line"/>
      <point x="332" y="187"/>
      <point x="312" y="184"/>
      <point x="299" y="184" type="curve" smooth="yes"/>
      <point x="254" y="184"/>
      <point x="228" y="214"/>
      <point x="228" y="261" type="curve" smooth="yes"/>
      <point x="228" y="298"/>
      <point x="248" y="334"/>
      <point x="295" y="334" type="curve" smooth="yes"/>
      <point x="308" y="334"/>
      <point x="325" y="332"/>
      <point x="342" y="325" type="curve"/>
      <point x="364" y="385" type="line"/>
      <point x="338" y="396"/>
      <point x="311" y="400"/>
      <point x="288" y="400" type="curve" smooth="yes"/>
      <point x="199" y="400"/>
      <point x="159" y="328"/>
      <point x="159" y="256" type="curve" smooth="yes"/>
      <point x="159" y="186"/>
      <point x="200" y="116"/>
    </contour>
    <contour>
      <point x="280" y="45" type="curve" smooth="yes"/>
      <point x="192" y="45"/>
      <point x="103" y="116"/>
      <point x="103" y="261" type="curve" smooth="yes"/>
      <point x="103" y="403"/>
      <point x="192" y="475"/>
      <point x="280" y="475" type="curve" smooth="yes"/>
      <point x="367" y="475"/>
      <point x="457" y="405"/>
      <point x="457" y="259" type="curve" smooth="yes"/>
      <point x="457" y="118"/>
      <point x="371" y="45"/>
    </contour>
  </outline>
</glyph>
<glyph name="ordfeminine" format="2">
  <advance width="560"/>
  <unicode hex="00AA"/>
  <outline>
    <contour>
      <point x="282" y="335" type="curve" smooth="yes"/>
      <point x="331" y="335"/>
      <point x="391" y="341"/>
      <point x="423" y="348" type="curve"/>
      <point x="423" y="570" type="line" smooth="yes"/>
      <point x="423" y="651"/>
      <point x="386" y="705"/>
      <point x="283" y="705" type="curve" smooth="yes"/>
      <point x="242" y="705"/>
      <point x="201" y="698"/>
      <point x="176" y="691" type="curve"/>
      <point x="185" y="636" type="line"/>
      <point x="212" y="645"/>
      <point x="252" y="649"/>
      <point x="281" y="649" type="curve" smooth="yes"/>
      <point x="354" y="649"/>
      <point x="365" y="599"/>
      <point x="365" y="558" type="curve" smooth="yes"/>
      <point x="365" y="559" type="line"/>
      <point x="333" y="562"/>
      <point x="311" y="562"/>
      <point x="295" y="562" type="curve" smooth="yes"/>
      <point x="211" y="562"/>
      <point x="137" y="532"/>
      <point x="137" y="449" type="curve" smooth="yes"/>
      <point x="137" y="368"/>
      <point x="201" y="335"/>
    </contour>
    <contour>
      <point x="289" y="390" type="curve" smooth="yes"/>
      <point x="229" y="390"/>
      <point x="194" y="409"/>
      <point x="194" y="449" type="curve" smooth="yes"/>
      <point x="194" y="497"/>
      <point x="253" y="506"/>
      <point x="299" y="506" type="curve" smooth="yes"/>
      <point x="322" y="506"/>
      <point x="348" y="504"/>
      <point x="365" y="501" type="curve"/>
      <point x="365" y="395" type="line"/>
      <point x="360" y="391"/>
      <point x="321" y="390"/>
    </contour>
  </outline>
</glyph>
<glyph name="guillemotleft" format="2">
  <advance width="560"/>
  <unicode hex="00AB"/>
  <outline>
    <contour>
      <point x="199" y="99" type="line"/>
      <point x="251" y="130" type="line"/>
      <point x="166" y="283" type="line"/>
      <point x="256" y="444" type="line"/>
      <point x="203" y="472" type="line"/>
      <point x="76" y="283" type="line"/>
    </contour>
    <contour>
      <point x="394" y="99" type="line"/>
      <point x="445" y="130" type="line"/>
      <point x="361" y="283" type="line"/>
      <point x="450" y="444" type="line"/>
      <point x="397" y="472" type="line"/>
      <point x="268" y="283" type="line"/>
    </contour>
  </outline>
</glyph>
<glyph name="logicalnot" format="2">
  <advance width="560"/>
  <unicode hex="00AC"/>
  <outline>
    <contour>
      <point x="436" y="48" type="line"/>
      <point x="505" y="48" type="line"/>
      <point x="505" y="384" type="line"/>
      <point x="45" y="384" type="line"/>
      <point x="45" y="315" type="line"/>
      <point x="436" y="315" type="line"/>
    </contour>
  </outline>
</glyph>
<glyph name="registered" format="2">
  <advance width="500"/>
  <unicode hex="00AE"/>
  <outline>
    <contour>
      <point x="249" y="-11" type="curve" smooth="yes"/>
      <point x="356" y="-11"/>
      <point x="466" y="71"/>
      <point x="466" y="233" type="curve" smooth="yes"/>
      <point x="466" y="394"/>
      <point x="359" y="475"/>
      <point x="251" y="475" type="curve" smooth="yes"/>
      <point x="144" y="475"/>
      <point x="34" y="394"/>
      <point x="34" y="231" type="curve" smooth="yes"/>
      <point x="34" y="71"/>
      <point x="141" y="-11"/>
    </contour>
    <contour>
      <point x="250" y="43" type="curve" smooth="yes"/>
      <point x="171" y="43"/>
      <point x="92" y="106"/>
      <point x="92" y="233" type="curve" smooth="yes"/>
      <point x="92" y="357"/>
      <point x="171" y="421"/>
      <point x="250" y="421" type="curve" smooth="yes"/>
      <point x="329" y="421"/>
      <point x="408" y="358"/>
      <point x="408" y="231" type="curve" smooth="yes"/>
      <point x="408" y="107"/>
      <point x="330" y="43"/>
    </contour>
    <contour>
      <point x="166" y="110" type="line"/>
      <point x="220" y="110" type="line"/>
      <point x="220" y="187" type="line"/>
      <point x="256" y="187" type="line"/>
      <point x="269" y="166"/>
      <point x="282" y="142"/>
      <point x="299" y="110" type="curve"/>
      <point x="356" y="110" type="line"/>
      <point x="339" y="144"/>
      <point x="321" y="178"/>
      <point x="305" y="200" type="curve"/>
      <point x="331" y="215"/>
      <point x="345" y="238"/>
      <point x="345" y="271" type="curve" smooth="yes"/>
      <point x="345" y="326"/>
      <point x="309" y="357"/>
      <point x="233" y="357" type="curve" smooth="yes"/>
      <point x="208" y="357"/>
      <point x="184" y="353"/>
      <point x="166" y="348" type="curve"/>
    </contour>
    <contour>
      <point x="220" y="237" type="line"/>
      <point x="220" y="305" type="line"/>
      <point x="226" y="306"/>
      <point x="234" y="307"/>
      <point x="242" y="307" type="curve" smooth="yes"/>
      <point x="265" y="307"/>
      <point x="291" y="301"/>
      <point x="291" y="274" type="curve" smooth="yes"/>
      <point x="291" y="244"/>
      <point x="274" y="237"/>
      <point x="238" y="237" type="curve" smooth="yes"/>
    </contour>
  </outline>
</glyph>
<glyph name="macron" format="2">
  <advance width="560"/>
  <unicode hex="00AF"/>
  <outline>
    <contour>
      <point x="143" y="644" type="line"/>
      <point x="415" y="644" type="line"/>
      <point x="415" y="707" type="line"/>
      <point x="143" y="707" type="line"/>
    </contour>
  </outline>
</glyph>
<glyph name="degree" format="2">
  <advance width="560"/>
  <unicode hex="00B0"/>
  <outline>
    <contour>
      <point x="279" y="506" type="curve" smooth="yes"/>
      <point x="349" y="506"/>
      <point x="413" y="557"/>
      <point x="413" y="640" type="curve" smooth="yes"/>
      <point x="413" y="725"/>
      <point x="349" y="774"/>
      <point x="279" y="774" type="curve" smooth="yes"/>
      <point x="210" y="774"/>
      <point x="146" y="725"/>
      <point x="146" y="640" type="curve" smooth="yes"/>
      <point x="146" y="557"/>
      <point x="211" y="506"/>
    </contour>
    <contour>
      <point x="279" y="560" type="curve" smooth="yes"/>
      <point x="238" y="560"/>
      <point x="203" y="591"/>
      <point x="203" y="640" type="curve" smooth="yes"/>
      <point x="203" y="689"/>
      <point x="237" y="721"/>
      <point x="279" y="721" type="curve" smooth="yes"/>
      <point x="321" y="721"/>
      <point x="356" y="689"/>
      <point x="356" y="640" type="curve" smooth="yes"/>
      <point x="356" y="591"/>
      <point x="321" y="560"/>
    </contour>
  </outline>
</glyph>
<glyph name="plusminus" format="2">
  <advance width="560"/>
  <unicode hex="00B1"/>
  <outline>
    <contour>
      <point x="246" y="133" type="line"/>
      <point x="314" y="133" type="line"/>
      <point x="314" y="341" type="line"/>
      <point x="509" y="341" type="line"/>
      <point x="509" y="410" type="line"/>
      <point x="314" y="410" type="line"/>
      <point x="314" y="619" type="line"/>
      <point x="246" y="619" type="line"/>
      <point x="246" y="410" type="line"/>
      <point x="54" y="410" type="line"/>
      <point x="54" y="341" type="line"/>
      <point x="246" y="341" type="line"/>
    </contour>
    <contour>
      <point x="54" y="0" type="line"/>
      <point x="509" y="0" type="line"/>
      <point x="509" y="70" type="line"/>
      <point x="54" y="70" type="line"/>
    </contour>
  </outline>
</glyph>
<glyph name="twosuperior" format="2">
  <advance width="500"/>
  <unicode hex="00B2"/>
  <outline>
    <contour>
      <point x="138" y="281" type="curve"/>
      <point x="376" y="281" type="line"/>
      <point x="376" y="338" type="line"/>
      <point x="210" y="338" type="line"/>
      <point x="213" y="353"/>
      <point x="237" y="374"/>
      <point x="257" y="391" type="curve" smooth="yes"/>
      <point x="313" y="440"/>
      <point x="362" y="484"/>
      <point x="362" y="534" type="curve" smooth="yes"/>
      <point x="362" y="597"/>
      <point x="323" y="633"/>
      <point x="241" y="633" type="curve" smooth="yes"/>
      <point x="188" y="633"/>
      <point x="145" y="607"/>
      <point x="124" y="586" type="curve"/>
      <point x="156" y="542" type="line"/>
      <point x="169" y="552"/>
      <point x="201" y="577"/>
      <point x="241" y="577" type="curve" smooth="yes"/>
      <point x="276" y="577"/>
      <point x="296" y="563"/>
      <point x="296" y="532" type="curve" smooth="yes"/>
      <point x="296" y="504"/>
      <point x="268" y="476"/>
      <point x="228" y="441" type="curve" smooth="yes"/>
      <point x="179" y="399"/>
      <point x="131" y="360"/>
    </contour>
  </outline>
</glyph>
<glyph name="threesuperior" format="2">
  <advance width="500"/>
  <unicode hex="00B3"/>
  <outline>
    <contour>
      <point x="227" y="274" type="curve" smooth="yes"/>
      <point x="332" y="274"/>
      <point x="374" y="321"/>
      <point x="374" y="381" type="curve" smooth="yes"/>
      <point x="374" y="423"/>
      <point x="348" y="455"/>
      <point x="306" y="468" type="curve"/>
      <point x="339" y="487"/>
      <point x="355" y="510"/>
      <point x="355" y="539" type="curve" smooth="yes"/>
      <point x="355" y="594"/>
      <point x="322" y="633"/>
      <point x="236" y="633" type="curve" smooth="yes"/>
      <point x="196" y="633"/>
      <point x="150" y="616"/>
      <point x="131" y="603" type="curve"/>
      <point x="154" y="554" type="line"/>
      <point x="174" y="563"/>
      <point x="202" y="578"/>
      <point x="234" y="578" type="curve" smooth="yes"/>
      <point x="269" y="578"/>
      <point x="293" y="566"/>
      <point x="293" y="537" type="curve" smooth="yes"/>
      <point x="293" y="500"/>
      <point x="250" y="489"/>
      <point x="216" y="489" type="curve" smooth="yes"/>
      <point x="194" y="489" type="line"/>
      <point x="194" y="438" type="line"/>
      <point x="211" y="438" type="line" smooth="yes"/>
      <point x="262" y="438"/>
      <point x="309" y="422"/>
      <point x="309" y="382" type="curve" smooth="yes"/>
      <point x="309" y="351"/>
      <point x="289" y="330"/>
      <point x="226" y="330" type="curve" smooth="yes"/>
      <point x="195" y="330"/>
      <point x="165" y="338"/>
      <point x="139" y="348" type="curve"/>
      <point x="126" y="295" type="line"/>
      <point x="147" y="284"/>
      <point x="190" y="274"/>
    </contour>
  </outline>
</glyph>
<glyph name="acute" format="2">
  <advance width="560"/>
  <unicode hex="00B4"/>
  <outline>
    <contour>
      <point x="242" y="582" type="line"/>
      <point x="368" y="731" type="line"/>
      <point x="309" y="777" type="line"/>
      <point x="196" y="614" type="line"/>
    </contour>
  </outline>
</glyph>
<glyph name="mu" format="2">
  <advance width="560"/>
  <unicode hex="00B5"/>
  <outline>
    <contour>
      <point x="84" y="-185" type="line"/>
      <point x="162" y="-185" type="line"/>
      <point x="162" y="-79" type="line" smooth="yes"/>
      <point x="162" y="-41"/>
      <point x="164" y="-4"/>
      <point x="159" y="31" type="curve"/>
      <point x="183" y="4"/>
      <point x="209" y="-12"/>
      <point x="280" y="-12" type="curve" smooth="yes"/>
      <point x="374" y="-12"/>
      <point x="439" y="4"/>
      <point x="477" y="14" type="curve"/>
      <point x="477" y="518" type="line"/>
      <point x="399" y="518" type="line"/>
      <point x="399" y="70" type="line"/>
      <point x="390" y="66"/>
      <point x="338" y="60"/>
      <point x="293" y="60" type="curve" smooth="yes"/>
      <point x="194" y="60"/>
      <point x="162" y="115"/>
      <point x="162" y="250" type="curve" smooth="yes"/>
      <point x="162" y="518" type="line"/>
      <point x="84" y="518" type="line"/>
    </contour>
  </outline>
</glyph>
<glyph name="paragraph" format="2">
  <advance width="560"/>
  <unicode hex="00B6"/>
  <outline>
    <contour>
      <point x="265" y="-185" type="line"/>
      <point x="330" y="-185" type="line"/>
      <point x="330" y="633" type="line"/>
      <point x="361" y="636"/>
      <point x="392" y="635"/>
      <point x="430" y="629" type="curve"/>
      <point x="430" y="-185" type="line"/>
      <point x="498" y="-185" type="line"/>
      <point x="498" y="683" type="line"/>
      <point x="445" y="699"/>
      <point x="387" y="700"/>
      <point x="342" y="700" type="curve" smooth="yes"/>
      <point x="152" y="700"/>
      <point x="34" y="626"/>
      <point x="34" y="479" type="curve" smooth="yes"/>
      <point x="34" y="342"/>
      <point x="119" y="274"/>
      <point x="265" y="263" type="curve"/>
    </contour>
  </outline>
</glyph>
<glyph name="cedilla" format="2">
  <advance width="560"/>
  <unicode hex="00B8"/>
  <outline>
    <contour>
      <point x="255" y="-189" type="curve" smooth="yes"/>
      <point x="335" y="-189"/>
      <point x="347" y="-139"/>
      <point x="347" y="-120" type="curve" smooth="yes"/>
      <point x="347" y="-74"/>
      <point x="330" y="-59"/>
      <point x="296" y="-40" type="curve"/>
      <point x="303" y="-24"/>
      <point x="319" y="3"/>
      <point x="327" y="20" type="curve"/>
      <point x="270" y="20" type="line"/>
      <point x="263" y="8"/>
      <point x="237" y="-49"/>
      <point x="225" y="-75" type="curve"/>
      <point x="229" y="-77" type="line" smooth="yes"/>
      <point x="255" y="-85"/>
      <point x="271" y="-96"/>
      <point x="271" y="-111" type="curve" smooth="yes"/>
      <point x="271" y="-123"/>
      <point x="262" y="-132"/>
      <point x="238" y="-132" type="curve" smooth="yes"/>
      <point x="216" y="-132"/>
      <point x="202" y="-128"/>
      <point x="184" y="-122" type="curve"/>
      <point x="174" y="-175" type="line"/>
      <point x="189" y="-182"/>
      <point x="219" y="-189"/>
    </contour>
  </outline>
</glyph>
<glyph name="onesuperior" format="2">
  <advance width="560"/>
  <unicode hex="00B9"/>
  <outline>
    <contour>
      <point x="147" y="319" type="line"/>
      <point x="416" y="319" type="line"/>
      <point x="416" y="375" type="line"/>
      <point x="313" y="375" type="line"/>
      <point x="313" y="701" type="line"/>
      <point x="276" y="701" type="line"/>
      <point x="241" y="665"/>
      <point x="190" y="637"/>
      <point x="140" y="623" type="curve"/>
      <point x="156" y="578" type="line"/>
      <point x="179" y="583"/>
      <point x="227" y="600"/>
      <point x="257" y="620" type="curve"/>
      <point x="257" y="375" type="line"/>
      <point x="147" y="375" type="line"/>
    </contour>
  </outline>
</glyph>
<glyph name="ordmasculine" format="2">
  <advance width="560"/>
  <unicode hex="00BA"/>
  <outline>
    <contour>
      <point x="280" y="335" type="curve" smooth="yes"/>
      <point x="381" y="335"/>
      <point x="456" y="409"/>
      <point x="456" y="523" type="curve" smooth="yes"/>
      <point x="456" y="634"/>
      <point x="381" y="708"/>
      <point x="280" y="708" type="curve" smooth="yes"/>
      <point x="180" y="708"/>
      <point x="105" y="634"/>
      <point x="105" y="523" type="curve" smooth="yes"/>
      <point x="105" y="409"/>
      <point x="180" y="335"/>
    </contour>
    <contour>
      <point x="280" y="391" type="curve" smooth="yes"/>
      <point x="208" y="391"/>
      <point x="167" y="445"/>
      <point x="167" y="523" type="curve" smooth="yes"/>
      <point x="167" y="601"/>
      <point x="209" y="651"/>
      <point x="280" y="651" type="curve" smooth="yes"/>
      <point x="353" y="651"/>
      <point x="394" y="601"/>
      <point x="394" y="523" type="curve" smooth="yes"/>
      <point x="394" y="445"/>
      <point x="353" y="391"/>
    </contour>
  </outline>
</glyph>
<glyph name="guillemetright" format="2">
  <advance width="560"/>
  <unicode hex="00BB"/>
  <outline>
    <contour>
      <point x="160" y="99" type="line"/>
      <point x="289" y="287" type="line"/>
      <point x="163" y="472" type="line"/>
      <point x="112" y="440" type="line"/>
      <point x="198" y="287" type="line"/>
      <point x="107" y="126" type="line"/>
    </contour>
    <contour>
      <point x="356" y="99" type="line"/>
      <point x="484" y="287" type="line"/>
      <point x="359" y="472" type="line"/>
      <point x="307" y="440" type="line"/>
      <point x="393" y="287" type="line"/>
      <point x="302" y="126" type="line"/>
    </contour>
  </outline>
</glyph>
<glyph name="guillemotright" format="2">
  <advance width="500"/>
  <unicode hex="00BB"/>
  <outline>
    <contour>
      <point x="137" y="79" type="line"/>
      <point x="256" y="255" type="line"/>
      <point x="138" y="430" type="line"/>
      <point x="88" y="399" type="line"/>
      <point x="169" y="255" type="line"/>
      <point x="85" y="106" type="line"/>
    </contour>
    <contour>
      <point x="317" y="79" type="line"/>
      <point x="437" y="255" type="line"/>
      <point x="319" y="430" type="line"/>
      <point x="269" y="399" type="line"/>
      <point x="349" y="255" type="line"/>
      <point x="265" y="106" type="line"/>
    </contour>
  </outline>
</glyph>
<glyph name="onequarter" format="2">
  <advance width="560"/>
  <unicode hex="00BC"/>
  <outline>
    <contour>
      <point x="26" y="-5" type="line"/>
      <point x="94" y="-5" type="line"/>
      <point x="540" y="688" type="line"/>
      <point x="471" y="688" type="line"/>
    </contour>
    <contour>
      <point x="429" y="0" type="line"/>
      <point x="488" y="0" type="line"/>
      <point x="488" y="57" type="line"/>
      <point x="528" y="57" type="line"/>
      <point x="528" y="109" type="line"/>
      <point x="488" y="109" type="line"/>
      <point x="488" y="280" type="line"/>
      <point x="402" y="280" type="line"/>
      <point x="357" y="225"/>
      <point x="324" y="171"/>
      <point x="282" y="102" type="curve"/>
      <point x="282" y="57" type="line"/>
      <point x="429" y="57" type="line"/>
    </contour>
    <contour>
      <point x="344" y="109" type="line"/>
      <point x="369" y="151"/>
      <point x="395" y="197"/>
      <point x="429" y="239" type="curve"/>
      <point x="429" y="109" type="line"/>
    </contour>
    <contour>
      <point x="124" y="421" type="line"/>
      <point x="181" y="421" type="line"/>
      <point x="181" y="701" type="line"/>
      <point x="144" y="701" type="line"/>
      <point x="108" y="668"/>
      <point x="76" y="651"/>
      <point x="25" y="629" type="curve"/>
      <point x="44" y="580" type="line"/>
      <point x="70" y="589"/>
      <point x="94" y="598"/>
      <point x="124" y="615" type="curve"/>
    </contour>
  </outline>
</glyph>
<glyph name="onehalf" format="2">
  <advance width="560"/>
  <unicode hex="00BD"/>
  <outline>
    <contour>
      <point x="14" y="0" type="line"/>
      <point x="82" y="0" type="line"/>
      <point x="528" y="693" type="line"/>
      <point x="460" y="693" type="line"/>
    </contour>
    <contour>
      <point x="320" y="0" type="curve"/>
      <point x="537" y="0" type="line"/>
      <point x="537" y="52" type="line"/>
      <point x="390" y="52" type="line"/>
      <point x="430" y="90"/>
      <point x="526" y="122"/>
      <point x="526" y="198" type="curve" smooth="yes"/>
      <point x="526" y="242"/>
      <point x="495" y="290"/>
      <point x="422" y="290" type="curve" smooth="yes"/>
      <point x="385" y="290"/>
      <point x="346" y="277"/>
      <point x="320" y="251" type="curve"/>
      <point x="353" y="210" type="line"/>
      <point x="371" y="229"/>
      <point x="398" y="238"/>
      <point x="420" y="238" type="curve" smooth="yes"/>
      <point x="446" y="238"/>
      <point x="469" y="225"/>
      <point x="469" y="197" type="curve" smooth="yes"/>
      <point x="469" y="176"/>
      <point x="455" y="156"/>
      <point x="417" y="134" type="curve"/>
      <point x="392" y="116" type="line"/>
      <point x="356" y="93"/>
      <point x="319" y="73"/>
      <point x="319" y="26" type="curve" smooth="yes"/>
      <point x="319" y="22"/>
      <point x="319" y="3"/>
    </contour>
    <contour>
      <point x="133" y="421" type="line"/>
      <point x="191" y="421" type="line"/>
      <point x="191" y="701" type="line"/>
      <point x="153" y="701" type="line"/>
      <point x="117" y="668"/>
      <point x="86" y="651"/>
      <point x="35" y="629" type="curve"/>
      <point x="53" y="580" type="line"/>
      <point x="79" y="589"/>
      <point x="104" y="598"/>
      <point x="133" y="615" type="curve"/>
    </contour>
  </outline>
</glyph>
<glyph name="threequarters" format="2">
  <advance width="560"/>
  <unicode hex="00BE"/>
  <outline>
    <contour>
      <point x="28" y="0" type="line"/>
      <point x="96" y="0" type="line"/>
      <point x="540" y="693" type="line"/>
      <point x="472" y="693" type="line"/>
    </contour>
    <contour>
      <point x="429" y="0" type="line"/>
      <point x="488" y="0" type="line"/>
      <point x="488" y="57" type="line"/>
      <point x="528" y="57" type="line"/>
      <point x="528" y="109" type="line"/>
      <point x="488" y="109" type="line"/>
      <point x="488" y="280" type="line"/>
      <point x="402" y="280" type="line"/>
      <point x="357" y="225"/>
      <point x="324" y="171"/>
      <point x="282" y="102" type="curve"/>
      <point x="282" y="57" type="line"/>
      <point x="429" y="57" type="line"/>
    </contour>
    <contour>
      <point x="344" y="109" type="line"/>
      <point x="369" y="151"/>
      <point x="395" y="197"/>
      <point x="429" y="239" type="curve"/>
      <point x="429" y="109" type="line"/>
    </contour>
    <contour>
      <point x="115" y="411" type="curve" smooth="yes"/>
      <point x="208" y="411"/>
      <point x="234" y="466"/>
      <point x="234" y="501" type="curve" smooth="yes"/>
      <point x="234" y="534"/>
      <point x="217" y="560"/>
      <point x="186" y="574" type="curve"/>
      <point x="208" y="591"/>
      <point x="220" y="616"/>
      <point x="220" y="637" type="curve" smooth="yes"/>
      <point x="220" y="695"/>
      <point x="167" y="709"/>
      <point x="125" y="709" type="curve" smooth="yes"/>
      <point x="87" y="709"/>
      <point x="49" y="698"/>
      <point x="27" y="685" type="curve"/>
      <point x="47" y="641" type="line"/>
      <point x="67" y="649"/>
      <point x="95" y="657"/>
      <point x="115" y="657" type="curve" smooth="yes"/>
      <point x="138" y="657"/>
      <point x="163" y="652"/>
      <point x="163" y="628" type="curve" smooth="yes"/>
      <point x="163" y="597"/>
      <point x="138" y="593"/>
      <point x="100" y="593" type="curve" smooth="yes"/>
      <point x="75" y="593" type="line"/>
      <point x="75" y="539" type="line"/>
      <point x="85" y="539" type="line" smooth="yes"/>
      <point x="145" y="539"/>
      <point x="177" y="534"/>
      <point x="177" y="500" type="curve" smooth="yes"/>
      <point x="177" y="473"/>
      <point x="143" y="463"/>
      <point x="112" y="463" type="curve" smooth="yes"/>
      <point x="82" y="463"/>
      <point x="58" y="470"/>
      <point x="42" y="477" type="curve"/>
      <point x="27" y="426" type="line"/>
      <point x="54" y="416"/>
      <point x="86" y="411"/>
    </contour>
  </outline>
</glyph>
<glyph name="questiondown" format="2">
  <advance width="560"/>
  <unicode hex="00BF"/>
  <outline>
    <contour>
      <point x="293" y="-190" type="curve" smooth="yes"/>
      <point x="355" y="-190"/>
      <point x="408" y="-175"/>
      <point x="451" y="-153" type="curve"/>
      <point x="429" y="-91" type="line"/>
      <point x="390" y="-114"/>
      <point x="347" y="-123"/>
      <point x="303" y="-123" type="curve" smooth="yes"/>
      <point x="228" y="-123"/>
      <point x="191" y="-81"/>
      <point x="191" y="-22" type="curve" smooth="yes"/>
      <point x="191" y="23"/>
      <point x="212" y="55"/>
      <point x="242" y="86" type="curve" smooth="yes"/>
      <point x="286" y="132"/>
      <point x="349" y="170"/>
      <point x="349" y="253" type="curve"/>
      <point x="349" y="262"/>
      <point x="348" y="268"/>
      <point x="348" y="277" type="curve"/>
      <point x="283" y="277" type="line"/>
      <point x="283" y="210"/>
      <point x="242" y="167"/>
      <point x="203" y="127" type="curve" smooth="yes"/>
      <point x="158" y="83"/>
      <point x="111" y="42"/>
      <point x="111" y="-29" type="curve" smooth="yes"/>
      <point x="111" y="-102"/>
      <point x="147" y="-190"/>
    </contour>
    <contour>
      <point x="307" y="380" type="curve" smooth="yes"/>
      <point x="346" y="380"/>
      <point x="377" y="407"/>
      <point x="377" y="450" type="curve" smooth="yes"/>
      <point x="377" y="492"/>
      <point x="346" y="521"/>
      <point x="307" y="521" type="curve" smooth="yes"/>
      <point x="269" y="521"/>
      <point x="238" y="492"/>
      <point x="238" y="450" type="curve" smooth="yes"/>
      <point x="238" y="407"/>
      <point x="269" y="380"/>
    </contour>
  </outline>
</glyph>
<glyph name="Aring" format="2">
  <advance width="560"/>
  <unicode hex="00C5"/>
  <outline>
    <contour>
      <point x="10" y="0" type="curve"/>
      <point x="89" y="0" type="line"/>
      <point x="132" y="187" type="line"/>
      <point x="423" y="187" type="line"/>
      <point x="467" y="0" type="line"/>
      <point x="550" y="0" type="line"/>
      <point x="504" y="164"/>
      <point x="423" y="482"/>
      <point x="343" y="650" type="curve"/>
      <point x="362" y="666"/>
      <point x="380" y="697"/>
      <point x="380" y="728" type="curve" smooth="yes"/>
      <point x="380" y="787"/>
      <point x="334" y="826"/>
      <point x="282" y="826" type="curve" smooth="yes"/>
      <point x="228" y="826"/>
      <point x="183" y="787"/>
      <point x="183" y="728" type="curve" smooth="yes"/>
      <point x="183" y="696"/>
      <point x="200" y="667"/>
      <point x="220" y="649" type="curve"/>
      <point x="140" y="483"/>
      <point x="55" y="163"/>
    </contour>
    <contour>
      <point x="153" y="253" type="line"/>
      <point x="194" y="394"/>
      <point x="244" y="540"/>
      <point x="279" y="629" type="curve"/>
      <point x="313" y="545"/>
      <point x="363" y="396"/>
      <point x="403" y="253" type="curve"/>
    </contour>
    <contour>
      <point x="282" y="671" type="curve" smooth="yes"/>
      <point x="251" y="671"/>
      <point x="226" y="692"/>
      <point x="226" y="728" type="curve" smooth="yes"/>
      <point x="226" y="764"/>
      <point x="251" y="785"/>
      <point x="282" y="785" type="curve" smooth="yes"/>
      <point x="312" y="785"/>
      <point x="337" y="764"/>
      <point x="337" y="728" type="curve" smooth="yes"/>
      <point x="337" y="692"/>
      <point x="312" y="671"/>
    </contour>
  </outline>
</glyph>
<glyph name="AE" format="2">
  <advance width="560"/>
  <unicode hex="00C6"/>
  <anchor x="280" y="0" name="bottom"/>
  <anchor x="280" y="776" name="top"/>
  <outline>
    <contour>
      <point x="36" y="0" type="curve"/>
      <point x="111" y="0" type="line"/>
      <point x="155" y="187" type="line"/>
      <point x="298" y="187" type="line"/>
      <point x="298" y="0" type="line"/>
      <point x="537" y="0" type="line"/>
      <point x="537" y="67" type="line"/>
      <point x="373" y="67" type="line"/>
      <point x="373" y="328" type="line"/>
      <point x="497" y="328" type="line"/>
      <point x="497" y="395" type="line"/>
      <point x="373" y="395" type="line"/>
      <point x="373" y="626" type="line"/>
      <point x="522" y="626" type="line"/>
      <point x="522" y="693" type="line"/>
      <point x="252" y="693" type="line"/>
      <point x="172" y="494"/>
      <point x="98" y="240"/>
    </contour>
    <contour>
      <point x="176" y="253" type="line"/>
      <point x="208" y="358"/>
      <point x="251" y="506"/>
      <point x="298" y="644" type="curve"/>
      <point x="298" y="253" type="line"/>
    </contour>
  </outline>
</glyph>
<glyph name="Ccedilla" format="2">
  <advance width="560"/>
  <unicode hex="00C7"/>
  <outline>
    <contour>
      <point x="320" y="-189" type="curve" smooth="yes"/>
      <point x="400" y="-189"/>
      <point x="412" y="-139"/>
      <point x="412" y="-120" type="curve" smooth="yes"/>
      <point x="412" y="-74"/>
      <point x="395" y="-59"/>
      <point x="361" y="-40" type="curve"/>
      <point x="375" y="-12" type="line"/>
      <point x="422" y="-9"/>
      <point x="465" y="1"/>
      <point x="512" y="28" type="curve"/>
      <point x="491" y="94" type="line"/>
      <point x="433" y="63"/>
      <point x="385" y="56"/>
      <point x="349" y="56" type="curve" smooth="yes"/>
      <point x="234" y="56"/>
      <point x="139" y="146"/>
      <point x="139" y="346" type="curve" smooth="yes"/>
      <point x="139" y="512"/>
      <point x="211" y="638"/>
      <point x="344" y="638" type="curve" smooth="yes"/>
      <point x="381" y="638"/>
      <point x="425" y="627"/>
      <point x="482" y="596" type="curve"/>
      <point x="506" y="662" type="line"/>
      <point x="440" y="701"/>
      <point x="381" y="709"/>
      <point x="339" y="709" type="curve" smooth="yes"/>
      <point x="189" y="709"/>
      <point x="59" y="584"/>
      <point x="59" y="347" type="curve" smooth="yes"/>
      <point x="59" y="106"/>
      <point x="171" y="-5"/>
      <point x="319" y="-13" type="curve"/>
      <point x="309" y="-35"/>
      <point x="297" y="-60"/>
      <point x="291" y="-75" type="curve"/>
      <point x="295" y="-77" type="line" smooth="yes"/>
      <point x="322" y="-85"/>
      <point x="336" y="-96"/>
      <point x="336" y="-111" type="curve" smooth="yes"/>
      <point x="336" y="-123"/>
      <point x="327" y="-132"/>
      <point x="303" y="-132" type="curve" smooth="yes"/>
      <point x="281" y="-132"/>
      <point x="267" y="-128"/>
      <point x="249" y="-122" type="curve"/>
      <point x="239" y="-175" type="line"/>
      <point x="254" y="-182"/>
      <point x="284" y="-189"/>
    </contour>
  </outline>
</glyph>
<glyph name="Eth" format="2">
  <advance width="560"/>
  <unicode hex="00D0"/>
  <outline>
    <contour>
      <point x="214" y="-5" type="curve" smooth="yes"/>
      <point x="382" y="-5"/>
      <point x="511" y="91"/>
      <point x="511" y="347" type="curve" smooth="yes"/>
      <point x="511" y="605"/>
      <point x="377" y="700"/>
      <point x="209" y="700" type="curve" smooth="yes"/>
      <point x="164" y="700"/>
      <point x="120" y="693"/>
      <point x="80" y="683" type="curve"/>
      <point x="80" y="392" type="line"/>
      <point x="20" y="392" type="line"/>
      <point x="20" y="333" type="line"/>
      <point x="80" y="333" type="line"/>
      <point x="80" y="12" type="line"/>
      <point x="123" y="1"/>
      <point x="170" y="-5"/>
    </contour>
    <contour>
      <point x="220" y="63" type="curve" smooth="yes"/>
      <point x="201" y="63"/>
      <point x="179" y="64"/>
      <point x="158" y="67" type="curve"/>
      <point x="158" y="333" type="line"/>
      <point x="275" y="333" type="line"/>
      <point x="275" y="392" type="line"/>
      <point x="158" y="392" type="line"/>
      <point x="158" y="629" type="line"/>
      <point x="173" y="631"/>
      <point x="193" y="632"/>
      <point x="211" y="632" type="curve" smooth="yes"/>
      <point x="348" y="632"/>
      <point x="430" y="554"/>
      <point x="430" y="347" type="curve" smooth="yes"/>
      <point x="430" y="134"/>
      <point x="348" y="63"/>
    </contour>
  </outline>
</glyph>
<glyph name="multiply" format="2">
  <advance width="560"/>
  <unicode hex="00D7"/>
  <outline>
    <contour>
      <point x="134" y="92" type="line"/>
      <point x="280" y="239" type="line"/>
      <point x="426" y="92" type="line"/>
      <point x="482" y="148" type="line"/>
      <point x="336" y="295" type="line"/>
      <point x="482" y="440" type="line"/>
      <point x="426" y="496" type="line"/>
      <point x="280" y="351" type="line"/>
      <point x="134" y="496" type="line"/>
      <point x="78" y="440" type="line"/>
      <point x="224" y="295" type="line"/>
      <point x="78" y="148" type="line"/>
    </contour>
  </outline>
</glyph>
<glyph name="Oslash" format="2">
  <advance width="560"/>
  <unicode hex="00D8"/>
  <anchor x="280" y="0" name="bottom"/>
  <anchor x="280" y="776" name="top"/>
  <outline>
    <contour>
      <point x="130" y="-35" type="line"/>
      <point x="156" y="19" type="line"/>
      <point x="192" y="-3"/>
      <point x="234" y="-14"/>
      <point x="280" y="-14" type="curve" smooth="yes"/>
      <point x="424" y="-14"/>
      <point x="529" y="96"/>
      <point x="529" y="348" type="curve" smooth="yes"/>
      <point x="529" y="476"/>
      <point x="499" y="569"/>
      <point x="453" y="628" type="curve"/>
      <point x="484" y="694" type="line"/>
      <point x="421" y="726" type="line"/>
      <point x="398" y="677" type="line"/>
      <point x="363" y="699"/>
      <point x="324" y="710"/>
      <point x="280" y="710" type="curve" smooth="yes"/>
      <point x="134" y="710"/>
      <point x="33" y="599"/>
      <point x="33" y="348" type="curve" smooth="yes"/>
      <point x="33" y="220"/>
      <point x="57" y="128"/>
      <point x="104" y="70" type="curve"/>
      <point x="68" y="-3" type="line"/>
    </contour>
    <contour>
      <point x="277" y="54" type="curve" smooth="yes"/>
      <point x="246" y="54"/>
      <point x="211" y="61"/>
      <point x="187" y="82" type="curve"/>
      <point x="417" y="555" type="line"/>
      <point x="439" y="506"/>
      <point x="449" y="432"/>
      <point x="449" y="348" type="curve" smooth="yes"/>
      <point x="449" y="152"/>
      <point x="384" y="54"/>
    </contour>
    <contour>
      <point x="138" y="141" type="line"/>
      <point x="118" y="193"/>
      <point x="114" y="266"/>
      <point x="114" y="348" type="curve" smooth="yes"/>
      <point x="114" y="544"/>
      <point x="172" y="642"/>
      <point x="277" y="642" type="curve" smooth="yes"/>
      <point x="312" y="642"/>
      <point x="342" y="635"/>
      <point x="366" y="615" type="curve"/>
    </contour>
  </outline>
</glyph>
<glyph name="Thorn" format="2">
  <advance width="560"/>
  <unicode hex="00DE"/>
  <anchor x="280" y="0" name="bottom"/>
  <anchor x="280" y="776" name="top"/>
  <outline>
    <contour>
      <point x="82" y="0" type="line"/>
      <point x="174" y="0" type="line"/>
      <point x="174" y="143" type="line"/>
      <point x="235" y="143" type="line" smooth="yes"/>
      <point x="401" y="143"/>
      <point x="510" y="206"/>
      <point x="510" y="381" type="curve" smooth="yes"/>
      <point x="510" y="512"/>
      <point x="413" y="581"/>
      <point x="242" y="581" type="curve" smooth="yes"/>
      <point x="220" y="581"/>
      <point x="197" y="580"/>
      <point x="174" y="578" type="curve"/>
      <point x="174" y="693" type="line"/>
      <point x="82" y="693" type="line"/>
    </contour>
    <contour>
      <point x="174" y="221" type="line"/>
      <point x="174" y="500" type="line"/>
      <point x="194" y="501"/>
      <point x="220" y="501"/>
      <point x="256" y="501" type="curve" smooth="yes"/>
      <point x="335" y="501"/>
      <point x="416" y="476"/>
      <point x="416" y="376" type="curve" smooth="yes"/>
      <point x="416" y="255"/>
      <point x="344" y="221"/>
      <point x="239" y="221" type="curve" smooth="yes"/>
    </contour>
  </outline>
</glyph>
<glyph name="germandbls" format="2">
  <advance width="560"/>
  <unicode hex="00DF"/>
  <anchor x="280" y="0" name="bottom"/>
  <anchor x="280" y="869" name="top"/>
  <outline>
    <contour>
      <point x="344" y="-12" type="curve" smooth="yes"/>
      <point x="473" y="-12"/>
      <point x="533" y="46"/>
      <point x="533" y="159" type="curve" smooth="yes"/>
      <point x="533" y="255"/>
      <point x="470" y="292"/>
      <point x="416" y="321" type="curve" smooth="yes"/>
      <point x="371" y="345"/>
      <point x="332" y="363"/>
      <point x="332" y="403" type="curve" smooth="yes"/>
      <point x="332" y="426"/>
      <point x="340" y="438"/>
      <point x="362" y="461" type="curve" smooth="yes"/>
      <point x="399" y="500"/>
      <point x="448" y="543"/>
      <point x="448" y="616" type="curve" smooth="yes"/>
      <point x="448" y="701"/>
      <point x="402" y="776"/>
      <point x="263" y="776" type="curve" smooth="yes"/>
      <point x="149" y="776"/>
      <point x="80" y="687"/>
      <point x="80" y="554" type="curve" smooth="yes"/>
      <point x="80" y="0" type="line"/>
      <point x="172" y="0" type="line"/>
      <point x="172" y="552" type="line" smooth="yes"/>
      <point x="172" y="641"/>
      <point x="208" y="696"/>
      <point x="270" y="696" type="curve" smooth="yes"/>
      <point x="329" y="696"/>
      <point x="355" y="659"/>
      <point x="355" y="603" type="curve" smooth="yes"/>
      <point x="355" y="569"/>
      <point x="326" y="540"/>
      <point x="295" y="510" type="curve" smooth="yes"/>
      <point x="261" y="475"/>
      <point x="235" y="444"/>
      <point x="235" y="390" type="curve" smooth="yes"/>
      <point x="235" y="315"/>
      <point x="302" y="287"/>
      <point x="360" y="255" type="curve" smooth="yes"/>
      <point x="402" y="232"/>
      <point x="439" y="205"/>
      <point x="439" y="155" type="curve" smooth="yes"/>
      <point x="439" y="99"/>
      <point x="411" y="67"/>
      <point x="351" y="67" type="curve" smooth="yes"/>
      <point x="306" y="67"/>
      <point x="258" y="88"/>
      <point x="243" y="97" type="curve"/>
      <point x="227" y="16" type="line"/>
      <point x="242" y="8"/>
      <point x="296" y="-12"/>
    </contour>
  </outline>
</glyph>
<glyph name="ae" format="2">
  <advance width="500"/>
  <unicode hex="00E6"/>
  <anchor x="250" y="0" name="bottom"/>
  <anchor x="250" y="520" name="top"/>
  <outline>
    <contour>
      <point x="162" y="-11" type="curve" smooth="yes"/>
      <point x="200" y="-11"/>
      <point x="238" y="2"/>
      <point x="274" y="32" type="curve"/>
      <point x="299" y="5"/>
      <point x="333" y="-11"/>
      <point x="377" y="-11" type="curve" smooth="yes"/>
      <point x="413" y="-11"/>
      <point x="454" y="4"/>
      <point x="465" y="15" type="curve"/>
      <point x="454" y="85" type="line"/>
      <point x="429" y="70"/>
      <point x="406" y="63"/>
      <point x="385" y="63" type="curve" smooth="yes"/>
      <point x="331" y="63"/>
      <point x="292" y="115"/>
      <point x="292" y="210" type="curve"/>
      <point x="477" y="210" type="line"/>
      <point x="478" y="219"/>
      <point x="478" y="232"/>
      <point x="478" y="239" type="curve" smooth="yes"/>
      <point x="478" y="395"/>
      <point x="435" y="475"/>
      <point x="349" y="475" type="curve" smooth="yes"/>
      <point x="315" y="475"/>
      <point x="286" y="451"/>
      <point x="265" y="411" type="curve"/>
      <point x="245" y="451"/>
      <point x="208" y="475"/>
      <point x="150" y="475" type="curve" smooth="yes"/>
      <point x="116" y="475"/>
      <point x="74" y="465"/>
      <point x="62" y="455" type="curve"/>
      <point x="71" y="387" type="line"/>
      <point x="82" y="395"/>
      <point x="114" y="405"/>
      <point x="143" y="405" type="curve" smooth="yes"/>
      <point x="194" y="405"/>
      <point x="217" y="356"/>
      <point x="217" y="294" type="curve" smooth="yes"/>
      <point x="217" y="271" type="line"/>
      <point x="201" y="279"/>
      <point x="180" y="282"/>
      <point x="164" y="282" type="curve" smooth="yes"/>
      <point x="77" y="282"/>
      <point x="31" y="216"/>
      <point x="31" y="132" type="curve" smooth="yes"/>
      <point x="31" y="61"/>
      <point x="74" y="-11"/>
    </contour>
    <contour>
      <point x="169" y="59" type="curve" smooth="yes"/>
      <point x="127" y="59"/>
      <point x="106" y="97"/>
      <point x="106" y="137" type="curve" smooth="yes"/>
      <point x="106" y="185"/>
      <point x="128" y="215"/>
      <point x="172" y="215" type="curve" smooth="yes"/>
      <point x="188" y="215"/>
      <point x="201" y="211"/>
      <point x="214" y="204" type="curve"/>
      <point x="217" y="161"/>
      <point x="225" y="121"/>
      <point x="239" y="88" type="curve"/>
      <point x="221" y="71"/>
      <point x="192" y="59"/>
    </contour>
    <contour>
      <point x="294" y="277" type="line"/>
      <point x="294" y="371"/>
      <point x="323" y="405"/>
      <point x="353" y="405" type="curve" smooth="yes"/>
      <point x="375" y="405"/>
      <point x="403" y="376"/>
      <point x="403" y="277" type="curve"/>
    </contour>
  </outline>
</glyph>
<glyph name="ccedilla" format="2">
  <advance width="560"/>
  <unicode hex="00E7"/>
  <outline>
    <contour>
      <point x="282" y="-189" type="curve" smooth="yes"/>
      <point x="360" y="-189"/>
      <point x="384" y="-146"/>
      <point x="384" y="-116" type="curve" smooth="yes"/>
      <point x="384" y="-74"/>
      <point x="367" y="-55"/>
      <point x="329" y="-37" type="curve"/>
      <point x="334" y="-29"/>
      <point x="337" y="-20"/>
      <point x="342" y="-12" type="curve"/>
      <point x="403" y="-11"/>
      <point x="455" y="-3"/>
      <point x="505" y="15" type="curve"/>
      <point x="492" y="92" type="line"/>
      <point x="440" y="74"/>
      <point x="398" y="71"/>
      <point x="351" y="71" type="curve" smooth="yes"/>
      <point x="232" y="71"/>
      <point x="150" y="128"/>
      <point x="150" y="259" type="curve" smooth="yes"/>
      <point x="150" y="396"/>
      <point x="239" y="450"/>
      <point x="346" y="450" type="curve" smooth="yes"/>
      <point x="388" y="450"/>
      <point x="427" y="447"/>
      <point x="476" y="429" type="curve"/>
      <point x="497" y="508" type="line"/>
      <point x="441" y="526"/>
      <point x="392" y="532"/>
      <point x="342" y="532" type="curve" smooth="yes"/>
      <point x="184" y="532"/>
      <point x="55" y="446"/>
      <point x="55" y="259" type="curve" smooth="yes"/>
      <point x="55" y="101"/>
      <point x="144" y="11"/>
      <point x="280" y="-8" type="curve"/>
      <point x="270" y="-28"/>
      <point x="259" y="-53"/>
      <point x="253" y="-69" type="curve"/>
      <point x="288" y="-80"/>
      <point x="302" y="-91"/>
      <point x="302" y="-106" type="curve" smooth="yes"/>
      <point x="302" y="-120"/>
      <point x="291" y="-129"/>
      <point x="267" y="-129" type="curve" smooth="yes"/>
      <point x="244" y="-129"/>
      <point x="226" y="-124"/>
      <point x="211" y="-119" type="curve"/>
      <point x="199" y="-176" type="line"/>
      <point x="216" y="-183"/>
      <point x="248" y="-189"/>
    </contour>
  </outline>
</glyph>
<glyph name="eth" format="2">
  <advance width="560"/>
  <unicode hex="00F0"/>
  <anchor x="280" y="0" name="bottom"/>
  <anchor x="280" y="869" name="top"/>
  <outline>
    <contour>
      <point x="260" y="-11" type="curve" smooth="yes"/>
      <point x="437" y="-11"/>
      <point x="476" y="167"/>
      <point x="476" y="306" type="curve" smooth="yes"/>
      <point x="476" y="450"/>
      <point x="441" y="559"/>
      <point x="399" y="626" type="curve"/>
      <point x="508" y="664" type="line"/>
      <point x="487" y="721" type="line"/>
      <point x="362" y="679" type="line"/>
      <point x="321" y="727"/>
      <point x="281" y="758"/>
      <point x="257" y="775" type="curve"/>
      <point x="215" y="730" type="line"/>
      <point x="251" y="704"/>
      <point x="271" y="681"/>
      <point x="294" y="655" type="curve"/>
      <point x="184" y="616" type="line"/>
      <point x="205" y="560" type="line"/>
      <point x="330" y="603" type="line"/>
      <point x="360" y="555"/>
      <point x="385" y="502"/>
      <point x="393" y="443" type="curve"/>
      <point x="374" y="464"/>
      <point x="324" y="497"/>
      <point x="260" y="497" type="curve" smooth="yes"/>
      <point x="145" y="497"/>
      <point x="67" y="409"/>
      <point x="67" y="226" type="curve" smooth="yes"/>
      <point x="67" y="118"/>
      <point x="131" y="-11"/>
    </contour>
    <contour>
      <point x="262" y="54" type="curve" smooth="yes"/>
      <point x="186" y="54"/>
      <point x="143" y="137"/>
      <point x="143" y="231" type="curve" smooth="yes"/>
      <point x="143" y="345"/>
      <point x="182" y="427"/>
      <point x="273" y="427" type="curve" smooth="yes"/>
      <point x="313" y="427"/>
      <point x="363" y="409"/>
      <point x="400" y="365" type="curve"/>
      <point x="400" y="354"/>
      <point x="401" y="344"/>
      <point x="401" y="306" type="curve" smooth="yes"/>
      <point x="401" y="187"/>
      <point x="373" y="54"/>
    </contour>
  </outline>
</glyph>
<glyph name="divide" format="2">
  <advance width="560"/>
  <unicode hex="00F7"/>
  <outline>
    <contour>
      <point x="54" y="260" type="line"/>
      <point x="509" y="260" type="line"/>
      <point x="509" y="329" type="line"/>
      <point x="54" y="329" type="line"/>
    </contour>
    <contour>
      <point x="279" y="50" type="curve" smooth="yes"/>
      <point x="318" y="50"/>
      <point x="341" y="83"/>
      <point x="341" y="114" type="curve" smooth="yes"/>
      <point x="341" y="145"/>
      <point x="318" y="179"/>
      <point x="279" y="179" type="curve" smooth="yes"/>
      <point x="240" y="179"/>
      <point x="216" y="145"/>
      <point x="216" y="114" type="curve" smooth="yes"/>
      <point x="216" y="83"/>
      <point x="240" y="50"/>
    </contour>
    <contour>
      <point x="279" y="410" type="curve" smooth="yes"/>
      <point x="318" y="410"/>
      <point x="341" y="444"/>
      <point x="341" y="474" type="curve" smooth="yes"/>
      <point x="341" y="506"/>
      <point x="318" y="538"/>
      <point x="279" y="538" type="curve" smooth="yes"/>
      <point x="240" y="538"/>
      <point x="216" y="506"/>
      <point x="216" y="474" type="curve" smooth="yes"/>
      <point x="216" y="444"/>
      <point x="240" y="410"/>
    </contour>
  </outline>
</glyph>
<glyph name="oslash" format="2">
  <advance width="560"/>
  <unicode hex="00F8"/>
  <anchor x="280" y="582" name="top"/>
  <outline>
    <contour>
      <point x="99" y="-34" type="line"/>
      <point x="147" y="32" type="line"/>
      <point x="184" y="4"/>
      <point x="229" y="-10"/>
      <point x="278" y="-10" type="curve" smooth="yes"/>
      <point x="413" y="-10"/>
      <point x="511" y="96"/>
      <point x="511" y="259" type="curve" smooth="yes"/>
      <point x="511" y="335"/>
      <point x="490" y="399"/>
      <point x="454" y="445" type="curve"/>
      <point x="507" y="517" type="line"/>
      <point x="460" y="554" type="line"/>
      <point x="411" y="488" type="line"/>
      <point x="375" y="517"/>
      <point x="329" y="530"/>
      <point x="278" y="530" type="curve" smooth="yes"/>
      <point x="145" y="530"/>
      <point x="49" y="423"/>
      <point x="49" y="259" type="curve" smooth="yes"/>
      <point x="49" y="183"/>
      <point x="70" y="121"/>
      <point x="105" y="74" type="curve"/>
      <point x="52" y="2" type="line"/>
    </contour>
    <contour>
      <point x="279" y="61" type="curve" smooth="yes"/>
      <point x="245" y="61"/>
      <point x="214" y="68"/>
      <point x="190" y="89" type="curve"/>
      <point x="408" y="384" type="line"/>
      <point x="425" y="351"/>
      <point x="430" y="306"/>
      <point x="430" y="260" type="curve" smooth="yes"/>
      <point x="430" y="136"/>
      <point x="369" y="61"/>
    </contour>
    <contour>
      <point x="152" y="138" type="line"/>
      <point x="135" y="170"/>
      <point x="130" y="207"/>
      <point x="130" y="260" type="curve" smooth="yes"/>
      <point x="130" y="384"/>
      <point x="190" y="460"/>
      <point x="278" y="460" type="curve" smooth="yes"/>
      <point x="313" y="460"/>
      <point x="344" y="451"/>
      <point x="368" y="430" type="curve"/>
    </contour>
  </outline>
</glyph>
<glyph name="thorn" format="2">
  <advance width="560"/>
  <unicode hex="00FE"/>
  <anchor x="280" y="0" name="bottom"/>
  <anchor x="280" y="582" name="top"/>
  <outline>
    <contour>
      <point x="83" y="-185" type="line"/>
      <point x="161" y="-185" type="line"/>
      <point x="161" y="22" type="line"/>
      <point x="178" y="6"/>
      <point x="224" y="-12"/>
      <point x="285" y="-12" type="curve" smooth="yes"/>
      <point x="425" y="-12"/>
      <point x="512" y="101"/>
      <point x="512" y="258" type="curve" smooth="yes"/>
      <point x="512" y="431"/>
      <point x="415" y="530"/>
      <point x="302" y="530" type="curve" smooth="yes"/>
      <point x="257" y="530"/>
      <point x="211" y="520"/>
      <point x="161" y="493" type="curve"/>
      <point x="161" y="776" type="line"/>
      <point x="83" y="762" type="line"/>
    </contour>
    <contour>
      <point x="279" y="61" type="curve" smooth="yes"/>
      <point x="233" y="61"/>
      <point x="184" y="84"/>
      <point x="161" y="105" type="curve"/>
      <point x="161" y="410" type="line"/>
      <point x="207" y="443"/>
      <point x="243" y="459"/>
      <point x="286" y="459" type="curve" smooth="yes"/>
      <point x="366" y="459"/>
      <point x="431" y="400"/>
      <point x="431" y="259" type="curve" smooth="yes"/>
      <point x="431" y="149"/>
      <point x="387" y="61"/>
    </contour>
  </outline>
</glyph>
<glyph name="Aogonek" format="2">
  <advance width="560"/>
  <unicode hex="0104"/>
  <outline>
    <contour>
      <point x="497" y="-186" type="curve" smooth="yes"/>
      <point x="520" y="-186"/>
      <point x="539" y="-183"/>
      <point x="553" y="-176" type="curve"/>
      <point x="545" y="-116" type="line"/>
      <point x="532" y="-121"/>
      <point x="515" y="-123"/>
      <point x="507" y="-123" type="curve" smooth="yes"/>
      <point x="479" y="-123"/>
      <point x="464" y="-114"/>
      <point x="464" y="-94" type="curve" smooth="yes"/>
      <point x="464" y="-56"/>
      <point x="522" y="-8"/>
      <point x="549" y="3" type="curve"/>
      <point x="499" y="178"/>
      <point x="427" y="466"/>
      <point x="334" y="693" type="curve"/>
      <point x="230" y="693" type="line"/>
      <point x="135" y="466"/>
      <point x="58" y="174"/>
      <point x="10" y="0" type="curve"/>
      <point x="89" y="0" type="line"/>
      <point x="132" y="187" type="line"/>
      <point x="423" y="187" type="line"/>
      <point x="467" y="0" type="line"/>
      <point x="459" y="0" type="line"/>
      <point x="429" y="-26"/>
      <point x="390" y="-63"/>
      <point x="390" y="-111" type="curve" smooth="yes"/>
      <point x="390" y="-160"/>
      <point x="421" y="-186"/>
    </contour>
    <contour>
      <point x="153" y="253" type="line"/>
      <point x="194" y="394"/>
      <point x="244" y="540"/>
      <point x="279" y="629" type="curve"/>
      <point x="313" y="545"/>
      <point x="363" y="396"/>
      <point x="403" y="253" type="curve"/>
    </contour>
  </outline>
</glyph>
<glyph name="aogonek" format="2">
  <advance width="560"/>
  <unicode hex="0105"/>
  <outline>
    <contour>
      <point x="419" y="-187" type="curve" smooth="yes"/>
      <point x="446" y="-187"/>
      <point x="470" y="-183"/>
      <point x="485" y="-176" type="curve"/>
      <point x="478" y="-115" type="line"/>
      <point x="463" y="-120"/>
      <point x="446" y="-122"/>
      <point x="437" y="-122" type="curve" smooth="yes"/>
      <point x="410" y="-122"/>
      <point x="398" y="-112"/>
      <point x="398" y="-93" type="curve" smooth="yes"/>
      <point x="398" y="-57"/>
      <point x="458" y="-10"/>
      <point x="484" y="9" type="curve"/>
      <point x="484" y="334" type="line" smooth="yes"/>
      <point x="484" y="451"/>
      <point x="433" y="532"/>
      <point x="277" y="532" type="curve" smooth="yes"/>
      <point x="209" y="532"/>
      <point x="144" y="521"/>
      <point x="119" y="510" type="curve"/>
      <point x="130" y="433" type="line"/>
      <point x="155" y="442"/>
      <point x="205" y="454"/>
      <point x="269" y="454" type="curve" smooth="yes"/>
      <point x="370" y="454"/>
      <point x="393" y="391"/>
      <point x="393" y="329" type="curve" smooth="yes"/>
      <point x="393" y="304" type="line"/>
      <point x="360" y="311"/>
      <point x="324" y="316"/>
      <point x="286" y="316" type="curve" smooth="yes"/>
      <point x="178" y="316"/>
      <point x="65" y="273"/>
      <point x="65" y="155" type="curve" smooth="yes"/>
      <point x="65" y="20"/>
      <point x="176" y="-12"/>
      <point x="289" y="-12" type="curve" smooth="yes"/>
      <point x="316" y="-12"/>
      <point x="344" y="-10"/>
      <point x="370" y="-8" type="curve"/>
      <point x="329" y="-52"/>
      <point x="309" y="-80"/>
      <point x="309" y="-111" type="curve" smooth="yes"/>
      <point x="309" y="-158"/>
      <point x="344" y="-187"/>
    </contour>
    <contour>
      <point x="286" y="66" type="curve" smooth="yes"/>
      <point x="208" y="66"/>
      <point x="159" y="88"/>
      <point x="159" y="156" type="curve" smooth="yes"/>
      <point x="159" y="222"/>
      <point x="230" y="241"/>
      <point x="297" y="241" type="curve" smooth="yes"/>
      <point x="334" y="241"/>
      <point x="370" y="235"/>
      <point x="393" y="228" type="curve"/>
      <point x="393" y="74" type="line"/>
      <point x="370" y="69"/>
      <point x="332" y="66"/>
    </contour>
  </outline>
</glyph>
<glyph name="dcaron" format="2">
  <advance width="560"/>
  <unicode hex="010F"/>
  <outline>
    <contour>
      <point x="241" y="-12" type="curve" smooth="yes"/>
      <point x="320" y="-12"/>
      <point x="372" y="4"/>
      <point x="405" y="15" type="curve"/>
      <point x="405" y="776" type="line"/>
      <point x="327" y="762" type="line"/>
      <point x="327" y="497" type="line"/>
      <point x="310" y="511"/>
      <point x="273" y="530"/>
      <point x="221" y="530" type="curve" smooth="yes"/>
      <point x="99" y="530"/>
      <point x="24" y="417"/>
      <point x="24" y="260" type="curve" smooth="yes"/>
      <point x="24" y="92"/>
      <point x="115" y="-12"/>
    </contour>
    <contour>
      <point x="241" y="61" type="curve" smooth="yes"/>
      <point x="164" y="61"/>
      <point x="107" y="129"/>
      <point x="107" y="258" type="curve" smooth="yes"/>
      <point x="107" y="369"/>
      <point x="142" y="459"/>
      <point x="228" y="459" type="curve" smooth="yes"/>
      <point x="270" y="459"/>
      <point x="309" y="435"/>
      <point x="327" y="414" type="curve"/>
      <point x="327" y="72" type="line"/>
      <point x="314" y="66"/>
      <point x="284" y="61"/>
    </contour>
    <contour>
      <point x="476" y="559" type="line"/>
      <point x="529" y="559" type="line"/>
      <point x="554" y="776" type="line"/>
      <point x="476" y="776" type="line"/>
    </contour>
  </outline>
</glyph>
<glyph name="dcroat" format="2">
  <advance width="560"/>
  <unicode hex="0111"/>
  <outline>
    <contour>
      <point x="286" y="-12" type="curve" smooth="yes"/>
      <point x="369" y="-12"/>
      <point x="426" y="4"/>
      <point x="460" y="15" type="curve"/>
      <point x="460" y="619" type="line"/>
      <point x="537" y="619" type="line"/>
      <point x="537" y="681" type="line"/>
      <point x="460" y="681" type="line"/>
      <point x="460" y="776" type="line"/>
      <point x="382" y="762" type="line"/>
      <point x="382" y="681" type="line"/>
      <point x="167" y="681" type="line"/>
      <point x="167" y="619" type="line"/>
      <point x="382" y="619" type="line"/>
      <point x="382" y="497" type="line"/>
      <point x="362" y="511"/>
      <point x="322" y="530"/>
      <point x="265" y="530" type="curve" smooth="yes"/>
      <point x="134" y="530"/>
      <point x="49" y="417"/>
      <point x="49" y="260" type="curve" smooth="yes"/>
      <point x="49" y="92"/>
      <point x="147" y="-12"/>
    </contour>
    <contour>
      <point x="286" y="61" type="curve" smooth="yes"/>
      <point x="198" y="61"/>
      <point x="131" y="129"/>
      <point x="131" y="258" type="curve" smooth="yes"/>
      <point x="131" y="369"/>
      <point x="172" y="459"/>
      <point x="272" y="459" type="curve" smooth="yes"/>
      <point x="317" y="459"/>
      <point x="362" y="435"/>
      <point x="382" y="414" type="curve"/>
      <point x="382" y="72" type="line"/>
      <point x="369" y="66"/>
      <point x="335" y="61"/>
    </contour>
  </outline>
</glyph>
<glyph name="Eogonek" format="2">
  <advance width="560"/>
  <unicode hex="0118"/>
  <anchor x="280" y="776" name="top"/>
  <outline>
    <contour>
      <point x="462" y="-186" type="curve" smooth="yes"/>
      <point x="484" y="-186"/>
      <point x="502" y="-183"/>
      <point x="515" y="-176" type="curve"/>
      <point x="509" y="-116" type="line"/>
      <point x="496" y="-121"/>
      <point x="479" y="-123"/>
      <point x="472" y="-123" type="curve" smooth="yes"/>
      <point x="443" y="-123"/>
      <point x="428" y="-114"/>
      <point x="428" y="-94" type="curve" smooth="yes"/>
      <point x="428" y="-56"/>
      <point x="485" y="-13"/>
      <point x="515" y="3" type="curve"/>
      <point x="515" y="67" type="line"/>
      <point x="190" y="67" type="line"/>
      <point x="190" y="329" type="line"/>
      <point x="454" y="329" type="line"/>
      <point x="454" y="396" type="line"/>
      <point x="190" y="396" type="line"/>
      <point x="190" y="626" type="line"/>
      <point x="491" y="626" type="line"/>
      <point x="491" y="693" type="line"/>
      <point x="111" y="693" type="line"/>
      <point x="111" y="0" type="line"/>
      <point x="426" y="0" type="line"/>
      <point x="413" y="-10"/>
      <point x="353" y="-62"/>
      <point x="353" y="-111" type="curve" smooth="yes"/>
      <point x="353" y="-160"/>
      <point x="386" y="-186"/>
    </contour>
  </outline>
</glyph>
<glyph name="eogonek" format="2">
  <advance width="560"/>
  <unicode hex="0119"/>
  <anchor x="280" y="582" name="top"/>
  <outline>
    <contour>
      <point x="405" y="-186" type="curve" smooth="yes"/>
      <point x="426" y="-186"/>
      <point x="444" y="-183"/>
      <point x="458" y="-176" type="curve"/>
      <point x="451" y="-116" type="line"/>
      <point x="438" y="-121"/>
      <point x="421" y="-123"/>
      <point x="414" y="-123" type="curve" smooth="yes"/>
      <point x="385" y="-123"/>
      <point x="370" y="-114"/>
      <point x="370" y="-94" type="curve" smooth="yes"/>
      <point x="370" y="-54"/>
      <point x="435" y="-11"/>
      <point x="469" y="16" type="curve"/>
      <point x="458" y="83" type="line"/>
      <point x="438" y="73"/>
      <point x="392" y="60"/>
      <point x="324" y="60" type="curve" smooth="yes"/>
      <point x="202" y="60"/>
      <point x="137" y="121"/>
      <point x="126" y="240" type="curve"/>
      <point x="507" y="240" type="line"/>
      <point x="507" y="249"/>
      <point x="507" y="262"/>
      <point x="507" y="267" type="curve" smooth="yes"/>
      <point x="507" y="445"/>
      <point x="426" y="530"/>
      <point x="292" y="530" type="curve" smooth="yes"/>
      <point x="173" y="530"/>
      <point x="48" y="444"/>
      <point x="48" y="259" type="curve" smooth="yes"/>
      <point x="48" y="110"/>
      <point x="130" y="-12"/>
      <point x="312" y="-12" type="curve" smooth="yes"/>
      <point x="327" y="-12"/>
      <point x="341" y="-11"/>
      <point x="357" y="-9" type="curve"/>
      <point x="339" y="-19"/>
      <point x="290" y="-68"/>
      <point x="290" y="-109" type="curve" smooth="yes"/>
      <point x="290" y="-158"/>
      <point x="328" y="-186"/>
    </contour>
    <contour>
      <point x="129" y="309" type="line"/>
      <point x="138" y="385"/>
      <point x="200" y="463"/>
      <point x="290" y="463" type="curve" smooth="yes"/>
      <point x="367" y="463"/>
      <point x="426" y="401"/>
      <point x="424" y="309" type="curve"/>
    </contour>
  </outline>
</glyph>
<glyph name="hcircumflex" format="2">
  <advance width="560"/>
  <unicode hex="0125"/>
  <outline>
    <contour>
      <point x="83" y="0" type="line"/>
      <point x="161" y="0" type="line"/>
      <point x="161" y="439" type="line"/>
      <point x="178" y="446"/>
      <point x="225" y="458"/>
      <point x="267" y="458" type="curve" smooth="yes"/>
      <point x="370" y="458"/>
      <point x="403" y="410"/>
      <point x="403" y="271" type="curve" smooth="yes"/>
      <point x="403" y="0" type="line"/>
      <point x="481" y="0" type="line"/>
      <point x="481" y="292" type="line" smooth="yes"/>
      <point x="481" y="434"/>
      <point x="433" y="529"/>
      <point x="274" y="529" type="curve" smooth="yes"/>
      <point x="235" y="529"/>
      <point x="195" y="522"/>
      <point x="161" y="509" type="curve"/>
      <point x="161" y="775" type="line"/>
      <point x="83" y="761" type="line"/>
    </contour>
    <contour>
      <point x="70" y="800" type="line"/>
      <point x="161" y="861" type="line"/>
      <point x="254" y="800" type="line"/>
      <point x="278" y="838" type="line"/>
      <point x="161" y="931" type="line"/>
      <point x="45" y="838" type="line"/>
    </contour>
  </outline>
</glyph>
<glyph name="Hbar" format="2">
  <advance width="560"/>
  <unicode hex="0126"/>
  <outline>
    <contour>
      <point x="83" y="0" type="line"/>
      <point x="161" y="0" type="line"/>
      <point x="161" y="335" type="line"/>
      <point x="399" y="335" type="line"/>
      <point x="399" y="0" type="line"/>
      <point x="477" y="0" type="line"/>
      <point x="477" y="531" type="line"/>
      <point x="540" y="531" type="line"/>
      <point x="540" y="586" type="line"/>
      <point x="477" y="586" type="line"/>
      <point x="477" y="693" type="line"/>
      <point x="399" y="693" type="line"/>
      <point x="399" y="586" type="line"/>
      <point x="161" y="586" type="line"/>
      <point x="161" y="693" type="line"/>
      <point x="83" y="693" type="line"/>
      <point x="83" y="586" type="line"/>
      <point x="20" y="586" type="line"/>
      <point x="20" y="531" type="line"/>
      <point x="83" y="531" type="line"/>
    </contour>
    <contour>
      <point x="161" y="402" type="line"/>
      <point x="161" y="531" type="line"/>
      <point x="399" y="531" type="line"/>
      <point x="399" y="402" type="line"/>
    </contour>
  </outline>
</glyph>
<glyph name="hbar" format="2">
  <advance width="560"/>
  <unicode hex="0127"/>
  <outline>
    <contour>
      <point x="98" y="0" type="line"/>
      <point x="176" y="0" type="line"/>
      <point x="176" y="439" type="line"/>
      <point x="192" y="446"/>
      <point x="238" y="458"/>
      <point x="278" y="458" type="curve" smooth="yes"/>
      <point x="369" y="458"/>
      <point x="403" y="410"/>
      <point x="403" y="271" type="curve" smooth="yes"/>
      <point x="403" y="0" type="line"/>
      <point x="481" y="0" type="line"/>
      <point x="481" y="292" type="line" smooth="yes"/>
      <point x="481" y="434"/>
      <point x="432" y="529"/>
      <point x="285" y="529" type="curve" smooth="yes"/>
      <point x="249" y="529"/>
      <point x="206" y="522"/>
      <point x="176" y="509" type="curve"/>
      <point x="176" y="619" type="line"/>
      <point x="370" y="619" type="line"/>
      <point x="370" y="681" type="line"/>
      <point x="176" y="681" type="line"/>
      <point x="176" y="776" type="line"/>
      <point x="98" y="762" type="line"/>
      <point x="98" y="681" type="line"/>
      <point x="20" y="681" type="line"/>
      <point x="20" y="619" type="line"/>
      <point x="98" y="619" type="line"/>
    </contour>
  </outline>
</glyph>
<glyph name="Iogonek" format="2">
  <advance width="560"/>
  <unicode hex="012E"/>
  <outline>
    <contour>
      <point x="274" y="-186" type="curve" smooth="yes"/>
      <point x="297" y="-186"/>
      <point x="315" y="-183"/>
      <point x="329" y="-176" type="curve"/>
      <point x="322" y="-116" type="line"/>
      <point x="309" y="-121"/>
      <point x="292" y="-123"/>
      <point x="284" y="-123" type="curve" smooth="yes"/>
      <point x="256" y="-123"/>
      <point x="241" y="-114"/>
      <point x="241" y="-94" type="curve" smooth="yes"/>
      <point x="241" y="-63"/>
      <point x="299" y="-14"/>
      <point x="318" y="0" type="curve"/>
      <point x="448" y="0" type="line"/>
      <point x="448" y="67" type="line"/>
      <point x="319" y="67" type="line"/>
      <point x="319" y="626" type="line"/>
      <point x="448" y="626" type="line"/>
      <point x="448" y="693" type="line"/>
      <point x="112" y="693" type="line"/>
      <point x="112" y="626" type="line"/>
      <point x="241" y="626" type="line"/>
      <point x="241" y="67" type="line"/>
      <point x="112" y="67" type="line"/>
      <point x="112" y="0" type="line"/>
      <point x="231" y="0" type="line"/>
      <point x="213" y="-12"/>
      <point x="163" y="-68"/>
      <point x="163" y="-109" type="curve" smooth="yes"/>
      <point x="163" y="-158"/>
      <point x="198" y="-186"/>
    </contour>
  </outline>
</glyph>
<glyph name="iogonek" format="2">
  <advance width="560"/>
  <unicode hex="012F"/>
  <outline>
    <contour>
      <point x="429" y="-186" type="curve" smooth="yes"/>
      <point x="455" y="-186"/>
      <point x="476" y="-182"/>
      <point x="487" y="-176" type="curve"/>
      <point x="480" y="-116" type="line"/>
      <point x="469" y="-121"/>
      <point x="450" y="-123"/>
      <point x="442" y="-123" type="curve" smooth="yes"/>
      <point x="414" y="-123"/>
      <point x="399" y="-114"/>
      <point x="399" y="-94" type="curve" smooth="yes"/>
      <point x="399" y="-69"/>
      <point x="435" y="-25"/>
      <point x="498" y="16" type="curve"/>
      <point x="487" y="84" type="line"/>
      <point x="472" y="76"/>
      <point x="433" y="60"/>
      <point x="385" y="60" type="curve" smooth="yes"/>
      <point x="328" y="60"/>
      <point x="295" y="85"/>
      <point x="295" y="200" type="curve" smooth="yes"/>
      <point x="295" y="518" type="line"/>
      <point x="66" y="518" type="line"/>
      <point x="66" y="451" type="line"/>
      <point x="219" y="451" type="line"/>
      <point x="219" y="195" type="line"/>
      <point x="219" y="55"/>
      <point x="255" y="-13"/>
      <point x="385" y="-12" type="curve"/>
      <point x="371" y="-18"/>
      <point x="320" y="-64"/>
      <point x="320" y="-109" type="curve" smooth="yes"/>
      <point x="320" y="-154"/>
      <point x="349" y="-186"/>
    </contour>
    <contour>
      <point x="235" y="603" type="curve" smooth="yes"/>
      <point x="273" y="603"/>
      <point x="302" y="631"/>
      <point x="302" y="674" type="curve" smooth="yes"/>
      <point x="302" y="718"/>
      <point x="273" y="745"/>
      <point x="235" y="745" type="curve" smooth="yes"/>
      <point x="198" y="745"/>
      <point x="167" y="718"/>
      <point x="167" y="674" type="curve" smooth="yes"/>
      <point x="167" y="631"/>
      <point x="198" y="603"/>
    </contour>
  </outline>
</glyph>
<glyph name="dotlessi" format="2">
  <advance width="500"/>
  <unicode hex="0131"/>
  <anchor x="250" y="0" name="bottom"/>
  <anchor x="450" y="10" name="ogonek"/>
  <anchor x="250" y="520" name="top"/>
  <outline>
    <contour>
      <point x="339" y="-11" type="curve" smooth="yes"/>
      <point x="389" y="-11"/>
      <point x="435" y="7"/>
      <point x="450" y="15" type="curve"/>
      <point x="438" y="85" type="line"/>
      <point x="419" y="75"/>
      <point x="385" y="63"/>
      <point x="346" y="63" type="curve" smooth="yes"/>
      <point x="296" y="63"/>
      <point x="270" y="87"/>
      <point x="270" y="179" type="curve" smooth="yes"/>
      <point x="270" y="464" type="line"/>
      <point x="54" y="464" type="line"/>
      <point x="54" y="395" type="line"/>
      <point x="188" y="395" type="line"/>
      <point x="188" y="179" type="line"/>
      <point x="188" y="54"/>
      <point x="222" y="-11"/>
    </contour>
  </outline>
</glyph>
<glyph name="idotless" format="2">
  <advance width="560"/>
  <unicode hex="0131"/>
  <anchor x="280" y="0" name="bottom"/>
  <anchor x="424" y="11" name="ogonek"/>
  <anchor x="280" y="518" name="top"/>
  <outline>
    <contour>
      <point x="382" y="-12" type="curve" smooth="yes"/>
      <point x="442" y="-12"/>
      <point x="493" y="12"/>
      <point x="498" y="16" type="curve"/>
      <point x="487" y="84" type="line"/>
      <point x="472" y="76"/>
      <point x="433" y="60"/>
      <point x="385" y="60" type="curve" smooth="yes"/>
      <point x="328" y="60"/>
      <point x="295" y="85"/>
      <point x="295" y="200" type="curve" smooth="yes"/>
      <point x="295" y="518" type="line"/>
      <point x="66" y="518" type="line"/>
      <point x="66" y="451" type="line"/>
      <point x="219" y="451" type="line"/>
      <point x="219" y="195" type="line"/>
      <point x="219" y="56"/>
      <point x="254" y="-12"/>
    </contour>
  </outline>
</glyph>
<glyph name="IJ" format="2">
  <advance width="560"/>
  <unicode hex="0132"/>
  <outline>
    <contour>
      <point x="347" y="-15" type="curve" smooth="yes"/>
      <point x="460" y="-15"/>
      <point x="525" y="50"/>
      <point x="525" y="185" type="curve" smooth="yes"/>
      <point x="525" y="693" type="line"/>
      <point x="446" y="693" type="line"/>
      <point x="446" y="183" type="line" smooth="yes"/>
      <point x="446" y="92"/>
      <point x="413" y="53"/>
      <point x="350" y="53" type="curve" smooth="yes"/>
      <point x="296" y="53"/>
      <point x="258" y="78"/>
      <point x="231" y="108" type="curve"/>
      <point x="199" y="44" type="line"/>
      <point x="236" y="6"/>
      <point x="294" y="-15"/>
    </contour>
    <contour>
      <point x="53" y="0" type="line"/>
      <point x="131" y="0" type="line"/>
      <point x="131" y="693" type="line"/>
      <point x="53" y="693" type="line"/>
    </contour>
  </outline>
</glyph>
<glyph name="ij" format="2">
  <advance width="560"/>
  <unicode hex="0133"/>
  <outline>
    <contour>
      <point x="254" y="-188" type="curve" smooth="yes"/>
      <point x="367" y="-188"/>
      <point x="429" y="-124"/>
      <point x="429" y="7" type="curve" smooth="yes"/>
      <point x="429" y="518" type="line"/>
      <point x="351" y="518" type="line"/>
      <point x="351" y="7" type="line" smooth="yes"/>
      <point x="351" y="-76"/>
      <point x="323" y="-120"/>
      <point x="253" y="-120" type="curve" smooth="yes"/>
      <point x="241" y="-120"/>
      <point x="220" y="-116"/>
      <point x="210" y="-113" type="curve"/>
      <point x="200" y="-177" type="line"/>
      <point x="212" y="-183"/>
      <point x="239" y="-188"/>
    </contour>
    <contour>
      <point x="133" y="0" type="line"/>
      <point x="211" y="0" type="line"/>
      <point x="211" y="518" type="line"/>
      <point x="133" y="518" type="line"/>
    </contour>
    <contour>
      <point x="172" y="612" type="curve" smooth="yes"/>
      <point x="206" y="612"/>
      <point x="232" y="637"/>
      <point x="232" y="674" type="curve" smooth="yes"/>
      <point x="232" y="711"/>
      <point x="206" y="736"/>
      <point x="172" y="736" type="curve" smooth="yes"/>
      <point x="138" y="736"/>
      <point x="111" y="711"/>
      <point x="111" y="674" type="curve" smooth="yes"/>
      <point x="111" y="637"/>
      <point x="138" y="612"/>
    </contour>
    <contour>
      <point x="390" y="612" type="curve" smooth="yes"/>
      <point x="424" y="612"/>
      <point x="451" y="637"/>
      <point x="451" y="674" type="curve" smooth="yes"/>
      <point x="451" y="711"/>
      <point x="424" y="736"/>
      <point x="390" y="736" type="curve" smooth="yes"/>
      <point x="357" y="736"/>
      <point x="330" y="711"/>
      <point x="330" y="674" type="curve" smooth="yes"/>
      <point x="330" y="637"/>
      <point x="357" y="612"/>
    </contour>
  </outline>
</glyph>
<glyph name="lacute" format="2">
  <advance width="560"/>
  <unicode hex="013A"/>
  <outline>
    <contour>
      <point x="382" y="-12" type="curve" smooth="yes"/>
      <point x="427" y="-12"/>
      <point x="479" y="5"/>
      <point x="498" y="16" type="curve"/>
      <point x="487" y="84" type="line"/>
      <point x="462" y="71"/>
      <point x="423" y="60"/>
      <point x="382" y="60" type="curve" smooth="yes"/>
      <point x="322" y="60"/>
      <point x="295" y="88"/>
      <point x="295" y="200" type="curve" smooth="yes"/>
      <point x="295" y="770" type="line"/>
      <point x="66" y="770" type="line"/>
      <point x="66" y="703" type="line"/>
      <point x="219" y="703" type="line"/>
      <point x="219" y="197" type="line" smooth="yes"/>
      <point x="219" y="58"/>
      <point x="250" y="-12"/>
    </contour>
    <contour>
      <point x="202" y="807" type="line"/>
      <point x="355" y="866" type="line"/>
      <point x="329" y="931" type="line"/>
      <point x="184" y="858" type="line"/>
    </contour>
  </outline>
</glyph>
<glyph name="Lslash" format="2">
  <advance width="560"/>
  <unicode hex="0141"/>
  <outline>
    <contour>
      <point x="135" y="0" type="line"/>
      <point x="515" y="0" type="line"/>
      <point x="515" y="67" type="line"/>
      <point x="214" y="67" type="line"/>
      <point x="214" y="337" type="line"/>
      <point x="360" y="413" type="line"/>
      <point x="333" y="469" type="line"/>
      <point x="214" y="407" type="line"/>
      <point x="214" y="693" type="line"/>
      <point x="135" y="693" type="line"/>
      <point x="135" y="366" type="line"/>
      <point x="29" y="311" type="line"/>
      <point x="58" y="256" type="line"/>
      <point x="135" y="296" type="line"/>
    </contour>
  </outline>
</glyph>
<glyph name="lslash" format="2">
  <advance width="560"/>
  <unicode hex="0142"/>
  <outline>
    <contour>
      <point x="379" y="-12" type="curve" smooth="yes"/>
      <point x="435" y="-12"/>
      <point x="487" y="8"/>
      <point x="504" y="17" type="curve"/>
      <point x="491" y="95" type="line"/>
      <point x="469" y="84"/>
      <point x="430" y="71"/>
      <point x="386" y="71" type="curve" smooth="yes"/>
      <point x="330" y="71"/>
      <point x="302" y="97"/>
      <point x="302" y="200" type="curve" smooth="yes"/>
      <point x="302" y="389" type="line"/>
      <point x="421" y="450" type="line"/>
      <point x="390" y="512" type="line"/>
      <point x="302" y="467" type="line"/>
      <point x="302" y="771" type="line"/>
      <point x="60" y="771" type="line"/>
      <point x="60" y="692" type="line"/>
      <point x="211" y="692" type="line"/>
      <point x="211" y="419" type="line"/>
      <point x="105" y="365" type="line"/>
      <point x="137" y="304" type="line"/>
      <point x="211" y="342" type="line"/>
      <point x="211" y="200" type="line" smooth="yes"/>
      <point x="211" y="60"/>
      <point x="248" y="-12"/>
    </contour>
  </outline>
</glyph>
<glyph name="Eng" format="2">
  <advance width="560"/>
  <unicode hex="014A"/>
  <anchor x="280" y="0" name="bottom"/>
  <anchor x="280" y="776" name="top"/>
  <outline>
    <contour>
      <point x="368" y="-187" type="curve" smooth="yes"/>
      <point x="491" y="-187"/>
      <point x="495" y="-108"/>
      <point x="495" y="-3" type="curve" smooth="yes"/>
      <point x="495" y="693" type="line"/>
      <point x="423" y="693" type="line"/>
      <point x="423" y="166" type="line"/>
      <point x="361" y="315"/>
      <point x="237" y="543"/>
      <point x="154" y="693" type="curve"/>
      <point x="65" y="693" type="line"/>
      <point x="65" y="0" type="line"/>
      <point x="137" y="0" type="line"/>
      <point x="137" y="581" type="line"/>
      <point x="238" y="397"/>
      <point x="365" y="149"/>
      <point x="423" y="21" type="curve"/>
      <point x="423" y="-23" type="line"/>
      <point x="423" y="-87"/>
      <point x="410" y="-124"/>
      <point x="359" y="-124" type="curve" smooth="yes"/>
      <point x="349" y="-124"/>
      <point x="325" y="-123"/>
      <point x="315" y="-120" type="curve"/>
      <point x="309" y="-180" type="line"/>
      <point x="321" y="-182"/>
      <point x="348" y="-187"/>
    </contour>
  </outline>
</glyph>
<glyph name="eng" format="2">
  <advance width="560"/>
  <unicode hex="014B"/>
  <anchor x="280" y="0" name="bottom"/>
  <anchor x="280" y="582" name="top"/>
  <outline>
    <contour>
      <point x="341" y="-188" type="curve" smooth="yes"/>
      <point x="460" y="-188"/>
      <point x="481" y="-122"/>
      <point x="481" y="-1" type="curve" smooth="yes"/>
      <point x="481" y="307" type="line" smooth="yes"/>
      <point x="481" y="470"/>
      <point x="400" y="529"/>
      <point x="271" y="529" type="curve" smooth="yes"/>
      <point x="221" y="529"/>
      <point x="154" y="522"/>
      <point x="83" y="504" type="curve"/>
      <point x="83" y="0" type="line"/>
      <point x="161" y="0" type="line"/>
      <point x="161" y="447" type="line"/>
      <point x="196" y="454"/>
      <point x="235" y="458"/>
      <point x="268" y="458" type="curve" smooth="yes"/>
      <point x="343" y="458"/>
      <point x="403" y="434"/>
      <point x="403" y="291" type="curve" smooth="yes"/>
      <point x="403" y="-21" type="line" smooth="yes"/>
      <point x="403" y="-85"/>
      <point x="386" y="-122"/>
      <point x="334" y="-122" type="curve" smooth="yes"/>
      <point x="324" y="-122"/>
      <point x="302" y="-122"/>
      <point x="291" y="-118" type="curve"/>
      <point x="285" y="-181" type="line"/>
      <point x="296" y="-183"/>
      <point x="322" y="-188"/>
    </contour>
  </outline>
</glyph>
<glyph name="OE" format="2">
  <advance width="560"/>
  <unicode hex="0152"/>
  <anchor x="280" y="0" name="bottom"/>
  <anchor x="280" y="776" name="top"/>
  <outline>
    <contour>
      <point x="245" y="-7" type="curve" smooth="yes"/>
      <point x="266" y="-7"/>
      <point x="287" y="-4"/>
      <point x="309" y="0" type="curve"/>
      <point x="537" y="0" type="line"/>
      <point x="537" y="67" type="line"/>
      <point x="373" y="67" type="line"/>
      <point x="373" y="328" type="line"/>
      <point x="497" y="328" type="line"/>
      <point x="497" y="395" type="line"/>
      <point x="373" y="395" type="line"/>
      <point x="373" y="626" type="line"/>
      <point x="522" y="626" type="line"/>
      <point x="522" y="693" type="line"/>
      <point x="308" y="693" type="line"/>
      <point x="288" y="697"/>
      <point x="260" y="700"/>
      <point x="247" y="700" type="curve" smooth="yes"/>
      <point x="117" y="700"/>
      <point x="33" y="569"/>
      <point x="33" y="334" type="curve" smooth="yes"/>
      <point x="33" y="99"/>
      <point x="117" y="-7"/>
    </contour>
    <contour>
      <point x="245" y="61" type="curve" smooth="yes"/>
      <point x="164" y="61"/>
      <point x="111" y="154"/>
      <point x="111" y="334" type="curve" smooth="yes"/>
      <point x="111" y="516"/>
      <point x="165" y="632"/>
      <point x="245" y="632" type="curve" smooth="yes"/>
      <point x="259" y="632"/>
      <point x="276" y="631"/>
      <point x="298" y="624" type="curve"/>
      <point x="298" y="69" type="line"/>
      <point x="294" y="69"/>
      <point x="280" y="61"/>
    </contour>
  </outline>
</glyph>
<glyph name="oe" format="2">
  <advance width="500"/>
  <unicode hex="0153"/>
  <anchor x="250" y="0" name="bottom"/>
  <anchor x="250" y="520" name="top"/>
  <outline>
    <contour>
      <point x="157" y="-11" type="curve" smooth="yes"/>
      <point x="213" y="-11"/>
      <point x="239" y="18"/>
      <point x="262" y="79" type="curve"/>
      <point x="288" y="12"/>
      <point x="330" y="-11"/>
      <point x="377" y="-11" type="curve" smooth="yes"/>
      <point x="406" y="-11"/>
      <point x="438" y="-4"/>
      <point x="465" y="15" type="curve"/>
      <point x="454" y="85" type="line"/>
      <point x="424" y="67"/>
      <point x="405" y="63"/>
      <point x="388" y="63" type="curve" smooth="yes"/>
      <point x="329" y="63"/>
      <point x="301" y="136"/>
      <point x="301" y="210" type="curve"/>
      <point x="477" y="210" type="line"/>
      <point x="478" y="222"/>
      <point x="478" y="231"/>
      <point x="478" y="239" type="curve" smooth="yes"/>
      <point x="478" y="396"/>
      <point x="436" y="475"/>
      <point x="357" y="475" type="curve" smooth="yes"/>
      <point x="319" y="475"/>
      <point x="286" y="447"/>
      <point x="262" y="385" type="curve"/>
      <point x="244" y="448"/>
      <point x="206" y="475"/>
      <point x="157" y="475" type="curve" smooth="yes"/>
      <point x="69" y="475"/>
      <point x="31" y="355"/>
      <point x="31" y="234" type="curve" smooth="yes"/>
      <point x="31" y="112"/>
      <point x="70" y="-11"/>
    </contour>
    <contour>
      <point x="169" y="62" type="curve" smooth="yes"/>
      <point x="124" y="62"/>
      <point x="107" y="150"/>
      <point x="107" y="237" type="curve" smooth="yes"/>
      <point x="107" y="321"/>
      <point x="122" y="404"/>
      <point x="163" y="404" type="curve" smooth="yes"/>
      <point x="207" y="404"/>
      <point x="222" y="315"/>
      <point x="222" y="229" type="curve" smooth="yes"/>
      <point x="222" y="144"/>
      <point x="209" y="62"/>
    </contour>
    <contour>
      <point x="303" y="277" type="line"/>
      <point x="303" y="352"/>
      <point x="324" y="405"/>
      <point x="357" y="405" type="curve" smooth="yes"/>
      <point x="384" y="405"/>
      <point x="403" y="355"/>
      <point x="403" y="277" type="curve"/>
    </contour>
  </outline>
</glyph>
<glyph name="Scedilla" format="2">
  <advance width="560"/>
  <unicode hex="015E"/>
  <outline>
    <contour>
      <point x="256" y="-189" type="curve" smooth="yes"/>
      <point x="336" y="-189"/>
      <point x="347" y="-139"/>
      <point x="347" y="-120" type="curve" smooth="yes"/>
      <point x="347" y="-74"/>
      <point x="331" y="-59"/>
      <point x="296" y="-40" type="curve"/>
      <point x="301" y="-31"/>
      <point x="304" y="-21"/>
      <point x="310" y="-12" type="curve"/>
      <point x="426" y="1"/>
      <point x="493" y="65"/>
      <point x="493" y="170" type="curve" smooth="yes"/>
      <point x="493" y="293"/>
      <point x="425" y="333"/>
      <point x="305" y="385" type="curve" smooth="yes"/>
      <point x="222" y="423"/>
      <point x="163" y="449"/>
      <point x="163" y="534" type="curve" smooth="yes"/>
      <point x="163" y="604"/>
      <point x="227" y="640"/>
      <point x="293" y="640" type="curve" smooth="yes"/>
      <point x="357" y="640"/>
      <point x="415" y="616"/>
      <point x="444" y="599" type="curve"/>
      <point x="470" y="667" type="line"/>
      <point x="442" y="689"/>
      <point x="370" y="709"/>
      <point x="296" y="709" type="curve" smooth="yes"/>
      <point x="163" y="709"/>
      <point x="85" y="638"/>
      <point x="85" y="520" type="curve" smooth="yes"/>
      <point x="85" y="418"/>
      <point x="160" y="368"/>
      <point x="252" y="330" type="curve"/>
      <point x="333" y="297"/>
      <point x="416" y="262"/>
      <point x="416" y="167" type="curve" smooth="yes"/>
      <point x="416" y="89"/>
      <point x="356" y="54"/>
      <point x="263" y="54" type="curve" smooth="yes"/>
      <point x="179" y="54"/>
      <point x="117" y="83"/>
      <point x="92" y="98" type="curve"/>
      <point x="67" y="33" type="line"/>
      <point x="91" y="17"/>
      <point x="160" y="-12"/>
      <point x="253" y="-16" type="curve"/>
      <point x="242" y="-34"/>
      <point x="232" y="-61"/>
      <point x="225" y="-75" type="curve"/>
      <point x="229" y="-77" type="line" smooth="yes"/>
      <point x="256" y="-85"/>
      <point x="272" y="-96"/>
      <point x="272" y="-111" type="curve" smooth="yes"/>
      <point x="272" y="-123"/>
      <point x="261" y="-132"/>
      <point x="238" y="-132" type="curve" smooth="yes"/>
      <point x="216" y="-132"/>
      <point x="203" y="-128"/>
      <point x="184" y="-122" type="curve"/>
      <point x="175" y="-175" type="line"/>
      <point x="188" y="-182"/>
      <point x="220" y="-189"/>
    </contour>
  </outline>
</glyph>
